{
.appVersion = "1192";
DisplayStrings = (
" ",
"/quoteright/quotesinglbase",
"/quoteright.ss01",
"/quoteright",
"/quotedblbase",
"/bitcoin"
);
classes = (
{
automatic = 1;

glyphs = (
{
glyphname = A;
lastChange = "2019-04-05 05:20:29 +0000";
layers = (
{
anchors = (
{
name = bottom;
position = "{676, 0}";
},
{
name = mark0;
position = "{664, -166}";
},
{
name = ogonek;
position = "{1236, 20}";
},
{
name = top;
position = "{694, 1486}";
}
);
layerId = UUID0;
paths = (
{
closed = 1;
nodes = (
"-16 86 LINE",
"-16 0 LINE",
"434 0 LINE",
"434 86 LINE",
"256 106 LINE",
"362 422 LINE",
"986 422 LINE",
"1092 104 LINE",
"916 86 LINE",
"916 0 LINE",
"1404 0 LINE",
"1404 86 LINE",
"1274 104 LINE",
"778 1500 LINE",
"614 1500 LINE",
"112 104 LINE"
);
},
{
closed = 1;
nodes = (
"396 526 LINE",
"620 1186 LINE",
"676 1382 LINE",
"730 1192 LINE",
"950 526 LINE"
);
}
);
width = 1388;
},
{
anchors = (
{
name = bottom;
position = "{685, 0}";
},
{
name = mark0;
position = "{587, -166}";
},
{
name = ogonek;
position = "{1282, 20}";
},
{
name = top;
position = "{706, 1486}";
}
);
layerId = "DEBB1CE4-A72D-4960-969E-E04A036D2FA1";
paths = (
{
closed = 1;
nodes = (
"-37 132 LINE",
"-35 0 LINE",
"498 0 LINE",
"498 132 LINE",
"342 150 LINE",
"409 392 LINE",
"887 392 LINE",
"956 153 LINE",
"814 132 LINE",
"814 0 LINE",
"1444 0 LINE",
"1444 132 LINE",
"1333 153 LINE",
"887 1493 LINE",
"527 1493 LINE",
"79 154 LINE"
);
},
{
closed = 1;
nodes = (
"449 545 LINE",
"614 1142 LINE",
"645 1284 LINE",
"675 1143 LINE",
"845 545 LINE"
);
}
);
width = 1419;
}
);
leftKerningGroup = A;
rightKerningGroup = A;
unicode = 0041;
},
{
glyphname = Aogonek;
lastChange = "2019-04-05 05:20:29 +0000";
layers = (
{
layerId = UUID0;
paths = (
{
closed = 1;
nodes = (
"-22 86 LINE",
"-22 0 LINE",
"428 0 LINE",
"428 86 LINE",
"250 106 LINE",
"356 422 LINE",
"980 422 LINE",
"1086 104 LINE",
"910 86 LINE",
"910 0 LINE",
"1158 0 LINE",
"1018 -60 OFFCURVE",
"904 -202 OFFCURVE",
"904 -310 CURVE SMOOTH",
"904 -452 OFFCURVE",
"1024 -498 OFFCURVE",
"1146 -498 CURVE SMOOTH",
"1228 -498 OFFCURVE",
"1316 -472 OFFCURVE",
"1372 -430 CURVE",
"1372 -346 LINE",
"1326 -370 OFFCURVE",
"1268 -386 OFFCURVE",
"1216 -386 CURVE SMOOTH",
"1134 -386 OFFCURVE",
"1060 -352 OFFCURVE",
"1060 -258 CURVE SMOOTH",
"1060 -174 OFFCURVE",
"1154 -56 OFFCURVE",
"1284 0 CURVE",
"1398 0 LINE",
"1398 86 LINE",
"1268 104 LINE",
"768 1500 LINE",
"604 1500 LINE",
"106 104 LINE"
);
},
{
closed = 1;
nodes = (
"390 526 LINE",
"610 1186 LINE",
"664 1382 LINE",
"720 1192 LINE",
"944 526 LINE"
);
}
);
width = 1356;
},
{
layerId = "DEBB1CE4-A72D-4960-969E-E04A036D2FA1";
paths = (
{
closed = 1;
nodes = (
"-38 132 LINE",
"-37 0 LINE",
"496 0 LINE",
"496 132 LINE",
"340 150 LINE",
"408 392 LINE",
"885 392 LINE",
"954 153 LINE",
"812 132 LINE",
"812 0 LINE",
"1182 0 LINE",
"1014 -53 OFFCURVE",
"869 -184 OFFCURVE",
"869 -301 CURVE SMOOTH",
"869 -427 OFFCURVE",
"1009 -501 OFFCURVE",
"1173 -501 CURVE SMOOTH",
"1255 -501 OFFCURVE",
"1366 -478 OFFCURVE",
"1422 -436 CURVE",
"1422 -296 LINE",
"1378 -315 OFFCURVE",
"1345 -322 OFFCURVE",
"1299 -322 CURVE SMOOTH",
"1212 -322 OFFCURVE",
"1153 -287 OFFCURVE",
"1153 -221 CURVE SMOOTH",
"1153 -143 OFFCURVE",
"1235 -47 OFFCURVE",
"1365 0 CURVE",
"1442 0 LINE",
"1442 132 LINE",
"1332 153 LINE",
"885 1493 LINE",
"524 1493 LINE",
"78 154 LINE"
);
},
{
closed = 1;
nodes = (
"448 545 LINE",
"611 1142 LINE",
"642 1284 LINE",
"673 1143 LINE",
"844 545 LINE"
);
}
);
width = 1411;
}
);
leftKerningGroup = A;
rightKerningGroup = A;
unicode = 0104;
},
{
glyphname = AE;
lastChange = "2019-04-05 05:20:29 +0000";
layers = (
{
anchors = (
{
name = bottom;
position = "{1032, 0}";
},
{
name = mark0;
position = "{988, -166}";
},
{
name = top;
position = "{1032, 1486}";
}
);
layerId = UUID0;
paths = (
{
closed = 1;
nodes = (
"746 84 LINE",
"746 0 LINE",
"1834 0 LINE",
"1910 342 LINE",
"1814 368 LINE",
"1698 118 LINE",
"1086 98 LINE",
"1086 718 LINE",
"1448 714 LINE",
"1472 542 LINE",
"1574 542 LINE",
"1574 984 LINE",
"1472 984 LINE",
"1448 818 LINE",
"1086 812 LINE",
"1086 1396 LINE",
"1616 1388 LINE",
"1676 1186 LINE",
"1772 1186 LINE",
"1738 1486 LINE",
"390 1486 LINE",
"390 1404 LINE",
"662 1382 LINE",
"86 104 LINE",
"-60 84 LINE",
"-60 0 LINE",
"398 0 LINE",
"398 84 LINE",
"242 104 LINE",
"382 440 LINE",
"922 440 LINE",
"922 104 LINE"
);
},
{
closed = 1;
nodes = (
"426 544 LINE",
"672 1134 LINE",
"784 1390 LINE",
"922 1390 LINE",
"922 544 LINE"
);
}
);
width = 1942;
},
{
anchors = (
{
name = bottom;
position = "{1008, 0}";
},
{
name = mark0;
position = "{970, -166}";
},
{
name = top;
position = "{1008, 1486}";
}
);
layerId = "DEBB1CE4-A72D-4960-969E-E04A036D2FA1";
paths = (
{
closed = 1;
nodes = (
"704 130 LINE",
"704 0 LINE",
"1890 0 LINE",
"1956 372 LINE",
"1768 424 LINE",
"1640 166 LINE",
"1200 138 LINE",
"1200 682 LINE",
"1446 676 LINE",
"1478 502 LINE",
"1616 502 LINE",
"1616 1004 LINE",
"1478 1004 LINE",
"1444 842 LINE",
"1200 834 LINE",
"1200 1356 LINE",
"1598 1334 LINE",
"1668 1132 LINE",
"1826 1132 LINE",
"1796 1486 LINE",
"270 1486 LINE",
"270 1348 LINE",
"526 1320 LINE",
"40 152 LINE",
"-102 130 LINE",
"-102 0 LINE",
"456 0 LINE",
"456 130 LINE",
"308 152 LINE",
"404 410 LINE",
"860 410 LINE",
"860 152 LINE"
);
},
{
closed = 1;
nodes = (
"460 568 LINE",
"644 1062 LINE",
"744 1342 LINE",
"860 1342 LINE",
"860 568 LINE"
);
}
);
width = 1952;
}
);
leftKerningGroup = A;
rightKerningGroup = E;
unicode = 00C6;
},
{
glyphname = B;
lastChange = "2019-04-05 05:37:27 +0000";
layers = (
{
anchors = (
{
name = bottom;
position = "{672, 0}";
},
{
name = mark0;
position = "{720, -166}";
},
{
name = top;
position = "{672, 1486}";
}
);
layerId = UUID0;
paths = (
{
closed = 1;
nodes = (
"100 86 LINE",
"100 0 LINE",
"346 0 LINE SMOOTH",
"500 0 OFFCURVE",
"566 -12 OFFCURVE",
"664 -12 CURVE SMOOTH",
"1126 -12 OFFCURVE",
"1266 210 OFFCURVE",
"1266 444 CURVE SMOOTH",
"1266 656 OFFCURVE",
"1118 800 OFFCURVE",
"864 792 CURVE",
"1058 830 OFFCURVE",
"1160 986 OFFCURVE",
"1160 1166 CURVE SMOOTH",
"1160 1376 OFFCURVE",
"1024 1502 OFFCURVE",
"666 1502 CURVE SMOOTH",
"566 1502 OFFCURVE",
"474 1486 OFFCURVE",
"354 1486 CURVE SMOOTH",
"104 1486 LINE",
"104 1400 LINE",
"272 1378 LINE",
"272 104 LINE"
);
},
{
closed = 1;
nodes = (
"436 1398 LINE",
"476 1398 OFFCURVE",
"546 1410 OFFCURVE",
"644 1410 CURVE SMOOTH",
"910 1410 OFFCURVE",
"994 1314 OFFCURVE",
"994 1128 CURVE SMOOTH",
"994 932 OFFCURVE",
"884 824 OFFCURVE",
"682 824 CURVE SMOOTH",
"630 824 OFFCURVE",
"498 822 OFFCURVE",
"436 826 CURVE"
);
},
{
closed = 1;
nodes = (
"436 718 LINE",
"496 722 OFFCURVE",
"650 720 OFFCURVE",
"722 720 CURVE SMOOTH",
"980 720 OFFCURVE",
"1086 626 OFFCURVE",
"1086 414 CURVE SMOOTH",
"1086 210 OFFCURVE",
"972 84 OFFCURVE",
"662 84 CURVE SMOOTH",
"594 84 OFFCURVE",
"488 84 OFFCURVE",
"436 100 CURVE"
);
}
);
width = 1336;
},
{
anchors = (
{
name = bottom;
position = "{729, 0}";
},
{
name = mark0;
position = "{745, -166}";
},
{
name = top;
position = "{729, 1486}";
}
);
layerId = "DEBB1CE4-A72D-4960-969E-E04A036D2FA1";
paths = (
{
closed = 1;
nodes = (
"79 132 LINE",
"79 0 LINE",
"403 0 LINE SMOOTH",
"533 0 OFFCURVE",
"591 -12 OFFCURVE",
"741 -12 CURVE SMOOTH",
"1243 -12 OFFCURVE",
"1387 192 OFFCURVE",
"1387 450 CURVE SMOOTH",
"1387 672 OFFCURVE",
"1219 794 OFFCURVE",
"957 794 CURVE",
"1143 820 OFFCURVE",
"1287 954 OFFCURVE",
"1287 1160 CURVE SMOOTH",
"1287 1368 OFFCURVE",
"1173 1500 OFFCURVE",
"723 1500 CURVE SMOOTH",
"621 1500 OFFCURVE",
"525 1486 OFFCURVE",
"399 1486 CURVE SMOOTH",
"83 1486 LINE",
"83 1346 LINE",
"233 1318 LINE",
"233 154 LINE"
);
},
{
closed = 1;
nodes = (
"571 1358 LINE",
"597 1362 OFFCURVE",
"679 1368 OFFCURVE",
"709 1368 CURVE SMOOTH",
"879 1368 OFFCURVE",
"947 1292 OFFCURVE",
"947 1126 CURVE SMOOTH",
"947 952 OFFCURVE",
"885 840 OFFCURVE",
"733 840 CURVE SMOOTH",
"685 840 OFFCURVE",
"607 840 OFFCURVE",
"571 844 CURVE"
);
},
{
closed = 1;
nodes = (
"571 686 LINE",
"607 688 OFFCURVE",
"693 690 OFFCURVE",
"753 690 CURVE SMOOTH",
"927 690 OFFCURVE",
"1011 622 OFFCURVE",
"1011 430 CURVE SMOOTH",
"1011 242 OFFCURVE",
"935 126 OFFCURVE",
"729 126 CURVE SMOOTH",
"675 126 OFFCURVE",
"601 130 OFFCURVE",
"571 142 CURVE"
);
}
);
width = 1443;
}
);
leftKerningGroup = H;
leftMetricsKey = H;
rightKerningGroup = B;
unicode = 0042;
},
{
glyphname = C;
lastChange = "2019-04-05 05:20:29 +0000";
layers = (
{
anchors = (
{
name = bottom;
position = "{730, 0}";
},
{
name = mark0;
position = "{748, -166}";
},
{
name = top;
position = "{730, 1486}";
}
);
layerId = UUID0;
paths = (
{
closed = 1;
nodes = (
"994 -22 OFFCURVE",
"1068 50 OFFCURVE",
"1172 54 CURVE",
"1222 322 LINE",
"1124 336 LINE",
"1044 148 LINE",
"992 106 OFFCURVE",
"924 74 OFFCURVE",
"758 74 CURVE SMOOTH",
"416 74 OFFCURVE",
"260 398 OFFCURVE",
"260 768 CURVE SMOOTH",
"260 1178 OFFCURVE",
"472 1406 OFFCURVE",
"744 1406 CURVE SMOOTH",
"902 1406 OFFCURVE",
"1006 1376 OFFCURVE",
"1042 1344 CURVE",
"1086 1112 LINE",
"1190 1112 LINE",
"1206 1438 LINE",
"1136 1454 OFFCURVE",
"962 1502 OFFCURVE",
"784 1502 CURVE SMOOTH",
"382 1502 OFFCURVE",
"72 1182 OFFCURVE",
"72 736 CURVE SMOOTH",
"72 272 OFFCURVE",
"318 -22 OFFCURVE",
"754 -22 CURVE SMOOTH"
);
}
);
width = 1298;
},
{
anchors = (
{
name = bottom;
position = "{727, 0}";
},
{
name = mark0;
position = "{730, -166}";
},
{
name = top;
position = "{757, 1486}";
}
);
layerId = "DEBB1CE4-A72D-4960-969E-E04A036D2FA1";
paths = (
{
closed = 1;
nodes = (
"1009 -22 OFFCURVE",
"1090 43 OFFCURVE",
"1225 54 CURVE",
"1265 405 LINE",
"1074 423 LINE",
"980 183 LINE",
"946 150 OFFCURVE",
"897 121 OFFCURVE",
"779 121 CURVE SMOOTH",
"549 121 OFFCURVE",
"437 386 OFFCURVE",
"437 758 CURVE SMOOTH",
"437 1163 OFFCURVE",
"572 1360 OFFCURVE",
"771 1360 CURVE SMOOTH",
"872 1360 OFFCURVE",
"932 1336 OFFCURVE",
"955 1313 CURVE",
"1022 1006 LINE",
"1225 1006 LINE",
"1250 1462 LINE",
"1108 1466 OFFCURVE",
"990 1502 OFFCURVE",
"793 1502 CURVE SMOOTH",
"367 1502 OFFCURVE",
"51 1210 OFFCURVE",
"51 726 CURVE SMOOTH",
"51 272 OFFCURVE",
"285 -22 OFFCURVE",
"758 -22 CURVE SMOOTH"
);
}
);
width = 1326;
}
);
leftKerningGroup = O;
rightKerningGroup = C;
unicode = 0043;
},
{
glyphname = D;
lastChange = "2019-04-05 05:20:29 +0000";
layers = (
{
anchors = (
{
name = bottom;
position = "{756, 0}";
},
{
name = center;
position = "{756, 744}";
},
{
name = mark0;
position = "{786, -166}";
},
{
name = top;
position = "{756, 1486}";
}
);
layerId = UUID0;
paths = (
{
closed = 1;
nodes = (
"100 86 LINE",
"100 0 LINE",
"356 0 LINE SMOOTH",
"472 0 OFFCURVE",
"586 -14 OFFCURVE",
"682 -16 CURVE SMOOTH",
"1126 -26 OFFCURVE",
"1440 298 OFFCURVE",
"1440 788 CURVE SMOOTH",
"1440 1216 OFFCURVE",
"1226 1502 OFFCURVE",
"708 1502 CURVE SMOOTH",
"588 1502 OFFCURVE",
"476 1486 OFFCURVE",
"354 1486 CURVE SMOOTH",
"112 1486 LINE",
"112 1400 LINE",
"272 1378 LINE",
"272 104 LINE"
);
},
{
closed = 1;
nodes = (
"436 1394 LINE",
"492 1396 OFFCURVE",
"566 1406 OFFCURVE",
"656 1406 CURVE SMOOTH",
"1062 1406 OFFCURVE",
"1264 1188 OFFCURVE",
"1264 752 CURVE SMOOTH",
"1264 318 OFFCURVE",
"1028 86 OFFCURVE",
"706 82 CURVE SMOOTH",
"614 80 OFFCURVE",
"532 80 OFFCURVE",
"436 98 CURVE"
);
}
);
width = 1512;
},
{
anchors = (
{
name = bottom;
position = "{763, 0}";
},
{
name = center;
position = "{763, 744}";
},
{
name = mark0;
position = "{796, -166}";
},
{
name = top;
position = "{763, 1486}";
}
);
layerId = "DEBB1CE4-A72D-4960-969E-E04A036D2FA1";
paths = (
{
closed = 1;
nodes = (
"69 132 LINE",
"69 0 LINE",
"391 0 LINE SMOOTH",
"469 0 OFFCURVE",
"604 -13 OFFCURVE",
"709 -16 CURVE SMOOTH",
"1185 -26 OFFCURVE",
"1473 323 OFFCURVE",
"1473 795 CURVE SMOOTH",
"1473 1241 OFFCURVE",
"1235 1499 OFFCURVE",
"739 1499 CURVE SMOOTH",
"613 1499 OFFCURVE",
"517 1486 OFFCURVE",
"388 1486 CURVE SMOOTH",
"75 1486 LINE",
"75 1347 LINE",
"222 1319 LINE",
"222 154 LINE"
);
},
{
closed = 1;
nodes = (
"560 1345 LINE",
"584 1347 OFFCURVE",
"628 1360 OFFCURVE",
"696 1360 CURVE SMOOTH",
"987 1360 OFFCURVE",
"1099 1110 OFFCURVE",
"1099 746 CURVE SMOOTH",
"1099 315 OFFCURVE",
"951 132 OFFCURVE",
"721 129 CURVE SMOOTH",
"661 129 OFFCURVE",
"606 133 OFFCURVE",
"560 148 CURVE"
);
}
);
width = 1527;
}
);
leftKerningGroup = H;
rightKerningGroup = D;
unicode = 0044;
},
{
glyphname = Eth;
lastChange = "2019-04-05 05:20:29 +0000";
layers = (
{
layerId = UUID0;
paths = (
{
closed = 1;
nodes = (
"118 822 LINE",
"118 730 LINE",
"272 730 LINE",
"272 104 LINE",
"100 86 LINE",
"100 0 LINE",
"356 0 LINE SMOOTH",
"472 0 OFFCURVE",
"586 -14 OFFCURVE",
"682 -16 CURVE SMOOTH",
"1126 -26 OFFCURVE",
"1440 298 OFFCURVE",
"1440 788 CURVE SMOOTH",
"1440 1216 OFFCURVE",
"1226 1502 OFFCURVE",
"708 1502 CURVE SMOOTH",
"588 1502 OFFCURVE",
"476 1486 OFFCURVE",
"354 1486 CURVE SMOOTH",
"112 1486 LINE",
"112 1400 LINE",
"272 1378 LINE",
"272 822 LINE"
);
},
{
closed = 1;
nodes = (
"436 822 LINE",
"436 1394 LINE",
"492 1396 OFFCURVE",
"566 1406 OFFCURVE",
"656 1406 CURVE SMOOTH",
"1062 1406 OFFCURVE",
"1264 1188 OFFCURVE",
"1264 752 CURVE SMOOTH",
"1264 318 OFFCURVE",
"1028 86 OFFCURVE",
"706 82 CURVE SMOOTH",
"614 80 OFFCURVE",
"532 80 OFFCURVE",
"436 98 CURVE",
"436 730 LINE",
"812 730 LINE",
"812 822 LINE"
);
}
);
width = 1512;
},
{
layerId = "DEBB1CE4-A72D-4960-969E-E04A036D2FA1";
paths = (
{
closed = 1;
nodes = (
"84 838 LINE",
"84 700 LINE",
"222 700 LINE",
"222 154 LINE",
"69 132 LINE",
"69 0 LINE",
"391 0 LINE SMOOTH",
"469 0 OFFCURVE",
"604 -13 OFFCURVE",
"709 -16 CURVE SMOOTH",
"1185 -26 OFFCURVE",
"1473 323 OFFCURVE",
"1473 795 CURVE SMOOTH",
"1473 1241 OFFCURVE",
"1235 1499 OFFCURVE",
"739 1499 CURVE SMOOTH",
"613 1499 OFFCURVE",
"517 1486 OFFCURVE",
"388 1486 CURVE SMOOTH",
"75 1486 LINE",
"75 1347 LINE",
"222 1319 LINE",
"222 838 LINE"
);
},
{
closed = 1;
nodes = (
"560 838 LINE",
"560 1345 LINE",
"584 1347 OFFCURVE",
"628 1360 OFFCURVE",
"696 1360 CURVE SMOOTH",
"987 1360 OFFCURVE",
"1099 1110 OFFCURVE",
"1099 746 CURVE SMOOTH",
"1099 315 OFFCURVE",
"951 132 OFFCURVE",
"721 129 CURVE SMOOTH",
"661 129 OFFCURVE",
"606 133 OFFCURVE",
"560 148 CURVE",
"560 700 LINE",
"839 700 LINE",
"839 838 LINE"
);
}
);
width = 1527;
}
);
leftKerningGroup = H;
rightKerningGroup = D;
unicode = 00D0;
},
{
glyphname = E;
lastChange = "2019-04-05 05:20:29 +0000";
layers = (
{
anchors = (
{
name = bottom;
position = "{650, 0}";
},
{
name = mark0;
position = "{682, -166}";
},
{
name = ogonek;
position = "{1168, 20}";
},
{
name = top;
position = "{682, 1486}";
},
{
name = topleft;
position = "{40, 1486}";
}
);
layerId = UUID0;
paths = (
{
closed = 1;
nodes = (
"100 86 LINE",
"100 0 LINE",
"1184 0 LINE",
"1246 338 LINE",
"1150 368 LINE",
"1048 118 LINE",
"436 102 LINE",
"436 718 LINE",
"804 712 LINE",
"830 542 LINE",
"930 542 LINE",
"930 984 LINE",
"830 984 LINE",
"804 818 LINE",
"436 812 LINE",
"436 1394 LINE",
"972 1384 LINE",
"1026 1192 LINE",
"1122 1192 LINE",
"1094 1486 LINE",
"104 1486 LINE",
"104 1400 LINE",
"272 1378 LINE",
"272 104 LINE"
);
}
);
width = 1298;
},
{
anchors = (
{
name = bottom;
position = "{657, 0}";
},
{
name = mark0;
position = "{697, -166}";
},
{
name = ogonek;
position = "{1183, 20}";
},
{
name = top;
position = "{682, 1486}";
},
{
name = topleft;
position = "{40, 1486}";
}
);
layerId = "DEBB1CE4-A72D-4960-969E-E04A036D2FA1";
paths = (
{
closed = 1;
nodes = (
"69 132 LINE",
"69 0 LINE",
"1246 0 LINE",
"1293 376 LINE",
"1123 424 LINE",
"1002 165 LINE",
"568 138 LINE",
"568 682 LINE",
"810 677 LINE",
"843 502 LINE",
"982 502 LINE",
"982 1003 LINE",
"843 1003 LINE",
"808 840 LINE",
"568 834 LINE",
"568 1354 LINE",
"959 1334 LINE",
"1027 1133 LINE",
"1186 1133 LINE",
"1159 1486 LINE",
"66 1486 LINE",
"66 1347 LINE",
"222 1319 LINE",
"222 153 LINE"
);
}
);
width = 1314;
}
);
leftKerningGroup = H;
rightKerningGroup = E;
unicode = 0045;
},
{
glyphname = Ecedilla;
lastChange = "2019-04-05 05:20:29 +0000";
layers = (
{
anchors = (
{
name = _bottom;
position = "{650, 0}";
},
{
name = bottom;
position = "{650, 0}";
},
{
name = mark0;
position = "{682, -166}";
},
{
name = ogonek;
position = "{1168, 20}";
},
{
name = top;
position = "{662, 1486}";
},
{
name = topleft;
position = "{40, 1486}";
}
);
layerId = UUID0;
paths = (
{
closed = 1;
nodes = (
"722 -470 OFFCURVE",
"810 -422 OFFCURVE",
"816 -286 CURVE SMOOTH",
"822 -160 OFFCURVE",
"732 -38 OFFCURVE",
"690 0 CURVE",
"1184 0 LINE",
"1246 338 LINE",
"1150 368 LINE",
"1048 118 LINE",
"436 102 LINE",
"436 718 LINE",
"804 712 LINE",
"830 542 LINE",
"930 542 LINE",
"930 984 LINE",
"830 984 LINE",
"804 818 LINE",
"436 812 LINE",
"436 1394 LINE",
"972 1384 LINE",
"1026 1192 LINE",
"1122 1192 LINE",
"1094 1486 LINE",
"104 1486 LINE",
"104 1400 LINE",
"272 1378 LINE",
"272 104 LINE",
"100 86 LINE",
"100 0 LINE",
"608 0 LINE",
"626 -26 OFFCURVE",
"676 -116 OFFCURVE",
"676 -200 CURVE SMOOTH",
"676 -322 OFFCURVE",
"622 -342 OFFCURVE",
"524 -342 CURVE SMOOTH",
"504 -342 OFFCURVE",
"460 -336 OFFCURVE",
"432 -326 CURVE",
"430 -444 LINE",
"466 -458 OFFCURVE",
"526 -470 OFFCURVE",
"572 -470 CURVE SMOOTH"
);
}
);
width = 1298;
},
{
anchors = (
{
name = _bottom;
position = "{657, 0}";
},
{
name = bottom;
position = "{657, 0}";
},
{
name = mark0;
position = "{697, -166}";
},
{
name = ogonek;
position = "{1183, 20}";
},
{
name = top;
position = "{665, 1486}";
},
{
name = topleft;
position = "{40, 1486}";
}
);
layerId = "DEBB1CE4-A72D-4960-969E-E04A036D2FA1";
paths = (
{
closed = 1;
nodes = (
"756 -513 OFFCURVE",
"862 -460 OFFCURVE",
"871 -289 CURVE SMOOTH",
"878 -159 OFFCURVE",
"784 -43 OFFCURVE",
"738 0 CURVE",
"1246 0 LINE",
"1293 376 LINE",
"1123 424 LINE",
"1002 165 LINE",
"565 139 LINE",
"565 681 LINE",
"810 677 LINE",
"843 502 LINE",
"982 502 LINE",
"982 1003 LINE",
"843 1003 LINE",
"808 840 LINE",
"565 834 LINE",
"565 1354 LINE",
"959 1334 LINE",
"1027 1133 LINE",
"1186 1133 LINE",
"1159 1486 LINE",
"66 1486 LINE",
"66 1347 LINE",
"222 1319 LINE",
"222 153 LINE",
"69 132 LINE",
"69 0 LINE",
"592 0 LINE",
"613 -31 OFFCURVE",
"652 -107 OFFCURVE",
"652 -175 CURVE SMOOTH",
"652 -298 OFFCURVE",
"604 -312 OFFCURVE",
"514 -312 CURVE SMOOTH",
"498 -312 OFFCURVE",
"459 -308 OFFCURVE",
"431 -299 CURVE",
"430 -484 LINE",
"465 -499 OFFCURVE",
"526 -513 OFFCURVE",
"572 -513 CURVE SMOOTH"
);
}
);
width = 1314;
}
);
leftKerningGroup = H;
rightKerningGroup = E;
unicode = 0228;
},
{
glyphname = Eogonek;
lastChange = "2019-04-05 05:20:29 +0000";
layers = (
{
layerId = UUID0;
paths = (
{
closed = 1;
nodes = (
"100 86 LINE",
"100 0 LINE",
"998 0 LINE",
"846 -60 OFFCURVE",
"714 -200 OFFCURVE",
"714 -310 CURVE SMOOTH",
"714 -452 OFFCURVE",
"836 -498 OFFCURVE",
"958 -498 CURVE SMOOTH",
"1040 -498 OFFCURVE",
"1128 -472 OFFCURVE",
"1184 -430 CURVE",
"1184 -346 LINE",
"1138 -370 OFFCURVE",
"1080 -386 OFFCURVE",
"1028 -386 CURVE SMOOTH",
"946 -386 OFFCURVE",
"874 -352 OFFCURVE",
"874 -258 CURVE SMOOTH",
"874 -166 OFFCURVE",
"1024 -26 OFFCURVE",
"1158 0 CURVE",
"1184 0 LINE",
"1246 338 LINE",
"1150 368 LINE",
"1048 118 LINE",
"436 102 LINE",
"436 718 LINE",
"804 712 LINE",
"830 542 LINE",
"930 542 LINE",
"930 984 LINE",
"830 984 LINE",
"804 818 LINE",
"436 812 LINE",
"436 1394 LINE",
"972 1384 LINE",
"1026 1192 LINE",
"1122 1192 LINE",
"1094 1486 LINE",
"104 1486 LINE",
"104 1400 LINE",
"272 1378 LINE",
"272 104 LINE"
);
}
);
width = 1300;
},
{
layerId = "DEBB1CE4-A72D-4960-969E-E04A036D2FA1";
paths = (
{
closed = 1;
nodes = (
"69 132 LINE",
"69 0 LINE",
"1011 0 LINE",
"827 -64 OFFCURVE",
"720 -184 OFFCURVE",
"720 -301 CURVE SMOOTH",
"720 -427 OFFCURVE",
"824 -501 OFFCURVE",
"988 -501 CURVE SMOOTH",
"1070 -501 OFFCURVE",
"1177 -478 OFFCURVE",
"1233 -436 CURVE",
"1233 -296 LINE",
"1188 -315 OFFCURVE",
"1160 -322 OFFCURVE",
"1112 -322 CURVE SMOOTH",
"1032 -322 OFFCURVE",
"983 -283 OFFCURVE",
"983 -215 CURVE SMOOTH",
"983 -144 OFFCURVE",
"1095 -32 OFFCURVE",
"1229 0 CURVE",
"1246 0 LINE",
"1293 376 LINE",
"1123 424 LINE",
"1002 165 LINE",
"565 139 LINE",
"565 681 LINE",
"810 677 LINE",
"843 502 LINE",
"982 502 LINE",
"982 1003 LINE",
"843 1003 LINE",
"808 840 LINE",
"565 834 LINE",
"565 1354 LINE",
"959 1334 LINE",
"1027 1133 LINE",
"1186 1133 LINE",
"1159 1486 LINE",
"66 1486 LINE",
"66 1347 LINE",
"222 1319 LINE",
"222 153 LINE"
);
}
);
width = 1315;
}
);
leftKerningGroup = H;
rightKerningGroup = Eogonek;
unicode = 0118;
},
{
glyphname = Ezh;
lastChange = "2019-04-05 05:20:29 +0000";
layers = (
{
anchors = (
{
name = top;
position = "{556, 1486}";
}
);
layerId = UUID0;
paths = (
{
closed = 1;
nodes = (
"1024 1402 LINE",
"1024 1486 LINE",
"110 1486 LINE",
"132 1152 LINE",
"234 1152 LINE",
"264 1358 LINE",
"828 1364 LINE",
"828 1364 OFFCURVE",
"386 856 OFFCURVE",
"372 838 CURVE",
"396 768 LINE",
"424 768 OFFCURVE",
"452 768 OFFCURVE",
"480 768 CURVE",
"792 756 OFFCURVE",
"894 646 OFFCURVE",
"894 440 CURVE SMOOTH",
"894 260 OFFCURVE",
"762 96 OFFCURVE",
"484 96 CURVE SMOOTH",
"322 96 OFFCURVE",
"266 132 OFFCURVE",
"246 140 CURVE",
"204 376 LINE",
"110 376 LINE",
"72 56 LINE",
"124 44 OFFCURVE",
"242 -12 OFFCURVE",
"462 -12 CURVE SMOOTH",
"820 -12 OFFCURVE",
"1084 172 OFFCURVE",
"1084 466 CURVE SMOOTH",
"1084 724 OFFCURVE",
"926 850 OFFCURVE",
"654 850 CURVE SMOOTH",
"614 850 OFFCURVE",
"574 848 OFFCURVE",
"530 842 CURVE"
);
}
);
width = 1168;
},
{
anchors = (
{
name = top;
position = "{617, 1486}";
}
);
layerId = "DEBB1CE4-A72D-4960-969E-E04A036D2FA1";
paths = (
{
closed = 1;
nodes = (
"1150 1341 LINE",
"1150 1486 LINE",
"83 1486 LINE",
"107 1077 LINE",
"308 1077 LINE",
"354 1305 LINE",
"798 1312 LINE",
"716 1196 OFFCURVE",
"516 948 OFFCURVE",
"430 826 CURVE",
"474 730 LINE",
"504 734 OFFCURVE",
"532 734 OFFCURVE",
"557 734 CURVE",
"795 729 OFFCURVE",
"830 596 OFFCURVE",
"830 437 CURVE SMOOTH",
"830 244 OFFCURVE",
"710 117 OFFCURVE",
"533 117 CURVE SMOOTH",
"424 117 OFFCURVE",
"372 154 OFFCURVE",
"363 168 CURVE",
"294 441 LINE",
"107 441 LINE",
"60 74 LINE",
"125 44 OFFCURVE",
"328 -19 OFFCURVE",
"540 -19 CURVE SMOOTH",
"1040 -19 OFFCURVE",
"1205 212 OFFCURVE",
"1205 493 CURVE SMOOTH",
"1205 715 OFFCURVE",
"1081 874 OFFCURVE",
"796 874 CURVE SMOOTH",
"772 874 OFFCURVE",
"744 872 OFFCURVE",
"716 869 CURVE"
);
}
);
width = 1283;
}
);
leftKerningGroup = Ezh;
rightKerningGroup = Ezh;
unicode = 01B7;
},
{
glyphname = F;
lastChange = "2019-04-05 05:20:29 +0000";
layers = (
{
anchors = (
{
name = bottom;
position = "{618, 0}";
},
{
name = mark0;
position = "{628, -166}";
},
{
name = top;
position = "{678, 1486}";
}
);
layerId = UUID0;
paths = (
{
closed = 1;
nodes = (
"108 86 LINE",
"108 0 LINE",
"750 0 LINE",
"750 86 LINE",
"436 104 LINE",
"436 706 LINE",
"836 698 LINE",
"870 528 LINE",
"962 528 LINE",
"962 970 LINE",
"870 970 LINE",
"836 808 LINE",
"436 802 LINE",
"436 1394 LINE",
"1000 1384 LINE",
"1054 1158 LINE",
"1164 1158 LINE",
"1144 1486 LINE",
"96 1486 LINE",
"96 1400 LINE",
"272 1378 LINE",
"272 104 LINE"
);
}
);
width = 1234;
},
{
anchors = (
{
name = bottom;
position = "{624, 0}";
},
{
name = mark0;
position = "{643, -166}";
},
{
name = top;
position = "{669, 1486}";
}
);
layerId = "DEBB1CE4-A72D-4960-969E-E04A036D2FA1";
paths = (
{
closed = 1;
nodes = (
"71 132 LINE",
"71 0 LINE",
"870 0 LINE",
"870 132 LINE",
"565 154 LINE",
"565 645 LINE",
"826 637 LINE",
"867 453 LINE",
"1006 453 LINE",
"1006 986 LINE",
"866 986 LINE",
"826 807 LINE",
"565 801 LINE",
"565 1354 LINE",
"948 1329 LINE",
"1029 1112 LINE",
"1208 1112 LINE",
"1187 1486 LINE",
"62 1486 LINE",
"62 1347 LINE",
"222 1319 LINE",
"222 154 LINE"
);
}
);
width = 1247;
}
);
leftKerningGroup = H;
rightKerningGroup = F;
unicode = 0046;
},
{
glyphname = G;
lastChange = "2019-04-05 05:20:29 +0000";
layers = (
{
anchors = (
{
name = bottom;
position = "{738, 0}";
},
{
name = mark0;
position = "{766, -166}";
},
{
name = top;
position = "{798, 1486}";
}
);
layerId = UUID0;
paths = (
{
closed = 1;
nodes = (
"1052 -22 OFFCURVE",
"1208 76 OFFCURVE",
"1314 80 CURVE",
"1314 622 LINE",
"1436 642 LINE",
"1436 748 LINE",
"868 748 LINE",
"868 642 LINE",
"1146 622 LINE",
"1146 166 LINE",
"1074 110 OFFCURVE",
"938 74 OFFCURVE",
"796 74 CURVE SMOOTH",
"448 74 OFFCURVE",
"284 418 OFFCURVE",
"284 770 CURVE SMOOTH",
"284 1192 OFFCURVE",
"518 1406 OFFCURVE",
"828 1406 CURVE SMOOTH",
"1016 1406 OFFCURVE",
"1104 1362 OFFCURVE",
"1134 1338 CURVE",
"1178 1108 LINE",
"1282 1108 LINE",
"1298 1440 LINE",
"1230 1456 OFFCURVE",
"1052 1502 OFFCURVE",
"846 1502 CURVE SMOOTH",
"428 1502 OFFCURVE",
"96 1220 OFFCURVE",
"96 718 CURVE SMOOTH",
"96 296 OFFCURVE",
"350 -22 OFFCURVE",
"784 -22 CURVE SMOOTH"
);
}
);
width = 1484;
},
{
anchors = (
{
name = bottom;
position = "{747, 0}";
},
{
name = mark0;
position = "{757, -166}";
},
{
name = top;
position = "{807, 1486}";
}
);
layerId = "DEBB1CE4-A72D-4960-969E-E04A036D2FA1";
paths = (
{
closed = 1;
nodes = (
"1039 -22 OFFCURVE",
"1249 76 OFFCURVE",
"1355 80 CURVE",
"1355 606 LINE",
"1455 623 LINE",
"1455 767 LINE",
"833 767 LINE",
"833 623 LINE",
"1019 601 LINE",
"1019 184 LINE",
"979 145 OFFCURVE",
"895 117 OFFCURVE",
"799 117 CURVE SMOOTH",
"553 117 OFFCURVE",
"457 385 OFFCURVE",
"457 758 CURVE SMOOTH",
"457 1159 OFFCURVE",
"593 1371 OFFCURVE",
"829 1371 CURVE SMOOTH",
"948 1371 OFFCURVE",
"1004 1340 OFFCURVE",
"1022 1320 CURVE",
"1078 1056 LINE",
"1319 1056 LINE",
"1342 1443 LINE",
"1271 1459 OFFCURVE",
"1049 1505 OFFCURVE",
"837 1505 CURVE SMOOTH",
"357 1505 OFFCURVE",
"59 1232 OFFCURVE",
"59 730 CURVE SMOOTH",
"59 305 OFFCURVE",
"309 -22 OFFCURVE",
"768 -22 CURVE SMOOTH"
);
}
);
width = 1503;
}
);
leftKerningGroup = O;
rightKerningGroup = G;
unicode = 0047;
},
{
glyphname = Gstroke;
lastChange = "2019-04-05 05:20:29 +0000";
layers = (
{
anchors = (
{
name = bottom;
position = "{738, 0}";
},
{
name = mark0;
position = "{766, -166}";
},
{
name = top;
position = "{798, 1486}";
}
);
layerId = UUID0;
paths = (
{
closed = 1;
nodes = (
"1052 -22 OFFCURVE",
"1208 76 OFFCURVE",
"1314 80 CURVE",
"1314 622 LINE",
"1436 642 LINE",
"1436 748 LINE",
"868 748 LINE",
"868 642 LINE",
"1146 622 LINE",
"1146 166 LINE",
"1074 110 OFFCURVE",
"938 74 OFFCURVE",
"796 74 CURVE SMOOTH",
"448 74 OFFCURVE",
"284 418 OFFCURVE",
"284 770 CURVE SMOOTH",
"284 1192 OFFCURVE",
"518 1406 OFFCURVE",
"828 1406 CURVE SMOOTH",
"1016 1406 OFFCURVE",
"1104 1362 OFFCURVE",
"1134 1338 CURVE",
"1178 1108 LINE",
"1282 1108 LINE",
"1298 1440 LINE",
"1230 1456 OFFCURVE",
"1052 1502 OFFCURVE",
"846 1502 CURVE SMOOTH",
"428 1502 OFFCURVE",
"96 1220 OFFCURVE",
"96 718 CURVE SMOOTH",
"96 296 OFFCURVE",
"350 -22 OFFCURVE",
"784 -22 CURVE SMOOTH"
);
},
{
closed = 1;
nodes = (
"804 454 LINE",
"804 334 LINE",
"1500 334 LINE",
"1500 454 LINE"
);
}
);
width = 1516;
},
{
anchors = (
{
name = bottom;
position = "{747, 0}";
},
{
name = mark0;
position = "{757, -166}";
},
{
name = top;
position = "{807, 1486}";
}
);
layerId = "DEBB1CE4-A72D-4960-969E-E04A036D2FA1";
paths = (
{
closed = 1;
nodes = (
"1039 -22 OFFCURVE",
"1239 76 OFFCURVE",
"1345 80 CURVE",
"1345 606 LINE",
"1455 623 LINE",
"1455 767 LINE",
"833 767 LINE",
"833 623 LINE",
"1029 601 LINE",
"1029 184 LINE",
"990 145 OFFCURVE",
"895 117 OFFCURVE",
"799 117 CURVE SMOOTH",
"553 117 OFFCURVE",
"457 385 OFFCURVE",
"457 758 CURVE SMOOTH",
"457 1159 OFFCURVE",
"593 1371 OFFCURVE",
"829 1371 CURVE SMOOTH",
"948 1371 OFFCURVE",
"1004 1340 OFFCURVE",
"1022 1320 CURVE",
"1078 1056 LINE",
"1319 1056 LINE",
"1342 1443 LINE",
"1271 1459 OFFCURVE",
"1049 1505 OFFCURVE",
"837 1505 CURVE SMOOTH",
"357 1505 OFFCURVE",
"59 1232 OFFCURVE",
"59 730 CURVE SMOOTH",
"59 305 OFFCURVE",
"309 -22 OFFCURVE",
"768 -22 CURVE SMOOTH"
);
},
{
closed = 1;
nodes = (
"777 467 LINE",
"777 300 LINE",
"1530 300 LINE",
"1530 467 LINE"
);
}
);
width = 1563;
}
);
leftKerningGroup = G;
leftMetricsKey = G;
rightKerningGroup = Gstroke;
unicode = 01E4;
},
{
glyphname = H;
lastChange = "2019-04-05 05:20:29 +0000";
layers = (
{
anchors = (
{
name = bottom;
position = "{812, 0}";
},
{
name = top;
position = "{828, 1486}";
}
);
layerId = UUID0;
paths = (
{
closed = 1;
nodes = (
"100 86 LINE",
"100 0 LINE",
"606 0 LINE",
"606 86 LINE",
"430 104 LINE",
"430 710 LINE",
"1194 710 LINE",
"1194 104 LINE",
"1024 86 LINE",
"1024 0 LINE",
"1524 0 LINE",
"1524 86 LINE",
"1358 104 LINE",
"1358 1378 LINE",
"1516 1400 LINE",
"1516 1486 LINE",
"1026 1486 LINE",
"1026 1400 LINE",
"1194 1378 LINE",
"1194 816 LINE",
"430 816 LINE",
"430 1378 LINE",
"604 1400 LINE",
"604 1486 LINE",
"102 1486 LINE",
"102 1400 LINE",
"266 1378 LINE",
"266 104 LINE"
);
}
);
width = 1624;
},
{
anchors = (
{
name = bottom;
position = "{846, 0}";
},
{
name = top;
position = "{850, 1486}";
}
);
layerId = "DEBB1CE4-A72D-4960-969E-E04A036D2FA1";
paths = (
{
closed = 1;
nodes = (
"79 132 LINE",
"79 0 LINE",
"729 0 LINE",
"729 132 LINE",
"565 153 LINE",
"565 672 LINE",
"1113 672 LINE",
"1113 154 LINE",
"961 132 LINE",
"961 0 LINE",
"1598 0 LINE",
"1598 132 LINE",
"1454 153 LINE",
"1454 1320 LINE",
"1596 1347 LINE",
"1596 1486 LINE",
"961 1486 LINE",
"961 1347 LINE",
"1113 1319 LINE",
"1113 841 LINE",
"565 841 LINE",
"565 1320 LINE",
"728 1347 LINE",
"728 1486 LINE",
"80 1486 LINE",
"80 1347 LINE",
"223 1320 LINE",
"223 153 LINE"
);
}
);
width = 1678;
}
);
leftKerningGroup = H;
rightKerningGroup = H;
unicode = 0048;
},
{
glyphname = Hbar;
lastChange = "2019-04-05 05:20:29 +0000";
layers = (
{
layerId = UUID0;
paths = (
{
closed = 1;
nodes = (
"48 1110 LINE",
"48 1018 LINE",
"278 1018 LINE",
"278 104 LINE",
"108 86 LINE",
"108 0 LINE",
"616 0 LINE",
"616 86 LINE",
"440 104 LINE",
"440 618 LINE",
"1208 618 LINE",
"1208 106 LINE",
"1042 84 LINE",
"1042 0 LINE",
"1536 0 LINE",
"1536 84 LINE",
"1372 106 LINE",
"1372 1018 LINE",
"1600 1018 LINE",
"1600 1110 LINE",
"1372 1110 LINE",
"1372 1378 LINE",
"1536 1400 LINE",
"1536 1488 LINE",
"1042 1488 LINE",
"1042 1400 LINE",
"1208 1378 LINE",
"1208 1110 LINE",
"440 1110 LINE",
"440 1378 LINE",
"614 1400 LINE",
"614 1488 LINE",
"114 1488 LINE",
"114 1400 LINE",
"278 1378 LINE",
"278 1110 LINE"
);
},
{
closed = 1;
nodes = (
"1208 720 LINE",
"440 720 LINE",
"440 1018 LINE",
"1208 1018 LINE"
);
}
);
width = 1648;
},
{
layerId = "DEBB1CE4-A72D-4960-969E-E04A036D2FA1";
paths = (
{
closed = 1;
nodes = (
"52 1109 LINE",
"52 980 LINE",
"223 980 LINE",
"223 153 LINE",
"77 132 LINE",
"77 0 LINE",
"728 0 LINE",
"728 132 LINE",
"563 154 LINE",
"564 574 LINE",
"1113 574 LINE",
"1112 155 LINE",
"961 131 LINE",
"961 0 LINE",
"1602 0 LINE",
"1602 131 LINE",
"1455 153 LINE",
"1455 980 LINE",
"1647 980 LINE",
"1647 1109 LINE",
"1455 1109 LINE",
"1455 1320 LINE",
"1602 1347 LINE",
"1602 1487 LINE",
"962 1487 LINE",
"962 1347 LINE",
"1113 1319 LINE",
"1113 1109 LINE",
"564 1109 LINE",
"564 1320 LINE",
"728 1347 LINE",
"728 1487 LINE",
"80 1487 LINE",
"80 1347 LINE",
"223 1320 LINE",
"223 1109 LINE"
);
},
{
closed = 1;
nodes = (
"1113 742 LINE",
"564 742 LINE",
"564 980 LINE",
"1113 980 LINE"
);
}
);
width = 1678;
}
);
leftKerningGroup = H;
rightKerningGroup = H;
unicode = 0126;
},
{
glyphname = I;
lastChange = "2019-04-05 05:20:29 +0000";
layers = (
{
anchors = (
{
name = bottom;
position = "{394, 0}";
},
{
name = mark0;
position = "{396, -166}";
},
{
name = ogonek;
position = "{594, 20}";
},
{
name = top;
position = "{394, 1486}";
},
{
name = topleft;
position = "{36, 1486}";
}
);
layerId = UUID0;
paths = (
{
closed = 1;
nodes = (
"116 86 LINE",
"116 0 LINE",
"670 0 LINE",
"670 84 LINE",
"476 104 LINE",
"476 1378 LINE",
"670 1400 LINE",
"670 1486 LINE",
"116 1486 LINE",
"116 1400 LINE",
"310 1378 LINE",
"310 104 LINE"
);
}
);
width = 786;
},
{
anchors = (
{
name = bottom;
position = "{416, 0}";
},
{
name = mark0;
position = "{418, -166}";
},
{
name = ogonek;
position = "{718, 20}";
},
{
name = top;
position = "{416, 1486}";
},
{
name = topleft;
position = "{37, 1486}";
}
);
layerId = "DEBB1CE4-A72D-4960-969E-E04A036D2FA1";
paths = (
{
closed = 1;
nodes = (
"81 132 LINE",
"81 0 LINE",
"753 0 LINE",
"753 130 LINE",
"585 153 LINE",
"585 1319 LINE",
"753 1347 LINE",
"753 1486 LINE",
"79 1486 LINE",
"79 1347 LINE",
"242 1319 LINE",
"242 154 LINE"
);
}
);
width = 832;
}
);
leftKerningGroup = I;
rightKerningGroup = I;
unicode = 0049;
},
{
glyphname = IJ_acutecomb;
lastChange = "2019-04-05 05:20:29 +0000";
layers = (
{
anchors = (
{
name = _top;
position = "{398, 1486}";
},
{
name = mark0;
position = "{400, -166}";
},
{
name = ogonek;
position = "{598, 20}";
},
{
name = top;
position = "{398, 1960}";
},
{
name = topleft;
position = "{40, 1486}";
}
);
layerId = UUID0;
paths = (
{
closed = 1;
nodes = (
"378 1646 OFFCURVE",
"568 1770 OFFCURVE",
"634 1858 CURVE",
"522 1960 LINE",
"232 1660 LINE",
"286 1608 LINE"
);
},
{
closed = 1;
nodes = (
"1160 1646 OFFCURVE",
"1350 1770 OFFCURVE",
"1416 1858 CURVE",
"1304 1960 LINE",
"1014 1660 LINE",
"1068 1608 LINE"
);
},
{
closed = 1;
nodes = (
"120 86 LINE",
"120 0 LINE",
"674 0 LINE",
"674 84 LINE",
"480 104 LINE",
"480 1378 LINE",
"674 1400 LINE",
"674 1486 LINE",
"120 1486 LINE",
"120 1400 LINE",
"314 1378 LINE",
"314 104 LINE"
);
},
{
closed = 1;
nodes = (
"836 -346 LINE",
"1008 -314 OFFCURVE",
"1198 -188 OFFCURVE",
"1244 42 CURVE SMOOTH",
"1268 166 OFFCURVE",
"1264 328 OFFCURVE",
"1264 550 CURVE SMOOTH",
"1264 1376 LINE",
"1456 1400 LINE",
"1456 1486 LINE",
"898 1486 LINE",
"898 1400 LINE",
"1098 1376 LINE",
"1098 506 LINE SMOOTH",
"1098 208 OFFCURVE",
"1094 96 OFFCURVE",
"1058 -18 CURVE SMOOTH",
"1016 -152 OFFCURVE",
"910 -242 OFFCURVE",
"792 -274 CURVE"
);
}
);
width = 1544;
},
{
anchors = (
{
name = _top;
position = "{417, 1486}";
},
{
name = mark0;
position = "{419, -166}";
},
{
name = ogonek;
position = "{719, 20}";
},
{
name = top;
position = "{417, 1964}";
},
{
name = topleft;
position = "{39, 1486}";
}
);
layerId = "DEBB1CE4-A72D-4960-969E-E04A036D2FA1";
paths = (
{
closed = 1;
nodes = (
"436 1593 OFFCURVE",
"612 1704 OFFCURVE",
"721 1823 CURVE",
"503 1964 LINE",
"228 1657 LINE",
"361 1570 LINE"
);
},
{
closed = 1;
nodes = (
"1241 1593 OFFCURVE",
"1418 1704 OFFCURVE",
"1527 1823 CURVE",
"1308 1964 LINE",
"1033 1657 LINE",
"1167 1570 LINE"
);
},
{
closed = 1;
nodes = (
"82 132 LINE",
"82 0 LINE",
"754 0 LINE",
"754 130 LINE",
"586 153 LINE",
"586 1319 LINE",
"754 1347 LINE",
"754 1486 LINE",
"80 1486 LINE",
"80 1347 LINE",
"243 1319 LINE",
"243 154 LINE"
);
},
{
closed = 1;
nodes = (
"874 -387 LINE",
"1157 -342 OFFCURVE",
"1337 -184 OFFCURVE",
"1396 29 CURVE SMOOTH",
"1420 122 OFFCURVE",
"1425 298 OFFCURVE",
"1425 550 CURVE SMOOTH",
"1425 1320 LINE",
"1585 1347 LINE",
"1585 1486 LINE",
"914 1486 LINE",
"914 1347 LINE",
"1085 1318 LINE",
"1085 382 LINE SMOOTH",
"1085 171 OFFCURVE",
"1070 68 OFFCURVE",
"1043 -12 CURVE SMOOTH",
"995 -155 OFFCURVE",
"891 -239 OFFCURVE",
"798 -271 CURVE"
);
}
);
width = 1628;
}
);
leftKerningGroup = I;
rightKerningGroup = J;
},
{
glyphname = Iogonek;
lastChange = "2019-04-05 05:20:29 +0000";
layers = (
{
layerId = UUID0;
paths = (
{
closed = 1;
nodes = (
"120 86 LINE",
"120 0 LINE",
"448 0 LINE",
"316 -60 OFFCURVE",
"184 -202 OFFCURVE",
"184 -310 CURVE SMOOTH",
"184 -452 OFFCURVE",
"306 -498 OFFCURVE",
"428 -498 CURVE SMOOTH",
"510 -498 OFFCURVE",
"598 -472 OFFCURVE",
"654 -430 CURVE",
"654 -346 LINE",
"608 -370 OFFCURVE",
"550 -386 OFFCURVE",
"498 -386 CURVE SMOOTH",
"414 -386 OFFCURVE",
"342 -352 OFFCURVE",
"342 -258 CURVE SMOOTH",
"342 -174 OFFCURVE",
"448 -56 OFFCURVE",
"572 0 CURVE",
"674 0 LINE",
"674 84 LINE",
"480 104 LINE",
"480 1378 LINE",
"674 1400 LINE",
"674 1486 LINE",
"120 1486 LINE",
"120 1400 LINE",
"314 1378 LINE",
"314 104 LINE"
);
}
);
width = 794;
},
{
layerId = "DEBB1CE4-A72D-4960-969E-E04A036D2FA1";
paths = (
{
closed = 1;
nodes = (
"85 132 LINE",
"85 0 LINE",
"481 0 LINE",
"320 -64 OFFCURVE",
"200 -184 OFFCURVE",
"200 -301 CURVE SMOOTH",
"200 -427 OFFCURVE",
"315 -501 OFFCURVE",
"478 -501 CURVE SMOOTH",
"560 -501 OFFCURVE",
"672 -478 OFFCURVE",
"728 -436 CURVE",
"728 -296 LINE",
"683 -315 OFFCURVE",
"656 -322 OFFCURVE",
"609 -322 CURVE SMOOTH",
"514 -322 OFFCURVE",
"463 -283 OFFCURVE",
"463 -215 CURVE SMOOTH",
"463 -147 OFFCURVE",
"547 -47 OFFCURVE",
"672 0 CURVE",
"757 0 LINE",
"757 130 LINE",
"589 153 LINE",
"589 1319 LINE",
"757 1347 LINE",
"757 1486 LINE",
"83 1486 LINE",
"83 1347 LINE",
"246 1319 LINE",
"246 154 LINE"
);
}
);
width = 835;
}
);
leftKerningGroup = I;
rightKerningGroup = I;
unicode = 012E;
},
{
glyphname = J;
lastChange = "2019-04-05 05:20:29 +0000";
layers = (
{
anchors = (
{
name = mark0;
position = "{288, -166}";
},
{
name = top;
position = "{382, 1486}";
}
);
layerId = UUID0;
paths = (
{
closed = 1;
nodes = (
"42 -346 LINE",
"214 -314 OFFCURVE",
"404 -188 OFFCURVE",
"450 42 CURVE SMOOTH",
"474 166 OFFCURVE",
"470 328 OFFCURVE",
"470 550 CURVE SMOOTH",
"470 1376 LINE",
"662 1400 LINE",
"662 1486 LINE",
"104 1486 LINE",
"104 1400 LINE",
"304 1376 LINE",
"304 506 LINE SMOOTH",
"304 208 OFFCURVE",
"300 96 OFFCURVE",
"264 -18 CURVE SMOOTH",
"222 -152 OFFCURVE",
"116 -242 OFFCURVE",
"-2 -274 CURVE"
);
}
);
width = 750;
},
{
anchors = (
{
name = mark0;
position = "{325, -166}";
},
{
name = top;
position = "{413, 1486}";
}
);
layerId = "DEBB1CE4-A72D-4960-969E-E04A036D2FA1";
paths = (
{
closed = 1;
nodes = (
"41 -387 LINE",
"323 -342 OFFCURVE",
"503 -184 OFFCURVE",
"562 29 CURVE SMOOTH",
"586 122 OFFCURVE",
"591 298 OFFCURVE",
"591 550 CURVE SMOOTH",
"591 1320 LINE",
"751 1347 LINE",
"751 1486 LINE",
"80 1486 LINE",
"80 1347 LINE",
"251 1318 LINE",
"251 382 LINE SMOOTH",
"251 171 OFFCURVE",
"236 68 OFFCURVE",
"209 -12 CURVE SMOOTH",
"161 -155 OFFCURVE",
"57 -239 OFFCURVE",
"-36 -271 CURVE"
);
}
);
width = 794;
}
);
leftKerningGroup = J;
rightKerningGroup = J;
unicode = 004A;
},
{
glyphname = K;
lastChange = "2019-04-05 05:20:29 +0000";
layers = (
{
anchors = (
{
name = bottom;
position = "{778, 0}";
},
{
name = mark0;
position = "{770, -166}";
},
{
name = top;
position = "{756, 1486}";
}
);
layerId = UUID0;
paths = (
{
closed = 1;
nodes = (
"1426 0 LINE",
"1426 84 LINE",
"1332 106 LINE",
"1250 116 OFFCURVE",
"958 690 OFFCURVE",
"756 864 CURVE",
"1216 1378 LINE",
"1362 1400 LINE",
"1362 1486 LINE",
"898 1486 LINE",
"898 1400 LINE",
"1068 1378 LINE",
"442 650 LINE",
"442 1378 LINE",
"614 1400 LINE",
"614 1486 LINE",
"110 1486 LINE",
"110 1400 LINE",
"278 1378 LINE",
"278 104 LINE",
"106 86 LINE",
"106 0 LINE",
"630 0 LINE",
"630 84 LINE",
"442 104 LINE",
"442 508 LINE",
"660 754 LINE",
"846 564 OFFCURVE",
"1082 0 OFFCURVE",
"1186 0 CURVE"
);
}
);
width = 1428;
},
{
anchors = (
{
name = bottom;
position = "{831, 0}";
},
{
name = mark0;
position = "{780, -159}";
},
{
name = top;
position = "{812, 1483}";
}
);
layerId = "DEBB1CE4-A72D-4960-969E-E04A036D2FA1";
paths = (
{
closed = 1;
nodes = (
"1526 0 LINE",
"1526 131 LINE",
"1431 153 LINE",
"1355 197 OFFCURVE",
"1112 743 OFFCURVE",
"924 913 CURVE",
"1284 1320 LINE",
"1460 1348 LINE",
"1460 1486 LINE",
"889 1486 LINE",
"889 1347 LINE",
"1052 1319 LINE",
"565 696 LINE",
"565 1319 LINE",
"712 1347 LINE",
"712 1486 LINE",
"70 1486 LINE",
"70 1347 LINE",
"223 1319 LINE",
"223 154 LINE",
"69 132 LINE",
"69 0 LINE",
"730 0 LINE",
"730 131 LINE",
"565 153 LINE",
"565 492 LINE",
"725 679 LINE",
"870 486 OFFCURVE",
"1045 0 OFFCURVE",
"1122 0 CURVE"
);
}
);
width = 1517;
}
);
leftKerningGroup = H;
rightKerningGroup = K;
unicode = 004B;
},
{
glyphname = L;
lastChange = "2019-04-05 05:20:29 +0000";
layers = (
{
anchors = (
{
name = bottom;
position = "{632, 0}";
},
{
name = center;
position = "{632, 744}";
},
{
name = mark0;
position = "{678, -166}";
},
{
name = top;
position = "{362, 1486}";
},
{
name = topright;
position = "{908, 1110}";
}
);
layerId = UUID0;
paths = (
{
closed = 1;
nodes = (
"106 86 LINE",
"106 0 LINE",
"1146 0 LINE",
"1220 416 LINE",
"1124 432 LINE",
"1012 120 LINE",
"442 104 LINE",
"442 1378 LINE",
"642 1400 LINE",
"642 1486 LINE",
"110 1486 LINE",
"110 1400 LINE",
"278 1378 LINE",
"278 104 LINE"
);
}
);
width = 1262;
},
{
anchors = (
{
name = bottom;
position = "{670, 0}";
},
{
name = center;
position = "{641, 744}";
},
{
name = mark0;
position = "{688, -166}";
},
{
name = top;
position = "{408, 1486}";
},
{
name = topright;
position = "{989, 1111}";
}
);
layerId = "DEBB1CE4-A72D-4960-969E-E04A036D2FA1";
paths = (
{
closed = 1;
nodes = (
"71 132 LINE",
"71 0 LINE",
"1202 0 LINE",
"1260 548 LINE",
"1072 572 LINE",
"941 176 LINE",
"566 156 LINE",
"566 1319 LINE",
"756 1347 LINE",
"756 1486 LINE",
"73 1486 LINE",
"73 1347 LINE",
"223 1319 LINE",
"223 153 LINE"
);
}
);
width = 1281;
}
);
leftKerningGroup = H;
rightKerningGroup = L;
unicode = 004C;
},
{
glyphname = Ldot;
lastChange = "2019-04-05 05:20:29 +0000";
layers = (
{
anchors = (
{
name = mark0;
position = "{678, -166}";
}
);
layerId = UUID0;
paths = (
{
closed = 1;
nodes = (
"106 86 LINE",
"106 0 LINE",
"1146 0 LINE",
"1220 416 LINE",
"1124 432 LINE",
"1012 120 LINE",
"442 104 LINE",
"442 1378 LINE",
"642 1400 LINE",
"642 1486 LINE",
"110 1486 LINE",
"110 1400 LINE",
"278 1378 LINE",
"278 104 LINE"
);
},
{
closed = 1;
nodes = (
"1264 656 OFFCURVE",
"1326 710 OFFCURVE",
"1326 788 CURVE SMOOTH",
"1326 846 OFFCURVE",
"1294 900 OFFCURVE",
"1218 900 CURVE SMOOTH",
"1152 900 OFFCURVE",
"1088 844 OFFCURVE",
"1088 768 CURVE SMOOTH",
"1088 700 OFFCURVE",
"1138 656 OFFCURVE",
"1198 656 CURVE SMOOTH"
);
}
);
width = 1386;
},
{
anchors = (
{
name = mark0;
position = "{688, -166}";
}
);
layerId = "DEBB1CE4-A72D-4960-969E-E04A036D2FA1";
paths = (
{
closed = 1;
nodes = (
"71 132 LINE",
"71 0 LINE",
"1202 0 LINE",
"1260 548 LINE",
"1072 572 LINE",
"941 176 LINE",
"566 156 LINE",
"566 1319 LINE",
"756 1347 LINE",
"756 1486 LINE",
"73 1486 LINE",
"73 1347 LINE",
"223 1319 LINE",
"223 153 LINE"
);
},
{
closed = 1;
nodes = (
"1440 693 OFFCURVE",
"1525 759 OFFCURVE",
"1525 874 CURVE SMOOTH",
"1525 960 OFFCURVE",
"1461 1042 OFFCURVE",
"1350 1042 CURVE SMOOTH",
"1239 1042 OFFCURVE",
"1149 968 OFFCURVE",
"1149 860 CURVE SMOOTH",
"1149 762 OFFCURVE",
"1231 693 OFFCURVE",
"1319 693 CURVE SMOOTH"
);
}
);
width = 1560;
}
);
leftKerningGroup = H;
rightKerningGroup = anoteleia;
unicode = 013F;
},
{
glyphname = Lslash;
lastChange = "2019-04-05 05:20:29 +0000";
layers = (
{
layerId = UUID0;
paths = (
{
closed = 1;
nodes = (
"50 756 LINE",
"50 634 LINE",
"344 760 LINE",
"278 824 LINE",
"278 104 LINE",
"106 86 LINE",
"106 0 LINE",
"1146 0 LINE",
"1220 416 LINE",
"1124 432 LINE",
"1012 120 LINE",
"442 104 LINE",
"442 892 LINE",
"376 772 LINE",
"860 984 LINE",
"860 1112 LINE",
"378 898 LINE",
"442 854 LINE",
"442 1378 LINE",
"642 1400 LINE",
"642 1486 LINE",
"110 1486 LINE",
"110 1400 LINE",
"278 1378 LINE",
"278 784 LINE",
"344 884 LINE"
);
}
);
width = 1266;
},
{
layerId = "DEBB1CE4-A72D-4960-969E-E04A036D2FA1";
paths = (
{
closed = 1;
nodes = (
"44 763 LINE",
"44 613 LINE",
"366 739 LINE",
"223 843 LINE",
"223 153 LINE",
"71 132 LINE",
"71 0 LINE",
"1202 0 LINE",
"1260 548 LINE",
"1072 572 LINE",
"941 176 LINE",
"566 156 LINE",
"566 973 LINE",
"423 759 LINE",
"906 953 LINE",
"906 1113 LINE",
"425 914 LINE",
"566 819 LINE",
"566 1319 LINE",
"756 1347 LINE",
"756 1486 LINE",
"73 1486 LINE",
"73 1347 LINE",
"223 1319 LINE",
"223 682 LINE",
"366 890 LINE"
);
}
);
width = 1276;
}
);
leftKerningGroup = H;
rightKerningGroup = L;
unicode = 0141;
},
{
glyphname = M;
lastChange = "2019-04-05 05:20:29 +0000";
layers = (
{
anchors = (
{
name = bottom;
position = "{988, 0}";
},
{
name = mark0;
position = "{972, -166}";
},
{
name = top;
position = "{988, 1486}";
}
);
layerId = UUID0;
paths = (
{
closed = 1;
nodes = (
"16 86 LINE",
"16 0 LINE",
"516 0 LINE",
"516 86 LINE",
"320 104 LINE",
"402 1016 LINE",
"458 1416 LINE",
"576 1028 LINE",
"910 72 LINE",
"994 72 LINE",
"1354 1140 LINE",
"1442 1416 LINE",
"1486 1016 LINE",
"1578 104 LINE",
"1392 86 LINE",
"1392 0 LINE",
"1930 0 LINE",
"1930 86 LINE",
"1748 106 LINE",
"1590 1378 LINE",
"1820 1400 LINE",
"1820 1486 LINE",
"1342 1486 LINE",
"1038 562 LINE",
"970 294 LINE",
"896 562 LINE",
"592 1486 LINE",
"112 1486 LINE",
"112 1400 LINE",
"346 1378 LINE",
"186 104 LINE"
);
}
);
width = 1946;
},
{
anchors = (
{
name = bottom;
position = "{1028, 0}";
},
{
name = mark0;
position = "{904, -166}";
},
{
name = top;
position = "{1028, 1486}";
}
);
layerId = "DEBB1CE4-A72D-4960-969E-E04A036D2FA1";
paths = (
{
closed = 1;
nodes = (
"4 132 LINE",
"4 0 LINE",
"569 0 LINE",
"569 132 LINE",
"366 154 LINE",
"443 1016 LINE",
"479 1370 LINE",
"563 1021 LINE",
"836 57 LINE",
"1098 57 LINE",
"1366 1048 LINE",
"1436 1369 LINE",
"1471 1016 LINE",
"1550 154 LINE",
"1380 132 LINE",
"1380 0 LINE",
"2054 0 LINE",
"2054 132 LINE",
"1900 155 LINE",
"1741 1319 LINE",
"1962 1347 LINE",
"1962 1486 LINE",
"1287 1486 LINE",
"1074 649 LINE",
"1032 428 LINE",
"986 649 LINE",
"781 1486 LINE",
"91 1486 LINE",
"91 1347 LINE",
"308 1319 LINE",
"158 153 LINE"
);
}
);
width = 2058;
}
);
leftKerningGroup = M;
rightKerningGroup = M;
unicode = 004D;
},
{
glyphname = N;
lastChange = "2019-04-05 05:20:29 +0000";
layers = (
{
anchors = (
{
name = bottom;
position = "{798, 0}";
},
{
name = mark0;
position = "{816, -166}";
},
{
name = top;
position = "{818, 1486}";
}
);
layerId = UUID0;
paths = (
{
closed = 1;
nodes = (
"112 86 LINE",
"112 0 LINE",
"570 0 LINE",
"570 86 LINE",
"388 104 LINE",
"388 1296 LINE",
"552 1030 LINE",
"1268 0 LINE",
"1372 0 LINE",
"1372 1378 LINE",
"1536 1400 LINE",
"1536 1486 LINE",
"1080 1486 LINE",
"1080 1400 LINE",
"1256 1378 LINE",
"1256 260 LINE",
"1142 460 LINE",
"434 1486 LINE",
"112 1486 LINE",
"112 1400 LINE",
"272 1378 LINE",
"272 106 LINE"
);
}
);
width = 1594;
},
{
anchors = (
{
name = bottom;
position = "{805, 0}";
},
{
name = mark0;
position = "{860, -166}";
},
{
name = top;
position = "{840, 1486}";
}
);
layerId = "DEBB1CE4-A72D-4960-969E-E04A036D2FA1";
paths = (
{
closed = 1;
nodes = (
"69 132 LINE",
"69 0 LINE",
"626 0 LINE",
"626 132 LINE",
"415 154 LINE",
"415 1178 LINE",
"546 913 LINE",
"1132 0 LINE",
"1427 0 LINE",
"1427 1320 LINE",
"1577 1347 LINE",
"1577 1486 LINE",
"1067 1486 LINE",
"1067 1347 LINE",
"1237 1320 LINE",
"1237 394 LINE",
"1124 634 LINE",
"571 1486 LINE",
"69 1486 LINE",
"69 1347 LINE",
"226 1320 LINE",
"226 153 LINE"
);
}
);
width = 1610;
}
);
leftKerningGroup = H;
rightKerningGroup = H;
unicode = 004E;
},
{
glyphname = Eng;
lastChange = "2019-04-05 05:20:29 +0000";
layers = (
{
layerId = UUID0;
paths = (
{
closed = 1;
nodes = (
"114 84 LINE",
"114 0 LINE",
"572 0 LINE",
"572 84 LINE",
"390 104 LINE",
"390 1310 LINE",
"544 1030 LINE",
"1202 26 LINE",
"1190 -12 OFFCURVE",
"1170 -50 OFFCURVE",
"1146 -84 CURVE SMOOTH",
"1080 -180 OFFCURVE",
"976 -242 OFFCURVE",
"848 -270 CURVE",
"892 -340 LINE",
"1024 -326 OFFCURVE",
"1138 -282 OFFCURVE",
"1250 -158 CURVE SMOOTH",
"1320 -78 OFFCURVE",
"1374 28 OFFCURVE",
"1374 338 CURVE SMOOTH",
"1374 1378 LINE",
"1536 1402 LINE",
"1536 1486 LINE",
"1088 1486 LINE",
"1088 1402 LINE",
"1258 1378 LINE",
"1258 190 LINE",
"1106 460 LINE",
"442 1486 LINE",
"114 1486 LINE",
"114 1402 LINE",
"274 1378 LINE",
"274 104 LINE"
);
}
);
width = 1568;
},
{
layerId = "DEBB1CE4-A72D-4960-969E-E04A036D2FA1";
paths = (
{
closed = 1;
nodes = (
"62 130 LINE",
"62 0 LINE",
"616 0 LINE",
"616 130 LINE",
"425 153 LINE",
"425 1156 LINE",
"531 941 LINE",
"1122 -1 LINE",
"1110 -33 OFFCURVE",
"1095 -63 OFFCURVE",
"1078 -87 CURVE SMOOTH",
"1018 -183 OFFCURVE",
"930 -260 OFFCURVE",
"807 -314 CURVE",
"873 -420 LINE",
"994 -403 OFFCURVE",
"1126 -347 OFFCURVE",
"1238 -223 CURVE SMOOTH",
"1311 -136 OFFCURVE",
"1429 6 OFFCURVE",
"1429 399 CURVE SMOOTH",
"1429 1320 LINE",
"1595 1349 LINE",
"1595 1486 LINE",
"1063 1486 LINE",
"1063 1349 LINE",
"1240 1320 LINE",
"1240 370 LINE",
"1107 633 LINE",
"568 1486 LINE",
"62 1486 LINE",
"62 1367 LINE",
"236 1334 LINE",
"236 153 LINE"
);
}
);
width = 1596;
}
);
leftKerningGroup = H;
rightKerningGroup = H;
unicode = 014A;
},
{
glyphname = O;
lastChange = "2019-04-05 05:20:29 +0000";
layers = (
{
anchors = (
{
name = bottom;
position = "{720, 0}";
},
{
name = center;
position = "{740, 744}";
},
{
name = mark0;
position = "{710, -166}";
},
{
name = ogonek;
position = "{802, 20}";
},
{
name = top;
position = "{720, 1486}";
},
{
name = topleft;
position = "{40, 1486}";
},
{
name = topright;
position = "{1072, 1486}";
}
);
layerId = UUID0;
paths = (
{
closed = 1;
nodes = (
"1074 -16 OFFCURVE",
"1366 286 OFFCURVE",
"1366 756 CURVE SMOOTH",
"1366 1206 OFFCURVE",
"1144 1502 OFFCURVE",
"740 1502 CURVE SMOOTH",
"368 1502 OFFCURVE",
"74 1204 OFFCURVE",
"74 732 CURVE SMOOTH",
"74 282 OFFCURVE",
"300 -30 OFFCURVE",
"706 -22 CURVE SMOOTH"
);
},
{
closed = 1;
nodes = (
"1016 1408 OFFCURVE",
"1180 1140 OFFCURVE",
"1180 756 CURVE SMOOTH",
"1180 302 OFFCURVE",
"992 72 OFFCURVE",
"716 72 CURVE SMOOTH",
"422 72 OFFCURVE",
"256 350 OFFCURVE",
"256 732 CURVE SMOOTH",
"256 1186 OFFCURVE",
"446 1408 OFFCURVE",
"722 1408 CURVE SMOOTH"
);
}
);
width = 1440;
},
{
anchors = (
{
name = bottom;
position = "{732, 0}";
},
{
name = center;
position = "{737, 744}";
},
{
name = mark0;
position = "{725, -166}";
},
{
name = ogonek;
position = "{812, 20}";
},
{
name = top;
position = "{742, 1486}";
},
{
name = topleft;
position = "{40, 1486}";
},
{
name = topright;
position = "{1140, 1486}";
}
);
layerId = "DEBB1CE4-A72D-4960-969E-E04A036D2FA1";
paths = (
{
closed = 1;
nodes = (
"1138 -19 OFFCURVE",
"1409 301 OFFCURVE",
"1409 768 CURVE SMOOTH",
"1409 1218 OFFCURVE",
"1213 1503 OFFCURVE",
"743 1505 CURVE SMOOTH",
"325 1506 OFFCURVE",
"53 1207 OFFCURVE",
"53 741 CURVE SMOOTH",
"53 285 OFFCURVE",
"251 -26 OFFCURVE",
"722 -22 CURVE SMOOTH"
);
},
{
closed = 1;
nodes = (
"920 1373 OFFCURVE",
"1031 1205 OFFCURVE",
"1031 766 CURVE SMOOTH",
"1031 337 OFFCURVE",
"917 112 OFFCURVE",
"729 112 CURVE SMOOTH",
"542 112 OFFCURVE",
"430 304 OFFCURVE",
"430 742 CURVE SMOOTH",
"430 1170 OFFCURVE",
"544 1373 OFFCURVE",
"732 1373 CURVE SMOOTH"
);
}
);
width = 1462;
}
);
leftKerningGroup = O;
rightKerningGroup = O;
unicode = 004F;
},
{
glyphname = Ohorn;
lastChange = "2019-04-05 05:20:29 +0000";
layers = (
{
anchors = (
{
name = _topright;
position = "{1072, 1486}";
},
{
name = bottom;
position = "{720, 0}";
},
{
name = center;
position = "{720, 744}";
},
{
name = mark0;
position = "{710, -166}";
},
{
name = ogonek;
position = "{1294, 20}";
},
{
name = top;
position = "{742, 1486}";
},
{
name = topleft;
position = "{40, 1486}";
},
{
name = topright;
position = "{1072, 1486}";
}
);
layerId = UUID0;
paths = (
{
closed = 1;
nodes = (
"1074 -16 OFFCURVE",
"1366 286 OFFCURVE",
"1366 756 CURVE SMOOTH",
"1366 1206 OFFCURVE",
"1144 1502 OFFCURVE",
"740 1502 CURVE SMOOTH",
"368 1502 OFFCURVE",
"74 1204 OFFCURVE",
"74 732 CURVE SMOOTH",
"74 282 OFFCURVE",
"300 -30 OFFCURVE",
"706 -22 CURVE SMOOTH"
);
},
{
closed = 1;
nodes = (
"1016 1408 OFFCURVE",
"1180 1140 OFFCURVE",
"1180 756 CURVE SMOOTH",
"1180 302 OFFCURVE",
"992 72 OFFCURVE",
"716 72 CURVE SMOOTH",
"422 72 OFFCURVE",
"256 350 OFFCURVE",
"256 732 CURVE SMOOTH",
"256 1186 OFFCURVE",
"446 1408 OFFCURVE",
"722 1408 CURVE SMOOTH"
);
},
{
closed = 1;
nodes = (
"1330 1302 OFFCURVE",
"1454 1478 OFFCURVE",
"1454 1686 CURVE SMOOTH",
"1454 1700 OFFCURVE",
"1452 1714 OFFCURVE",
"1450 1730 CURVE",
"1300 1730 LINE",
"1302 1722 OFFCURVE",
"1302 1710 OFFCURVE",
"1302 1696 CURVE SMOOTH",
"1302 1596 OFFCURVE",
"1244 1408 OFFCURVE",
"1052 1408 CURVE",
"1086 1302 LINE"
);
}
);
width = 1438;
},
{
anchors = (
{
name = _topright;
position = "{1140, 1486}";
},
{
name = bottom;
position = "{732, 0}";
},
{
name = center;
position = "{732, 744}";
},
{
name = mark0;
position = "{725, -166}";
},
{
name = ogonek;
position = "{1315, 20}";
},
{
name = top;
position = "{748, 1486}";
},
{
name = topleft;
position = "{40, 1486}";
},
{
name = topright;
position = "{1140, 1486}";
}
);
layerId = "DEBB1CE4-A72D-4960-969E-E04A036D2FA1";
paths = (
{
closed = 1;
nodes = (
"1138 -19 OFFCURVE",
"1409 301 OFFCURVE",
"1409 768 CURVE SMOOTH",
"1409 1218 OFFCURVE",
"1213 1503 OFFCURVE",
"743 1505 CURVE SMOOTH",
"325 1506 OFFCURVE",
"53 1207 OFFCURVE",
"53 741 CURVE SMOOTH",
"53 285 OFFCURVE",
"251 -26 OFFCURVE",
"722 -22 CURVE SMOOTH"
);
},
{
closed = 1;
nodes = (
"920 1373 OFFCURVE",
"1031 1205 OFFCURVE",
"1031 766 CURVE SMOOTH",
"1031 337 OFFCURVE",
"917 112 OFFCURVE",
"729 112 CURVE SMOOTH",
"542 112 OFFCURVE",
"430 304 OFFCURVE",
"430 742 CURVE SMOOTH",
"430 1170 OFFCURVE",
"544 1373 OFFCURVE",
"732 1373 CURVE SMOOTH"
);
},
{
closed = 1;
nodes = (
"1346 1299 OFFCURVE",
"1485 1420 OFFCURVE",
"1485 1687 CURVE SMOOTH",
"1485 1701 OFFCURVE",
"1483 1717 OFFCURVE",
"1480 1730 CURVE",
"1270 1730 LINE",
"1274 1718 OFFCURVE",
"1277 1703 OFFCURVE",
"1277 1678 CURVE SMOOTH",
"1277 1593 OFFCURVE",
"1251 1423 OFFCURVE",
"1061 1423 CURVE",
"1126 1299 LINE"
);
}
);
width = 1462;
}
);
leftKerningGroup = O;
rightKerningGroup = O;
unicode = 01A0;
},
{
glyphname = Oslash;
lastChange = "2019-04-05 05:20:29 +0000";
layers = (
{
anchors = (
{
name = top;
position = "{742, 1486}";
}
);
layerId = UUID0;
paths = (
{
closed = 1;
nodes = (
"318 -172 LINE",
"394 -198 LINE",
"482 10 LINE",
"550 -12 OFFCURVE",
"624 -24 OFFCURVE",
"706 -22 CURVE SMOOTH",
"1076 -16 OFFCURVE",
"1366 286 OFFCURVE",
"1366 756 CURVE SMOOTH",
"1366 1082 OFFCURVE",
"1250 1328 OFFCURVE",
"1030 1438 CURVE",
"1112 1638 LINE",
"1036 1666 LINE",
"958 1468 LINE",
"892 1490 OFFCURVE",
"820 1502 OFFCURVE",
"740 1502 CURVE SMOOTH",
"370 1502 OFFCURVE",
"74 1204 OFFCURVE",
"74 732 CURVE SMOOTH",
"74 408 OFFCURVE",
"192 156 OFFCURVE",
"410 42 CURVE"
);
},
{
closed = 1;
nodes = (
"794 1408 OFFCURVE",
"858 1392 OFFCURVE",
"912 1364 CURVE",
"462 164 LINE",
"328 274 OFFCURVE",
"256 480 OFFCURVE",
"256 732 CURVE SMOOTH",
"256 1186 OFFCURVE",
"446 1408 OFFCURVE",
"724 1408 CURVE SMOOTH"
);
},
{
closed = 1;
nodes = (
"1182 302 OFFCURVE",
"992 72 OFFCURVE",
"718 72 CURVE SMOOTH",
"646 72 OFFCURVE",
"584 88 OFFCURVE",
"528 118 CURVE",
"980 1318 LINE",
"1110 1208 OFFCURVE",
"1182 1006 OFFCURVE",
"1182 756 CURVE SMOOTH"
);
}
);
width = 1440;
},
{
anchors = (
{
name = top;
position = "{739, 1486}";
}
);
layerId = "DEBB1CE4-A72D-4960-969E-E04A036D2FA1";
paths = (
{
closed = 1;
nodes = (
"268 -190 LINE",
"421 -232 LINE",
"519 0 LINE",
"580 -15 OFFCURVE",
"648 -23 OFFCURVE",
"722 -22 CURVE SMOOTH",
"1138 -19 OFFCURVE",
"1409 301 OFFCURVE",
"1409 768 CURVE SMOOTH",
"1409 1085 OFFCURVE",
"1312 1322 OFFCURVE",
"1088 1434 CURVE",
"1177 1663 LINE",
"1035 1706 LINE",
"948 1483 LINE",
"885 1497 OFFCURVE",
"817 1505 OFFCURVE",
"743 1505 CURVE SMOOTH",
"326 1506 OFFCURVE",
"53 1207 OFFCURVE",
"53 741 CURVE SMOOTH",
"53 420 OFFCURVE",
"151 172 OFFCURVE",
"372 54 CURVE"
);
},
{
closed = 1;
nodes = (
"794 1373 OFFCURVE",
"848 1352 OFFCURVE",
"890 1308 CURVE",
"508 312 LINE",
"457 410 OFFCURVE",
"430 557 OFFCURVE",
"430 742 CURVE SMOOTH",
"430 1170 OFFCURVE",
"544 1373 OFFCURVE",
"733 1373 CURVE SMOOTH"
);
},
{
closed = 1;
nodes = (
"1031 337 OFFCURVE",
"917 112 OFFCURVE",
"730 112 CURVE SMOOTH",
"665 112 OFFCURVE",
"612 135 OFFCURVE",
"568 187 CURVE",
"955 1185 LINE",
"1004 1090 OFFCURVE",
"1031 950 OFFCURVE",
"1031 766 CURVE SMOOTH"
);
}
);
width = 1462;
}
);
leftKerningGroup = O;
rightKerningGroup = O;
unicode = 00D8;
},
{
glyphname = OE;
lastChange = "2019-04-05 05:20:29 +0000";
layers = (
{
anchors = (
{
name = mark0;
position = "{996, -166}";
}
);
layerId = UUID0;
paths = (
{
closed = 1;
nodes = (
"1010 0 LINE",
"1926 0 LINE",
"2002 342 LINE",
"1908 368 LINE",
"1792 118 LINE",
"1172 98 LINE",
"1172 720 LINE",
"1544 714 LINE",
"1568 542 LINE",
"1670 542 LINE",
"1670 984 LINE",
"1568 984 LINE",
"1544 820 LINE",
"1172 814 LINE",
"1172 1390 LINE",
"1710 1380 LINE",
"1764 1186 LINE",
"1858 1186 LINE",
"1830 1486 LINE",
"1010 1486 LINE",
"1010 1456 LINE",
"932 1494 OFFCURVE",
"842 1512 OFFCURVE",
"742 1510 CURVE SMOOTH",
"372 1502 OFFCURVE",
"74 1206 OFFCURVE",
"74 734 CURVE SMOOTH",
"74 286 OFFCURVE",
"308 -24 OFFCURVE",
"712 -16 CURVE",
"820 -12 OFFCURVE",
"920 14 OFFCURVE",
"1010 64 CURVE"
);
},
{
closed = 1;
nodes = (
"422 78 OFFCURVE",
"252 374 OFFCURVE",
"252 734 CURVE SMOOTH",
"252 1174 OFFCURVE",
"442 1418 OFFCURVE",
"728 1418 CURVE SMOOTH",
"860 1418 OFFCURVE",
"948 1378 OFFCURVE",
"1010 1318 CURVE",
"1010 192 LINE",
"940 118 OFFCURVE",
"844 78 OFFCURVE",
"724 78 CURVE SMOOTH"
);
}
);
width = 2054;
},
{
anchors = (
{
name = mark0;
position = "{1003, -166}";
}
);
layerId = "DEBB1CE4-A72D-4960-969E-E04A036D2FA1";
paths = (
{
closed = 1;
nodes = (
"958 0 LINE",
"1994 0 LINE",
"2061 372 LINE",
"1899 418 LINE",
"1759 165 LINE",
"1308 138 LINE",
"1308 682 LINE",
"1554 676 LINE",
"1587 502 LINE",
"1734 502 LINE",
"1734 1003 LINE",
"1587 1003 LINE",
"1554 842 LINE",
"1308 835 LINE",
"1308 1355 LINE",
"1707 1333 LINE",
"1774 1131 LINE",
"1933 1131 LINE",
"1905 1486 LINE",
"958 1486 LINE",
"958 1471 LINE",
"894 1497 OFFCURVE",
"823 1509 OFFCURVE",
"746 1509 CURVE SMOOTH",
"316 1505 OFFCURVE",
"53 1207 OFFCURVE",
"53 741 CURVE SMOOTH",
"53 293 OFFCURVE",
"264 -18 OFFCURVE",
"725 -16 CURVE",
"810 -15 OFFCURVE",
"887 4 OFFCURVE",
"958 43 CURVE"
);
},
{
closed = 1;
nodes = (
"543 113 OFFCURVE",
"428 318 OFFCURVE",
"428 743 CURVE SMOOTH",
"428 1164 OFFCURVE",
"538 1377 OFFCURVE",
"731 1377 CURVE SMOOTH",
"839 1377 OFFCURVE",
"914 1334 OFFCURVE",
"958 1192 CURVE",
"958 341 LINE",
"913 201 OFFCURVE",
"840 113 OFFCURVE",
"734 113 CURVE SMOOTH"
);
}
);
width = 2079;
}
);
leftKerningGroup = O;
rightKerningGroup = E;
unicode = 0152;
},
{
glyphname = P;
lastChange = "2019-04-05 05:20:29 +0000";
layers = (
{
anchors = (
{
name = bottom;
position = "{642, 0}";
},
{
name = mark0;
position = "{660, -166}";
},
{
name = top;
position = "{702, 1486}";
}
);
layerId = UUID0;
paths = (
{
closed = 1;
nodes = (
"106 86 LINE",
"106 0 LINE",
"720 0 LINE",
"720 86 LINE",
"442 106 LINE",
"442 576 LINE",
"460 572 OFFCURVE",
"576 568 OFFCURVE",
"654 568 CURVE SMOOTH",
"972 568 OFFCURVE",
"1226 756 OFFCURVE",
"1226 1080 CURVE SMOOTH",
"1226 1344 OFFCURVE",
"1102 1500 OFFCURVE",
"710 1500 CURVE SMOOTH",
"536 1500 OFFCURVE",
"492 1486 OFFCURVE",
"360 1486 CURVE SMOOTH",
"118 1486 LINE",
"118 1400 LINE",
"278 1378 LINE",
"278 104 LINE"
);
},
{
closed = 1;
nodes = (
"442 1392 LINE",
"498 1392 OFFCURVE",
"564 1404 OFFCURVE",
"660 1404 CURVE SMOOTH",
"924 1404 OFFCURVE",
"1050 1318 OFFCURVE",
"1050 1080 CURVE SMOOTH",
"1050 762 OFFCURVE",
"860 666 OFFCURVE",
"658 666 CURVE SMOOTH",
"558 666 OFFCURVE",
"480 668 OFFCURVE",
"442 674 CURVE"
);
}
);
width = 1282;
},
{
anchors = (
{
name = bottom;
position = "{497, 0}";
},
{
name = mark0;
position = "{669, -166}";
},
{
name = top;
position = "{743, 1486}";
}
);
layerId = "DEBB1CE4-A72D-4960-969E-E04A036D2FA1";
paths = (
{
closed = 1;
nodes = (
"71 132 LINE",
"71 0 LINE",
"829 0 LINE",
"829 132 LINE",
"566 153 LINE",
"566 518 LINE",
"583 516 OFFCURVE",
"647 512 OFFCURVE",
"704 512 CURVE SMOOTH",
"1090 512 OFFCURVE",
"1304 713 OFFCURVE",
"1304 1052 CURVE SMOOTH",
"1304 1337 OFFCURVE",
"1176 1496 OFFCURVE",
"737 1497 CURVE SMOOTH",
"583 1499 OFFCURVE",
"492 1486 OFFCURVE",
"401 1486 CURVE SMOOTH",
"77 1486 LINE",
"77 1347 LINE",
"223 1319 LINE",
"223 153 LINE"
);
},
{
closed = 1;
nodes = (
"565 1352 LINE",
"596 1357 OFFCURVE",
"622 1364 OFFCURVE",
"695 1364 CURVE SMOOTH",
"866 1364 OFFCURVE",
"955 1269 OFFCURVE",
"955 1045 CURVE SMOOTH",
"955 740 OFFCURVE",
"841 647 OFFCURVE",
"696 647 CURVE SMOOTH",
"630 647 OFFCURVE",
"588 650 OFFCURVE",
"565 656 CURVE"
);
}
);
width = 1337;
}
);
leftKerningGroup = H;
rightKerningGroup = P;
unicode = 0050;
},
{
glyphname = Thorn;
lastChange = "2019-04-05 05:20:29 +0000";
layers = (
{
layerId = UUID0;
paths = (
{
closed = 1;
nodes = (
"100 84 LINE",
"100 0 LINE",
"650 0 LINE",
"650 84 LINE",
"432 104 LINE",
"432 350 LINE",
"496 344 OFFCURVE",
"570 342 OFFCURVE",
"684 342 CURVE SMOOTH",
"1006 342 OFFCURVE",
"1208 480 OFFCURVE",
"1208 780 CURVE SMOOTH",
"1208 1042 OFFCURVE",
"1036 1172 OFFCURVE",
"750 1172 CURVE SMOOTH",
"640 1172 OFFCURVE",
"532 1160 OFFCURVE",
"432 1152 CURVE",
"432 1380 LINE",
"612 1402 LINE",
"612 1488 LINE",
"104 1488 LINE",
"104 1402 LINE",
"270 1380 LINE",
"270 104 LINE"
);
},
{
closed = 1;
nodes = (
"604 432 OFFCURVE",
"518 430 OFFCURVE",
"432 440 CURVE",
"432 1056 LINE",
"492 1064 OFFCURVE",
"576 1074 OFFCURVE",
"666 1076 CURVE SMOOTH",
"920 1082 OFFCURVE",
"1026 968 OFFCURVE",
"1026 770 CURVE SMOOTH",
"1026 518 OFFCURVE",
"876 432 OFFCURVE",
"678 432 CURVE SMOOTH"
);
}
);
width = 1270;
},
{
layerId = "DEBB1CE4-A72D-4960-969E-E04A036D2FA1";
paths = (
{
closed = 1;
nodes = (
"65 130 LINE",
"65 0 LINE",
"768 0 LINE",
"768 130 LINE",
"564 153 LINE",
"564 332 LINE",
"610 328 OFFCURVE",
"688 320 OFFCURVE",
"782 320 CURVE SMOOTH",
"1093 320 OFFCURVE",
"1303 465 OFFCURVE",
"1303 779 CURVE SMOOTH",
"1303 1048 OFFCURVE",
"1131 1176 OFFCURVE",
"839 1176 CURVE SMOOTH",
"721 1176 OFFCURVE",
"662 1164 OFFCURVE",
"564 1156 CURVE",
"564 1319 LINE",
"730 1349 LINE",
"729 1487 LINE",
"64 1487 LINE",
"64 1349 LINE",
"221 1319 LINE",
"221 153 LINE"
);
},
{
closed = 1;
nodes = (
"682 453 OFFCURVE",
"623 451 OFFCURVE",
"564 461 CURVE",
"564 1021 LINE",
"597 1029 OFFCURVE",
"654 1036 OFFCURVE",
"706 1036 CURVE SMOOTH",
"876 1038 OFFCURVE",
"942 912 OFFCURVE",
"942 766 CURVE SMOOTH",
"942 567 OFFCURVE",
"849 453 OFFCURVE",
"730 453 CURVE SMOOTH"
);
}
);
width = 1339;
}
);
leftKerningGroup = H;
rightKerningGroup = D;
unicode = 00DE;
},
{
glyphname = Q;
lastChange = "2019-04-05 05:20:29 +0000";
layers = (
{
anchors = (
{
name = mark0;
position = "{716, -166}";
}
);
layerId = UUID0;
paths = (
{
closed = 1;
nodes = (
"1520 -364 OFFCURVE",
"1588 -344 OFFCURVE",
"1632 -304 CURVE",
"1612 -222 LINE",
"1598 -222 OFFCURVE",
"1588 -224 OFFCURVE",
"1566 -224 CURVE",
"1326 -224 OFFCURVE",
"1252 12 OFFCURVE",
"960 32 CURVE",
"1204 140 OFFCURVE",
"1372 398 OFFCURVE",
"1372 756 CURVE SMOOTH",
"1372 1206 OFFCURVE",
"1150 1502 OFFCURVE",
"746 1502 CURVE SMOOTH",
"374 1502 OFFCURVE",
"80 1204 OFFCURVE",
"80 732 CURVE SMOOTH",
"80 282 OFFCURVE",
"306 -30 OFFCURVE",
"710 -22 CURVE SMOOTH",
"754 -22 OFFCURVE",
"798 -16 OFFCURVE",
"840 -6 CURVE",
"1098 -50 OFFCURVE",
"1184 -364 OFFCURVE",
"1468 -364 CURVE SMOOTH"
);
},
{
closed = 1;
nodes = (
"428 72 OFFCURVE",
"262 350 OFFCURVE",
"262 732 CURVE SMOOTH",
"262 1186 OFFCURVE",
"452 1408 OFFCURVE",
"728 1408 CURVE SMOOTH",
"1022 1408 OFFCURVE",
"1186 1140 OFFCURVE",
"1186 756 CURVE SMOOTH",
"1186 302 OFFCURVE",
"998 72 OFFCURVE",
"722 72 CURVE SMOOTH"
);
}
);
width = 1450;
},
{
anchors = (
{
name = mark0;
position = "{726, -166}";
}
);
layerId = "DEBB1CE4-A72D-4960-969E-E04A036D2FA1";
paths = (
{
closed = 1;
nodes = (
"1579 -370 OFFCURVE",
"1649 -337 OFFCURVE",
"1716 -251 CURVE",
"1686 -151 LINE",
"1667 -157 OFFCURVE",
"1640 -162 OFFCURVE",
"1581 -162 CURVE",
"1354 -162 OFFCURVE",
"1253 8 OFFCURVE",
"1029 47 CURVE",
"1268 171 OFFCURVE",
"1410 439 OFFCURVE",
"1410 768 CURVE SMOOTH",
"1410 1218 OFFCURVE",
"1215 1503 OFFCURVE",
"745 1505 CURVE SMOOTH",
"327 1506 OFFCURVE",
"55 1207 OFFCURVE",
"55 741 CURVE SMOOTH",
"55 285 OFFCURVE",
"253 -26 OFFCURVE",
"723 -22 CURVE SMOOTH",
"772 -22 OFFCURVE",
"819 -16 OFFCURVE",
"864 -7 CURVE",
"1091 -87 OFFCURVE",
"1202 -370 OFFCURVE",
"1462 -370 CURVE SMOOTH"
);
},
{
closed = 1;
nodes = (
"543 112 OFFCURVE",
"432 304 OFFCURVE",
"432 742 CURVE SMOOTH",
"432 1170 OFFCURVE",
"545 1373 OFFCURVE",
"734 1373 CURVE SMOOTH",
"922 1373 OFFCURVE",
"1032 1205 OFFCURVE",
"1032 766 CURVE SMOOTH",
"1032 337 OFFCURVE",
"918 112 OFFCURVE",
"731 112 CURVE SMOOTH"
);
}
);
width = 1465;
}
);
leftKerningGroup = O;
rightKerningGroup = Q;
unicode = 0051;
},
{
glyphname = R;
lastChange = "2019-04-05 05:20:29 +0000";
layers = (
{
anchors = (
{
name = bottom;
position = "{754, 0}";
},
{
name = mark0;
position = "{742, -166}";
},
{
name = top;
position = "{694, 1486}";
}
);
layerId = UUID0;
paths = (
{
closed = 1;
nodes = (
"642 0 LINE",
"642 86 LINE",
"436 104 LINE",
"436 662 LINE",
"474 660 OFFCURVE",
"656 660 OFFCURVE",
"718 660 CURVE",
"870 586 OFFCURVE",
"1050 0 OFFCURVE",
"1150 0 CURVE SMOOTH",
"1378 0 LINE",
"1378 84 LINE",
"1294 106 LINE",
"1196 128 OFFCURVE",
"1034 594 OFFCURVE",
"882 688 CURVE",
"1072 744 OFFCURVE",
"1182 922 OFFCURVE",
"1182 1110 CURVE SMOOTH",
"1182 1358 OFFCURVE",
"1052 1502 OFFCURVE",
"676 1502 CURVE SMOOTH",
"604 1502 OFFCURVE",
"500 1486 OFFCURVE",
"356 1486 CURVE SMOOTH",
"112 1486 LINE",
"112 1404 LINE",
"272 1380 LINE",
"272 104 LINE",
"100 86 LINE",
"100 0 LINE"
);
},
{
closed = 1;
nodes = (
"658 758 OFFCURVE",
"506 756 OFFCURVE",
"436 760 CURVE",
"436 1392 LINE",
"506 1396 OFFCURVE",
"580 1404 OFFCURVE",
"636 1404 CURVE SMOOTH",
"926 1404 OFFCURVE",
"1008 1274 OFFCURVE",
"1008 1096 CURVE SMOOTH",
"1008 868 OFFCURVE",
"884 758 OFFCURVE",
"706 758 CURVE SMOOTH"
);
}
);
width = 1386;
},
{
anchors = (
{
name = bottom;
position = "{816, 0}";
},
{
name = mark0;
position = "{757, -166}";
},
{
name = top;
position = "{732, 1486}";
}
);
layerId = "DEBB1CE4-A72D-4960-969E-E04A036D2FA1";
paths = (
{
closed = 1;
nodes = (
"742 0 LINE",
"742 132 LINE",
"565 153 LINE",
"565 632 LINE",
"610 632 OFFCURVE",
"691 632 OFFCURVE",
"743 632 CURVE",
"894 577 OFFCURVE",
"995 0 OFFCURVE",
"1094 0 CURVE SMOOTH",
"1473 0 LINE",
"1473 131 LINE",
"1415 150 LINE",
"1320 174 OFFCURVE",
"1247 603 OFFCURVE",
"1016 687 CURVE",
"1215 748 OFFCURVE",
"1300 938 OFFCURVE",
"1300 1101 CURVE SMOOTH",
"1300 1379 OFFCURVE",
"1148 1499 OFFCURVE",
"726 1499 CURVE SMOOTH",
"594 1499 OFFCURVE",
"510 1486 OFFCURVE",
"384 1486 CURVE SMOOTH",
"75 1486 LINE",
"75 1348 LINE",
"222 1319 LINE",
"222 153 LINE",
"69 132 LINE",
"69 0 LINE"
);
},
{
closed = 1;
nodes = (
"688 762 OFFCURVE",
"595 760 OFFCURVE",
"565 767 CURVE",
"565 1357 LINE",
"593 1361 OFFCURVE",
"635 1366 OFFCURVE",
"691 1366 CURVE SMOOTH",
"873 1366 OFFCURVE",
"940 1277 OFFCURVE",
"940 1089 CURVE SMOOTH",
"940 864 OFFCURVE",
"854 762 OFFCURVE",
"718 762 CURVE SMOOTH"
);
}
);
width = 1463;
}
);
leftKerningGroup = H;
rightKerningGroup = R;
unicode = 0052;
},
{
glyphname = S;
lastChange = "2019-04-05 05:20:29 +0000";
layers = (
{
anchors = (
{
name = bottom;
position = "{588, 0}";
},
{
name = mark0;
position = "{586, -166}";
},
{
name = top;
position = "{648, 1486}";
}
);
layerId = UUID0;
paths = (
{
closed = 1;
nodes = (
"902 -22 OFFCURVE",
"1090 192 OFFCURVE",
"1090 398 CURVE SMOOTH",
"1090 638 OFFCURVE",
"858 740 OFFCURVE",
"662 834 CURVE SMOOTH",
"452 932 OFFCURVE",
"308 994 OFFCURVE",
"308 1166 CURVE SMOOTH",
"308 1328 OFFCURVE",
"416 1408 OFFCURVE",
"612 1408 CURVE SMOOTH",
"726 1408 OFFCURVE",
"824 1374 OFFCURVE",
"852 1350 CURVE",
"888 1102 LINE",
"988 1102 LINE",
"1000 1430 LINE",
"942 1440 OFFCURVE",
"800 1502 OFFCURVE",
"622 1502 CURVE SMOOTH",
"344 1502 OFFCURVE",
"150 1350 OFFCURVE",
"150 1126 CURVE SMOOTH",
"150 868 OFFCURVE",
"392 760 OFFCURVE",
"558 688 CURVE SMOOTH",
"760 602 OFFCURVE",
"916 530 OFFCURVE",
"916 354 CURVE SMOOTH",
"916 184 OFFCURVE",
"802 76 OFFCURVE",
"582 76 CURVE SMOOTH",
"444 76 OFFCURVE",
"326 120 OFFCURVE",
"280 164 CURVE",
"250 426 LINE",
"146 426 LINE",
"130 70 LINE",
"192 64 OFFCURVE",
"346 -22 OFFCURVE",
"572 -22 CURVE SMOOTH"
);
}
);
width = 1176;
},
{
anchors = (
{
name = bottom;
position = "{609, 0}";
},
{
name = mark0;
position = "{604, -166}";
},
{
name = top;
position = "{669, 1486}";
}
);
layerId = "DEBB1CE4-A72D-4960-969E-E04A036D2FA1";
paths = (
{
closed = 1;
nodes = (
"1048 -22 OFFCURVE",
"1171 232 OFFCURVE",
"1171 428 CURVE SMOOTH",
"1171 672 OFFCURVE",
"956 789 OFFCURVE",
"796 865 CURVE SMOOTH",
"607 959 OFFCURVE",
"440 1032 OFFCURVE",
"440 1185 CURVE SMOOTH",
"440 1287 OFFCURVE",
"503 1371 OFFCURVE",
"659 1371 CURVE SMOOTH",
"748 1371 OFFCURVE",
"817 1344 OFFCURVE",
"833 1323 CURVE",
"878 1078 LINE",
"1060 1078 LINE",
"1072 1434 LINE",
"1014 1439 OFFCURVE",
"875 1505 OFFCURVE",
"644 1505 CURVE SMOOTH",
"278 1505 OFFCURVE",
"116 1310 OFFCURVE",
"116 1096 CURVE SMOOTH",
"116 819 OFFCURVE",
"340 691 OFFCURVE",
"493 620 CURVE SMOOTH",
"698 525 OFFCURVE",
"829 456 OFFCURVE",
"829 320 CURVE SMOOTH",
"829 197 OFFCURVE",
"752 117 OFFCURVE",
"585 117 CURVE SMOOTH",
"468 117 OFFCURVE",
"388 153 OFFCURVE",
"361 185 CURVE",
"312 439 LINE",
"125 439 LINE",
"108 66 LINE",
"174 61 OFFCURVE",
"356 -22 OFFCURVE",
"602 -22 CURVE SMOOTH"
);
}
);
width = 1217;
}
);
leftKerningGroup = S;
rightKerningGroup = S;
unicode = 0053;
},
{
glyphname = Scedilla;
lastChange = "2019-04-05 05:20:29 +0000";
layers = (
{
anchors = (
{
name = _bottom;
position = "{588, 0}";
},
{
name = bottom;
position = "{588, -470}";
},
{
name = mark0;
position = "{586, -166}";
}
);
layerId = UUID0;
paths = (
{
closed = 1;
nodes = (
"191 64 OFFCURVE",
"340 -19 OFFCURVE",
"560 -22 CURVE",
"582 -61 OFFCURVE",
"614 -132 OFFCURVE",
"614 -200 CURVE SMOOTH",
"614 -322 OFFCURVE",
"560 -342 OFFCURVE",
"462 -342 CURVE SMOOTH",
"442 -342 OFFCURVE",
"398 -336 OFFCURVE",
"370 -326 CURVE",
"368 -444 LINE",
"404 -458 OFFCURVE",
"464 -470 OFFCURVE",
"510 -470 CURVE SMOOTH",
"660 -470 OFFCURVE",
"748 -422 OFFCURVE",
"754 -286 CURVE SMOOTH",
"759 -176 OFFCURVE",
"691 -69 OFFCURVE",
"646 -18 CURVE",
"930 11 OFFCURVE",
"1090 208 OFFCURVE",
"1090 398 CURVE SMOOTH",
"1090 638 OFFCURVE",
"858 740 OFFCURVE",
"662 834 CURVE SMOOTH",
"452 932 OFFCURVE",
"308 994 OFFCURVE",
"308 1166 CURVE SMOOTH",
"308 1328 OFFCURVE",
"416 1408 OFFCURVE",
"612 1408 CURVE SMOOTH",
"726 1408 OFFCURVE",
"824 1374 OFFCURVE",
"852 1350 CURVE",
"888 1102 LINE",
"988 1102 LINE",
"1000 1430 LINE",
"942 1440 OFFCURVE",
"800 1502 OFFCURVE",
"622 1502 CURVE SMOOTH",
"344 1502 OFFCURVE",
"150 1350 OFFCURVE",
"150 1126 CURVE SMOOTH",
"150 868 OFFCURVE",
"392 760 OFFCURVE",
"558 688 CURVE SMOOTH",
"760 602 OFFCURVE",
"916 530 OFFCURVE",
"916 354 CURVE SMOOTH",
"916 184 OFFCURVE",
"802 76 OFFCURVE",
"582 76 CURVE SMOOTH",
"444 76 OFFCURVE",
"326 120 OFFCURVE",
"280 164 CURVE",
"250 426 LINE",
"146 426 LINE",
"130 70 LINE"
);
}
);
width = 1176;
},
{
anchors = (
{
name = _bottom;
position = "{609, 0}";
},
{
name = bottom;
position = "{609, -513}";
},
{
name = mark0;
position = "{604, -166}";
}
);
layerId = "DEBB1CE4-A72D-4960-969E-E04A036D2FA1";
paths = (
{
closed = 1;
nodes = (
"170 61 OFFCURVE",
"334 -12 OFFCURVE",
"556 -21 CURVE",
"577 -58 OFFCURVE",
"604 -119 OFFCURVE",
"604 -175 CURVE SMOOTH",
"604 -298 OFFCURVE",
"556 -312 OFFCURVE",
"465 -312 CURVE SMOOTH",
"449 -312 OFFCURVE",
"410 -308 OFFCURVE",
"382 -299 CURVE",
"381 -484 LINE",
"416 -499 OFFCURVE",
"477 -513 OFFCURVE",
"523 -513 CURVE SMOOTH",
"707 -513 OFFCURVE",
"813 -460 OFFCURVE",
"822 -289 CURVE SMOOTH",
"828 -173 OFFCURVE",
"755 -69 OFFCURVE",
"706 -17 CURVE",
"1068 20 OFFCURVE",
"1171 248 OFFCURVE",
"1171 428 CURVE SMOOTH",
"1171 672 OFFCURVE",
"956 789 OFFCURVE",
"796 865 CURVE SMOOTH",
"607 959 OFFCURVE",
"440 1032 OFFCURVE",
"440 1185 CURVE SMOOTH",
"440 1287 OFFCURVE",
"503 1371 OFFCURVE",
"659 1371 CURVE SMOOTH",
"748 1371 OFFCURVE",
"817 1344 OFFCURVE",
"833 1323 CURVE",
"878 1078 LINE",
"1060 1078 LINE",
"1072 1434 LINE",
"1014 1439 OFFCURVE",
"875 1505 OFFCURVE",
"644 1505 CURVE SMOOTH",
"278 1505 OFFCURVE",
"116 1310 OFFCURVE",
"116 1096 CURVE SMOOTH",
"116 819 OFFCURVE",
"340 691 OFFCURVE",
"493 620 CURVE SMOOTH",
"698 525 OFFCURVE",
"829 456 OFFCURVE",
"829 320 CURVE SMOOTH",
"829 197 OFFCURVE",
"752 117 OFFCURVE",
"585 117 CURVE SMOOTH",
"468 117 OFFCURVE",
"388 153 OFFCURVE",
"361 185 CURVE",
"312 439 LINE",
"125 439 LINE",
"108 66 LINE"
);
}
);
width = 1217;
}
);
leftKerningGroup = S;
rightKerningGroup = S;
unicode = 015E;
},
{
glyphname = Germandbls;
lastChange = "2019-04-05 05:20:29 +0000";
layers = (
{
layerId = UUID0;
paths = (
{
closed = 1;
nodes = (
"40 0 LINE",
"332 0 LINE",
"332 926 LINE SMOOTH",
"332 1230 OFFCURVE",
"520 1410 OFFCURVE",
"742 1410 CURVE SMOOTH",
"922 1410 OFFCURVE",
"1008 1344 OFFCURVE",
"1046 1304 CURVE",
"778 852 LINE",
"778 812 LINE",
"906 752 OFFCURVE",
"1224 616 OFFCURVE",
"1224 378 CURVE SMOOTH",
"1224 154 OFFCURVE",
"1110 72 OFFCURVE",
"974 72 CURVE SMOOTH",
"878 72 OFFCURVE",
"780 104 OFFCURVE",
"748 148 CURVE",
"714 400 LINE",
"612 400 LINE",
"600 60 LINE",
"654 54 OFFCURVE",
"784 -22 OFFCURVE",
"964 -22 CURVE SMOOTH",
"1222 -22 OFFCURVE",
"1386 170 OFFCURVE",
"1386 414 CURVE SMOOTH",
"1386 708 OFFCURVE",
"1118 818 OFFCURVE",
"946 914 CURVE",
"1202 1322 LINE",
"1202 1392 LINE",
"1096 1456 OFFCURVE",
"974 1502 OFFCURVE",
"792 1502 CURVE SMOOTH",
"440 1502 OFFCURVE",
"164 1232 OFFCURVE",
"164 890 CURVE SMOOTH",
"164 104 LINE",
"40 84 LINE"
);
}
);
width = 1434;
},
{
layerId = "DEBB1CE4-A72D-4960-969E-E04A036D2FA1";
paths = (
{
closed = 1;
nodes = (
"19 0 LINE",
"461 0 LINE",
"461 916 LINE SMOOTH",
"461 1202 OFFCURVE",
"584 1373 OFFCURVE",
"803 1373 CURVE SMOOTH",
"909 1373 OFFCURVE",
"971 1343 OFFCURVE",
"1015 1308 CURVE",
"747 957 LINE",
"747 797 LINE",
"922 742 OFFCURVE",
"1140 581 OFFCURVE",
"1140 400 CURVE SMOOTH",
"1140 184 OFFCURVE",
"1066 112 OFFCURVE",
"978 112 CURVE SMOOTH",
"924 112 OFFCURVE",
"869 131 OFFCURVE",
"847 163 CURVE",
"798 413 LINE",
"634 413 LINE",
"625 57 LINE",
"694 54 OFFCURVE",
"791 -23 OFFCURVE",
"994 -23 CURVE SMOOTH",
"1312 -23 OFFCURVE",
"1486 169 OFFCURVE",
"1486 447 CURVE SMOOTH",
"1486 757 OFFCURVE",
"1187 876 OFFCURVE",
"1017 939 CURVE",
"1301 1279 LINE",
"1302 1413 LINE",
"1205 1443 OFFCURVE",
"1086 1505 OFFCURVE",
"841 1505 CURVE SMOOTH",
"403 1505 OFFCURVE",
"127 1270 OFFCURVE",
"127 887 CURVE SMOOTH",
"127 153 LINE",
"19 131 LINE"
);
}
);
width = 1493;
}
);
leftKerningGroup = S;
rightKerningGroup = S;
unicode = 1E9E;
},
{
glyphname = Schwa;
lastChange = "2019-04-05 05:20:29 +0000";
layers = (
{
layerId = UUID0;
paths = (
{
closed = 1;
nodes = (
"964 -22 OFFCURVE",
"1240 292 OFFCURVE",
"1240 752 CURVE SMOOTH",
"1240 1198 OFFCURVE",
"1010 1502 OFFCURVE",
"648 1502 CURVE SMOOTH",
"370 1502 OFFCURVE",
"254 1430 OFFCURVE",
"142 1424 CURVE",
"130 1138 LINE",
"236 1138 LINE",
"272 1298 LINE",
"330 1346 OFFCURVE",
"426 1404 OFFCURVE",
"616 1404 CURVE SMOOTH",
"874 1404 OFFCURVE",
"1056 1164 OFFCURVE",
"1072 762 CURVE",
"106 762 LINE",
"96 716 OFFCURVE",
"96 650 OFFCURVE",
"96 568 CURVE",
"104 192 OFFCURVE",
"298 -22 OFFCURVE",
"598 -22 CURVE SMOOTH"
);
},
{
closed = 1;
nodes = (
"380 86 OFFCURVE",
"266 334 OFFCURVE",
"266 554 CURVE SMOOTH",
"266 592 OFFCURVE",
"268 628 OFFCURVE",
"274 664 CURVE",
"1072 664 LINE",
"1062 252 OFFCURVE",
"876 86 OFFCURVE",
"640 86 CURVE SMOOTH"
);
}
);
width = 1310;
},
{
layerId = "DEBB1CE4-A72D-4960-969E-E04A036D2FA1";
paths = (
{
closed = 1;
nodes = (
"1038 -22 OFFCURVE",
"1330 261 OFFCURVE",
"1330 756 CURVE SMOOTH",
"1330 1236 OFFCURVE",
"1059 1502 OFFCURVE",
"675 1502 CURVE SMOOTH",
"395 1502 OFFCURVE",
"245 1430 OFFCURVE",
"133 1424 CURVE",
"131 1098 LINE",
"365 1089 LINE",
"401 1227 LINE",
"442 1297 OFFCURVE",
"479 1366 OFFCURVE",
"643 1366 CURVE SMOOTH",
"847 1366 OFFCURVE",
"961 1142 OFFCURVE",
"977 809 CURVE",
"88 811 LINE",
"77 760 OFFCURVE",
"69 647 OFFCURVE",
"69 559 CURVE",
"80 154 OFFCURVE",
"339 -22 OFFCURVE",
"639 -22 CURVE SMOOTH"
);
},
{
closed = 1;
nodes = (
"473 141 OFFCURVE",
"412 368 OFFCURVE",
"412 545 CURVE SMOOTH",
"412 586 OFFCURVE",
"413 615 OFFCURVE",
"416 651 CURVE",
"980 649 LINE",
"978 302 OFFCURVE",
"873 141 OFFCURVE",
"684 141 CURVE SMOOTH"
);
}
);
width = 1379;
}
);
leftKerningGroup = O;
rightKerningGroup = O;
unicode = 018F;
},
{
glyphname = T;
lastChange = "2019-04-05 05:20:29 +0000";
layers = (
{
anchors = (
{
name = bottom;
position = "{688, 0}";
},
{
name = center;
position = "{688, 744}";
},
{
name = mark0;
position = "{704, -166}";
},
{
name = top;
position = "{688, 1486}";
}
);
background = {
paths = (
{
closed = 1;
nodes = (
"764 1396 LINE",
"1144 1384 LINE",
"1208 978 LINE",
"1318 978 LINE",
"1284 1486 LINE",
"66 1486 LINE",
"44 978 LINE",
"150 978 LINE",
"206 1384 LINE",
"592 1396 LINE",
"592 104 LINE",
"306 86 LINE",
"306 0 LINE",
"1026 0 LINE",
"1026 86 LINE",
"764 104 LINE"
);
}
);
};
layerId = UUID0;
paths = (
{
closed = 1;
nodes = (
"324 86 LINE",
"324 0 LINE",
"1044 0 LINE",
"1044 86 LINE",
"768 104 LINE",
"768 1396 LINE",
"1144 1384 LINE",
"1208 978 LINE",
"1318 978 LINE",
"1284 1486 LINE",
"78 1486 LINE",
"44 978 LINE",
"154 978 LINE",
"218 1384 LINE",
"596 1396 LINE",
"596 104 LINE"
);
}
);
width = 1362;
},
{
anchors = (
{
name = bottom;
position = "{734, 0}";
},
{
name = center;
position = "{734, 744}";
},
{
name = mark0;
position = "{740, -166}";
},
{
name = top;
position = "{734, 1486}";
}
);
background = {
paths = (
{
closed = 1;
nodes = (
"902 1338 LINE",
"1148 1328 LINE",
"1238 882 LINE",
"1416 882 LINE",
"1384 1486 LINE",
"72 1486 LINE",
"40 882 LINE",
"218 882 LINE",
"306 1328 LINE",
"556 1338 LINE",
"556 154 LINE",
"288 132 LINE",
"288 0 LINE",
"1168 0 LINE",
"1168 132 LINE",
"902 154 LINE"
);
}
);
};
layerId = "DEBB1CE4-A72D-4960-969E-E04A036D2FA1";
paths = (
{
closed = 1;
nodes = (
"288 132 LINE",
"288 0 LINE",
"1168 0 LINE",
"1168 132 LINE",
"900 154 LINE",
"900 1338 LINE",
"1150 1328 LINE",
"1238 882 LINE",
"1416 882 LINE",
"1384 1486 LINE",
"72 1486 LINE",
"40 882 LINE",
"218 882 LINE",
"308 1328 LINE",
"554 1338 LINE",
"554 154 LINE"
);
}
);
width = 1456;
}
);
leftKerningGroup = T;
rightKerningGroup = T;
unicode = 0054;
},
{
glyphname = Tbar;
lastChange = "2019-04-05 05:20:29 +0000";
layers = (
{
layerId = UUID0;
paths = (
{
closed = 1;
nodes = (
"360 746 LINE",
"360 638 LINE",
"610 638 LINE",
"610 104 LINE",
"348 86 LINE",
"348 0 LINE",
"1068 0 LINE",
"1068 86 LINE",
"782 104 LINE",
"782 638 LINE",
"1034 638 LINE",
"1034 746 LINE",
"782 746 LINE",
"782 1396 LINE",
"1166 1384 LINE",
"1222 978 LINE",
"1330 978 LINE",
"1308 1486 LINE",
"88 1486 LINE",
"56 978 LINE",
"166 978 LINE",
"230 1384 LINE",
"610 1396 LINE",
"610 746 LINE"
);
}
);
width = 1394;
},
{
layerId = "DEBB1CE4-A72D-4960-969E-E04A036D2FA1";
paths = (
{
closed = 1;
nodes = (
"348 715 LINE",
"348 563 LINE",
"563 563 LINE",
"563 154 LINE",
"310 132 LINE",
"310 0 LINE",
"1188 0 LINE",
"1188 132 LINE",
"909 154 LINE",
"909 563 LINE",
"1120 563 LINE",
"1120 715 LINE",
"909 715 LINE",
"909 1338 LINE",
"1151 1328 LINE",
"1238 882 LINE",
"1417 882 LINE",
"1391 1486 LINE",
"73 1486 LINE",
"41 882 LINE",
"230 882 LINE",
"314 1328 LINE",
"563 1338 LINE",
"563 715 LINE"
);
}
);
width = 1468;
}
);
leftKerningGroup = T;
rightKerningGroup = T;
unicode = 0166;
},
{
glyphname = Tcedilla;
lastChange = "2019-04-05 05:20:29 +0000";
layers = (
{
anchors = (
{
name = _bottom;
position = "{680, 0}";
},
{
name = bottom;
position = "{680, 0}";
},
{
name = center;
position = "{680, 744}";
},
{
name = mark0;
position = "{696, -166}";
},
{
name = top;
position = "{680, 1486}";
}
);
layerId = UUID0;
paths = (
{
closed = 1;
nodes = (
"146 978 LINE",
"210 1384 LINE",
"590 1396 LINE",
"590 104 LINE",
"328 86 LINE",
"328 0 LINE",
"638 0 LINE",
"656 -26 OFFCURVE",
"706 -116 OFFCURVE",
"706 -200 CURVE SMOOTH",
"706 -322 OFFCURVE",
"652 -342 OFFCURVE",
"554 -342 CURVE SMOOTH",
"534 -342 OFFCURVE",
"490 -336 OFFCURVE",
"462 -326 CURVE",
"460 -444 LINE",
"496 -458 OFFCURVE",
"556 -470 OFFCURVE",
"602 -470 CURVE SMOOTH",
"752 -470 OFFCURVE",
"840 -422 OFFCURVE",
"846 -286 CURVE SMOOTH",
"852 -160 OFFCURVE",
"762 -38 OFFCURVE",
"720 0 CURVE",
"1048 0 LINE",
"1048 86 LINE",
"762 104 LINE",
"762 1396 LINE",
"1148 1384 LINE",
"1204 978 LINE",
"1310 978 LINE",
"1288 1486 LINE",
"70 1486 LINE",
"36 978 LINE"
);
}
);
width = 1358;
},
{
anchors = (
{
name = _bottom;
position = "{726, 0}";
},
{
name = bottom;
position = "{726, 0}";
},
{
name = center;
position = "{726, 744}";
},
{
name = mark0;
position = "{731, -166}";
},
{
name = top;
position = "{726, 1486}";
}
);
layerId = "DEBB1CE4-A72D-4960-969E-E04A036D2FA1";
paths = (
{
closed = 1;
nodes = (
"220 882 LINE",
"305 1328 LINE",
"555 1338 LINE",
"555 154 LINE",
"300 132 LINE",
"300 0 LINE",
"660 0 LINE",
"682 -31 OFFCURVE",
"721 -107 OFFCURVE",
"721 -175 CURVE SMOOTH",
"721 -298 OFFCURVE",
"673 -312 OFFCURVE",
"582 -312 CURVE SMOOTH",
"567 -312 OFFCURVE",
"527 -308 OFFCURVE",
"499 -299 CURVE",
"498 -484 LINE",
"533 -499 OFFCURVE",
"594 -513 OFFCURVE",
"640 -513 CURVE SMOOTH",
"824 -513 OFFCURVE",
"930 -460 OFFCURVE",
"939 -289 CURVE SMOOTH",
"946 -159 OFFCURVE",
"853 -43 OFFCURVE",
"806 0 CURVE",
"1178 0 LINE",
"1178 132 LINE",
"899 154 LINE",
"899 1338 LINE",
"1142 1328 LINE",
"1229 882 LINE",
"1408 882 LINE",
"1383 1486 LINE",
"64 1486 LINE",
"32 882 LINE"
);
}
);
width = 1450;
}
);
leftKerningGroup = T;
rightKerningGroup = T;
unicode = 0162;
},
{
glyphname = U;
lastChange = "2019-04-05 05:20:29 +0000";
layers = (
{
anchors = (
{
name = bottom;
position = "{738, 0}";
},
{
name = mark0;
position = "{770, -166}";
},
{
name = ogonek;
position = "{1328, 20}";
},
{
name = top;
position = "{770, 1486}";
},
{
name = topright;
position = "{1436, 1486}";
}
);
layerId = UUID0;
paths = (
{
closed = 1;
nodes = (
"1062 -16 OFFCURVE",
"1288 176 OFFCURVE",
"1288 610 CURVE SMOOTH",
"1288 1378 LINE",
"1440 1400 LINE",
"1440 1486 LINE",
"996 1486 LINE",
"996 1400 LINE",
"1162 1376 LINE",
"1162 602 LINE SMOOTH",
"1162 262 OFFCURVE",
"1030 82 OFFCURVE",
"774 82 CURVE SMOOTH",
"540 82 OFFCURVE",
"372 204 OFFCURVE",
"372 618 CURVE SMOOTH",
"372 1378 LINE",
"544 1400 LINE",
"544 1486 LINE",
"54 1486 LINE",
"54 1400 LINE",
"204 1378 LINE",
"204 636 LINE SMOOTH",
"204 194 OFFCURVE",
"372 -16 OFFCURVE",
"758 -16 CURVE SMOOTH"
);
}
);
width = 1476;
},
{
anchors = (
{
name = bottom;
position = "{745, 0}";
},
{
name = mark0;
position = "{745, -166}";
},
{
name = ogonek;
position = "{1340, 20}";
},
{
name = top;
position = "{813, 1486}";
},
{
name = topright;
position = "{1449, 1486}";
}
);
layerId = "DEBB1CE4-A72D-4960-969E-E04A036D2FA1";
paths = (
{
closed = 1;
nodes = (
"1103 -16 OFFCURVE",
"1343 157 OFFCURVE",
"1343 591 CURVE SMOOTH",
"1343 1319 LINE",
"1474 1347 LINE",
"1474 1486 LINE",
"953 1486 LINE",
"953 1347 LINE",
"1127 1318 LINE",
"1127 572 LINE SMOOTH",
"1127 308 OFFCURVE",
"1042 123 OFFCURVE",
"824 123 CURVE SMOOTH",
"608 123 OFFCURVE",
"511 284 OFFCURVE",
"511 577 CURVE SMOOTH",
"511 1316 LINE",
"678 1347 LINE",
"678 1486 LINE",
"32 1486 LINE",
"32 1347 LINE",
"157 1319 LINE",
"157 605 LINE SMOOTH",
"157 170 OFFCURVE",
"366 -16 OFFCURVE",
"774 -16 CURVE SMOOTH"
);
}
);
width = 1489;
}
);
leftKerningGroup = U;
rightKerningGroup = U;
unicode = 0055;
},
{
glyphname = Uhorn;
lastChange = "2019-04-05 05:20:29 +0000";
layers = (
{
anchors = (
{
name = bottom;
position = "{758, 0}";
},
{
name = mark0;
position = "{770, -166}";
},
{
name = ogonek;
position = "{1328, 20}";
},
{
name = top;
position = "{776, 1486}";
}
);
layerId = UUID0;
paths = (
{
closed = 1;
nodes = (
"204 1378 LINE",
"204 636 LINE SMOOTH",
"204 194 OFFCURVE",
"372 -16 OFFCURVE",
"758 -16 CURVE SMOOTH",
"1062 -16 OFFCURVE",
"1288 176 OFFCURVE",
"1288 610 CURVE SMOOTH",
"1288 1390 LINE",
"1429 1419 OFFCURVE",
"1525 1516 OFFCURVE",
"1522 1686 CURVE",
"1522 1700 OFFCURVE",
"1520 1714 OFFCURVE",
"1518 1730 CURVE",
"1368 1730 LINE",
"1370 1722 OFFCURVE",
"1370 1710 OFFCURVE",
"1370 1696 CURVE SMOOTH",
"1370 1596 OFFCURVE",
"1318 1486 OFFCURVE",
"1154 1486 CURVE SMOOTH",
"996 1486 LINE",
"996 1400 LINE",
"1162 1376 LINE",
"1162 602 LINE SMOOTH",
"1162 262 OFFCURVE",
"1030 82 OFFCURVE",
"774 82 CURVE SMOOTH",
"540 82 OFFCURVE",
"372 204 OFFCURVE",
"372 618 CURVE SMOOTH",
"372 1378 LINE",
"544 1400 LINE",
"544 1486 LINE",
"54 1486 LINE",
"54 1400 LINE"
);
}
);
width = 1476;
},
{
anchors = (
{
name = bottom;
position = "{774, 0}";
},
{
name = mark0;
position = "{745, -166}";
},
{
name = ogonek;
position = "{1340, 20}";
},
{
name = top;
position = "{791, 1486}";
}
);
layerId = "DEBB1CE4-A72D-4960-969E-E04A036D2FA1";
paths = (
{
closed = 1;
nodes = (
"157 1319 LINE",
"157 605 LINE SMOOTH",
"157 170 OFFCURVE",
"366 -16 OFFCURVE",
"774 -16 CURVE SMOOTH",
"1103 -16 OFFCURVE",
"1343 157 OFFCURVE",
"1343 591 CURVE SMOOTH",
"1343 1338 LINE",
"1500 1368 OFFCURVE",
"1623 1470 OFFCURVE",
"1622 1687 CURVE",
"1622 1701 OFFCURVE",
"1620 1717 OFFCURVE",
"1617 1730 CURVE",
"1408 1730 LINE",
"1411 1718 OFFCURVE",
"1414 1703 OFFCURVE",
"1414 1678 CURVE SMOOTH",
"1414 1593 OFFCURVE",
"1383 1486 OFFCURVE",
"1200 1486 CURVE SMOOTH",
"953 1486 LINE",
"953 1347 LINE",
"1127 1318 LINE",
"1127 572 LINE SMOOTH",
"1127 308 OFFCURVE",
"1042 123 OFFCURVE",
"824 123 CURVE SMOOTH",
"608 123 OFFCURVE",
"511 284 OFFCURVE",
"511 577 CURVE SMOOTH",
"511 1316 LINE",
"678 1347 LINE",
"678 1486 LINE",
"32 1486 LINE",
"32 1347 LINE"
);
}
);
width = 1489;
}
);
leftKerningGroup = U;
rightKerningGroup = Uhorn;
unicode = 01AF;
},
{
glyphname = Uogonek;
lastChange = "2019-04-05 05:20:29 +0000";
layers = (
{
layerId = UUID0;
paths = (
{
closed = 1;
nodes = (
"768 -16 OFFCURVE",
"776 -16 OFFCURVE",
"784 -14 CURVE",
"654 -80 OFFCURVE",
"542 -208 OFFCURVE",
"542 -310 CURVE SMOOTH",
"542 -452 OFFCURVE",
"662 -498 OFFCURVE",
"786 -498 CURVE SMOOTH",
"868 -498 OFFCURVE",
"956 -472 OFFCURVE",
"1010 -430 CURVE",
"1010 -346 LINE",
"964 -370 OFFCURVE",
"908 -386 OFFCURVE",
"854 -386 CURVE SMOOTH",
"772 -386 OFFCURVE",
"700 -352 OFFCURVE",
"700 -256 CURVE SMOOTH",
"700 -174 OFFCURVE",
"804 -62 OFFCURVE",
"932 8 CURVE",
"1144 72 OFFCURVE",
"1288 264 OFFCURVE",
"1288 610 CURVE SMOOTH",
"1288 1378 LINE",
"1440 1400 LINE",
"1440 1486 LINE",
"996 1486 LINE",
"996 1400 LINE",
"1162 1376 LINE",
"1162 602 LINE SMOOTH",
"1162 262 OFFCURVE",
"1030 82 OFFCURVE",
"774 82 CURVE SMOOTH",
"540 82 OFFCURVE",
"372 204 OFFCURVE",
"372 618 CURVE SMOOTH",
"372 1378 LINE",
"544 1400 LINE",
"544 1486 LINE",
"54 1486 LINE",
"54 1400 LINE",
"204 1378 LINE",
"204 636 LINE SMOOTH",
"204 194 OFFCURVE",
"372 -16 OFFCURVE",
"758 -16 CURVE SMOOTH"
);
}
);
width = 1476;
},
{
layerId = "DEBB1CE4-A72D-4960-969E-E04A036D2FA1";
paths = (
{
closed = 1;
nodes = (
"795 -16 OFFCURVE",
"814 -15 OFFCURVE",
"834 -13 CURVE",
"719 -70 OFFCURVE",
"589 -184 OFFCURVE",
"589 -301 CURVE SMOOTH",
"589 -443 OFFCURVE",
"714 -501 OFFCURVE",
"852 -501 CURVE SMOOTH",
"936 -501 OFFCURVE",
"1045 -476 OFFCURVE",
"1100 -434 CURVE",
"1100 -296 LINE",
"1054 -315 OFFCURVE",
"1028 -322 OFFCURVE",
"978 -322 CURVE SMOOTH",
"901 -322 OFFCURVE",
"852 -271 OFFCURVE",
"852 -204 CURVE SMOOTH",
"852 -130 OFFCURVE",
"925 -47 OFFCURVE",
"1028 29 CURVE",
"1219 103 OFFCURVE",
"1343 280 OFFCURVE",
"1343 591 CURVE SMOOTH",
"1343 1319 LINE",
"1474 1347 LINE",
"1474 1486 LINE",
"953 1486 LINE",
"953 1347 LINE",
"1127 1318 LINE",
"1127 572 LINE SMOOTH",
"1127 308 OFFCURVE",
"1042 123 OFFCURVE",
"824 123 CURVE SMOOTH",
"608 123 OFFCURVE",
"511 284 OFFCURVE",
"511 577 CURVE SMOOTH",
"511 1316 LINE",
"678 1347 LINE",
"678 1486 LINE",
"32 1486 LINE",
"32 1347 LINE",
"157 1319 LINE",
"157 605 LINE SMOOTH",
"157 170 OFFCURVE",
"366 -16 OFFCURVE",
"774 -16 CURVE SMOOTH"
);
}
);
width = 1489;
}
);
leftKerningGroup = U;
rightKerningGroup = U;
unicode = 0172;
},
{
glyphname = V;
lastChange = "2019-04-05 05:20:29 +0000";
layers = (
{
anchors = (
{
name = mark0;
position = "{686, -166}";
}
);
layerId = UUID0;
paths = (
{
closed = 1;
nodes = (
"94 1378 LINE",
"608 -16 LINE",
"740 -16 LINE",
"1226 1378 LINE",
"1354 1400 LINE",
"1354 1486 LINE",
"932 1486 LINE",
"932 1400 LINE",
"1092 1378 LINE",
"776 418 LINE",
"700 142 LINE",
"616 414 LINE",
"272 1378 LINE",
"456 1400 LINE",
"456 1486 LINE",
"-30 1486 LINE",
"-30 1400 LINE"
);
}
);
width = 1320;
},
{
anchors = (
{
name = mark0;
position = "{668, -166}";
}
);
layerId = "DEBB1CE4-A72D-4960-969E-E04A036D2FA1";
paths = (
{
closed = 1;
nodes = (
"79 1319 LINE",
"577 -15 LINE",
"855 -15 LINE",
"1309 1319 LINE",
"1438 1347 LINE",
"1438 1486 LINE",
"929 1486 LINE",
"929 1347 LINE",
"1086 1319 LINE",
"819 452 LINE",
"778 275 LINE",
"730 451 LINE",
"452 1320 LINE",
"616 1347 LINE",
"616 1486 LINE",
"-39 1486 LINE",
"-39 1347 LINE"
);
}
);
width = 1394;
}
);
leftKerningGroup = V;
rightKerningGroup = V;
unicode = 0056;
},
{
glyphname = W;
lastChange = "2019-04-05 05:20:29 +0000";
layers = (
{
anchors = (
{
name = bottom;
position = "{992, 0}";
},
{
name = mark0;
position = "{976, -166}";
},
{
name = top;
position = "{992, 1486}";
}
);
layerId = UUID0;
paths = (
{
closed = 1;
nodes = (
"100 1376 LINE",
"532 -10 LINE",
"678 -10 LINE",
"996 1036 LINE",
"1320 -10 LINE",
"1474 -10 LINE",
"1884 1378 LINE",
"2018 1400 LINE",
"2018 1486 LINE",
"1544 1486 LINE",
"1544 1400 LINE",
"1754 1378 LINE",
"1488 428 LINE",
"1422 88 LINE",
"1344 428 LINE",
"1062 1378 LINE",
"1260 1400 LINE",
"1260 1486 LINE",
"740 1486 LINE",
"740 1400 LINE",
"888 1378 LINE",
"942 1210 LINE",
"702 428 LINE",
"624 112 LINE",
"558 428 LINE",
"268 1378 LINE",
"464 1400 LINE",
"464 1486 LINE",
"-40 1486 LINE",
"-40 1400 LINE"
);
}
);
width = 1978;
},
{
anchors = (
{
name = bottom;
position = "{1029, 0}";
},
{
name = mark0;
position = "{924, -166}";
},
{
name = top;
position = "{1073, 1486}";
}
);
layerId = "DEBB1CE4-A72D-4960-969E-E04A036D2FA1";
paths = (
{
closed = 1;
nodes = (
"81 1318 LINE",
"486 -10 LINE",
"789 -10 LINE",
"1031 881 LINE",
"1290 -10 LINE",
"1597 -10 LINE",
"1965 1319 LINE",
"2090 1347 LINE",
"2090 1486 LINE",
"1605 1486 LINE",
"1605 1347 LINE",
"1775 1319 LINE",
"1560 437 LINE",
"1527 234 LINE",
"1483 437 LINE",
"1244 1319 LINE",
"1434 1347 LINE",
"1434 1486 LINE",
"767 1486 LINE",
"767 1347 LINE",
"892 1319 LINE",
"949 1148 LINE",
"746 437 LINE",
"713 251 LINE",
"675 437 LINE",
"436 1319 LINE",
"603 1347 LINE",
"603 1486 LINE",
"-36 1486 LINE",
"-36 1347 LINE"
);
}
);
width = 2055;
}
);
leftKerningGroup = W;
rightKerningGroup = W;
unicode = 0057;
},
{
glyphname = X;
lastChange = "2019-04-05 05:20:29 +0000";
layers = (
{
anchors = (
{
name = mark0;
position = "{708, -166}";
}
);
layerId = UUID0;
paths = (
{
closed = 1;
nodes = (
"14 86 LINE",
"14 0 LINE",
"540 0 LINE",
"540 86 LINE",
"334 104 LINE",
"684 684 LINE",
"1048 104 LINE",
"852 86 LINE",
"852 0 LINE",
"1410 0 LINE",
"1410 86 LINE",
"1250 104 LINE",
"796 772 LINE",
"1214 1376 LINE",
"1372 1400 LINE",
"1372 1486 LINE",
"894 1486 LINE",
"894 1400 LINE",
"1074 1378 LINE",
"742 838 LINE",
"406 1376 LINE",
"610 1400 LINE",
"610 1486 LINE",
"50 1486 LINE",
"50 1400 LINE",
"204 1376 LINE",
"626 752 LINE",
"188 104 LINE"
);
}
);
width = 1416;
},
{
anchors = (
{
name = mark0;
position = "{715, -166}";
}
);
layerId = "DEBB1CE4-A72D-4960-969E-E04A036D2FA1";
paths = (
{
closed = 1;
nodes = (
"11 132 LINE",
"11 0 LINE",
"564 0 LINE",
"564 132 LINE",
"378 153 LINE",
"643 610 LINE",
"918 154 LINE",
"762 132 LINE",
"762 0 LINE",
"1448 0 LINE",
"1448 132 LINE",
"1316 154 LINE",
"886 797 LINE",
"1264 1318 LINE",
"1427 1347 LINE",
"1427 1486 LINE",
"900 1486 LINE",
"900 1347 LINE",
"1068 1319 LINE",
"806 897 LINE",
"555 1317 LINE",
"712 1347 LINE",
"712 1486 LINE",
"23 1486 LINE",
"23 1347 LINE",
"155 1318 LINE",
"558 715 LINE",
"176 153 LINE"
);
}
);
width = 1446;
}
);
leftKerningGroup = X;
rightKerningGroup = X;
unicode = 0058;
},
{
glyphname = Y;
lastChange = "2019-04-05 05:20:29 +0000";
layers = (
{
anchors = (
{
name = bottom;
position = "{640, 0}";
},
{
name = mark0;
position = "{610, -166}";
},
{
name = top;
position = "{660, 1486}";
},
{
name = topleft;
position = "{40, 1486}";
}
);
layerId = UUID0;
paths = (
{
closed = 1;
nodes = (
"346 86 LINE",
"346 0 LINE",
"964 0 LINE",
"964 86 LINE",
"736 106 LINE",
"736 574 LINE",
"1168 1378 LINE",
"1300 1400 LINE",
"1300 1486 LINE",
"866 1486 LINE",
"866 1400 LINE",
"1034 1378 LINE",
"744 812 LINE",
"666 652 LINE",
"594 812 LINE",
"292 1378 LINE",
"460 1400 LINE",
"460 1486 LINE",
"-18 1486 LINE",
"-18 1400 LINE",
"106 1376 LINE",
"568 572 LINE",
"568 104 LINE"
);
}
);
width = 1280;
},
{
anchors = (
{
name = bottom;
position = "{656, 0}";
},
{
name = mark0;
position = "{551, -166}";
},
{
name = top;
position = "{724, 1486}";
},
{
name = topleft;
position = "{40, 1486}";
}
);
layerId = "DEBB1CE4-A72D-4960-969E-E04A036D2FA1";
paths = (
{
closed = 1;
nodes = (
"281 132 LINE",
"281 0 LINE",
"1063 0 LINE",
"1063 132 LINE",
"850 153 LINE",
"850 598 LINE",
"1234 1323 LINE",
"1356 1347 LINE",
"1356 1486 LINE",
"845 1486 LINE",
"845 1347 LINE",
"999 1319 LINE",
"791 859 LINE",
"740 730 LINE",
"690 859 LINE",
"462 1319 LINE",
"593 1347 LINE",
"593 1486 LINE",
"-39 1486 LINE",
"-39 1347 LINE",
"72 1320 LINE",
"487 596 LINE",
"487 154 LINE"
);
}
);
width = 1311;
}
);
leftKerningGroup = Y;
rightKerningGroup = Y;
unicode = 0059;
},
{
glyphname = Z;
lastChange = "2019-04-05 05:20:29 +0000";
layers = (
{
anchors = (
{
name = bottom;
position = "{654, 0}";
},
{
name = mark0;
position = "{666, -166}";
},
{
name = top;
position = "{690, 1486}";
}
);
layerId = UUID0;
paths = (
{
closed = 1;
nodes = (
"84 78 LINE",
"132 0 LINE",
"1172 0 LINE",
"1220 422 LINE",
"1124 444 LINE",
"1024 128 LINE",
"276 94 LINE",
"406 254 LINE",
"1198 1418 LINE",
"1154 1492 LINE",
"212 1492 LINE",
"170 1130 LINE",
"262 1120 LINE",
"360 1380 LINE",
"1000 1400 LINE",
"886 1250 LINE"
);
}
);
width = 1306;
},
{
anchors = (
{
name = bottom;
position = "{655, 0}";
},
{
name = mark0;
position = "{675, -166}";
},
{
name = top;
position = "{678, 1486}";
}
);
layerId = "DEBB1CE4-A72D-4960-969E-E04A036D2FA1";
paths = (
{
closed = 1;
nodes = (
"29 116 LINE",
"97 0 LINE",
"1219 0 LINE",
"1264 449 LINE",
"1091 484 LINE",
"975 175 LINE",
"403 134 LINE",
"532 266 LINE",
"1248 1372 LINE",
"1198 1491 LINE",
"157 1491 LINE",
"108 1084 LINE",
"280 1059 LINE",
"391 1334 LINE",
"879 1363 LINE",
"757 1226 LINE"
);
}
);
width = 1310;
}
);
leftKerningGroup = Z;
rightKerningGroup = Z;
unicode = 005A;
},
{
glyphname = I.uc;
lastChange = "2019-04-05 05:20:29 +0000";
layers = (
{
layerId = UUID0;
paths = (
{
closed = 1;
nodes = (
"472 1672 OFFCURVE",
"512 1732 OFFCURVE",
"512 1802 CURVE SMOOTH",
"512 1860 OFFCURVE",
"474 1918 OFFCURVE",
"406 1918 CURVE SMOOTH",
"326 1918 OFFCURVE",
"288 1854 OFFCURVE",
"288 1786 CURVE SMOOTH",
"288 1722 OFFCURVE",
"326 1672 OFFCURVE",
"390 1672 CURVE SMOOTH"
);
},
{
closed = 1;
nodes = (
"674 0 LINE",
"674 84 LINE",
"480 104 LINE",
"480 1378 LINE",
"674 1400 LINE",
"674 1486 LINE",
"120 1486 LINE",
"120 1400 LINE",
"314 1378 LINE",
"314 104 LINE",
"120 86 LINE",
"120 0 LINE"
);
}
);
width = 794;
},
{
layerId = "DEBB1CE4-A72D-4960-969E-E04A036D2FA1";
paths = (
{
closed = 1;
nodes = (
"533 1619 OFFCURVE",
"595 1689 OFFCURVE",
"595 1795 CURVE SMOOTH",
"595 1879 OFFCURVE",
"530 1945 OFFCURVE",
"418 1945 CURVE SMOOTH",
"299 1945 OFFCURVE",
"235 1875 OFFCURVE",
"235 1770 CURVE SMOOTH",
"235 1684 OFFCURVE",
"302 1619 OFFCURVE",
"399 1619 CURVE SMOOTH"
);
},
{
closed = 1;
nodes = (
"757 0 LINE",
"757 130 LINE",
"589 153 LINE",
"589 1319 LINE",
"757 1347 LINE",
"757 1486 LINE",
"83 1486 LINE",
"83 1347 LINE",
"246 1319 LINE",
"246 154 LINE",
"85 132 LINE",
"85 0 LINE"
);
}
);
width = 835;
}
);
leftKerningGroup = I;
rightKerningGroup = I;
},
{
glyphname = a;
lastChange = "2019-04-05 05:20:29 +0000";
layers = (
{
anchors = (
{
name = bottom;
position = "{532, 0}";
},
{
name = mark0;
position = "{488, -166}";
},
{
name = ogonek;
position = "{916, 20}";
},
{
name = top;
position = "{514, 1110}";
}
);
layerId = UUID0;
paths = (
{
closed = 1;
nodes = (
"76 74 OFFCURVE",
"232 -22 OFFCURVE",
"410 -22 CURVE SMOOTH",
"578 -22 OFFCURVE",
"710 96 OFFCURVE",
"760 140 CURVE",
"760 66 LINE SMOOTH",
"760 -12 OFFCURVE",
"786 -18 OFFCURVE",
"844 -18 CURVE SMOOTH",
"904 -18 OFFCURVE",
"986 0 OFFCURVE",
"1030 12 CURVE",
"1030 86 LINE",
"906 86 LINE",
"906 746 LINE SMOOTH",
"906 1026 OFFCURVE",
"812 1132 OFFCURVE",
"546 1132 CURVE SMOOTH",
"354 1132 OFFCURVE",
"156 1020 OFFCURVE",
"120 986 CURVE",
"164 898 LINE",
"228 934 OFFCURVE",
"350 1004 OFFCURVE",
"506 1004 CURVE SMOOTH",
"694 1004 OFFCURVE",
"746 928 OFFCURVE",
"746 730 CURVE SMOOTH",
"746 666 LINE",
"416 660 OFFCURVE",
"76 572 OFFCURVE",
"76 292 CURVE SMOOTH"
);
},
{
closed = 1;
nodes = (
"348 96 OFFCURVE",
"254 152 OFFCURVE",
"254 312 CURVE SMOOTH",
"254 464 OFFCURVE",
"414 570 OFFCURVE",
"746 572 CURVE",
"746 218 LINE",
"666 156 OFFCURVE",
"550 96 OFFCURVE",
"470 96 CURVE SMOOTH"
);
}
);
width = 1100;
},
{
anchors = (
{
name = bottom;
position = "{559, 0}";
},
{
name = mark0;
position = "{526, -166}";
},
{
name = ogonek;
position = "{963, 20}";
},
{
name = top;
position = "{545, 1111}";
}
);
layerId = "DEBB1CE4-A72D-4960-969E-E04A036D2FA1";
paths = (
{
closed = 1;
nodes = (
"39 102 OFFCURVE",
"194 -22 OFFCURVE",
"377 -22 CURVE SMOOTH",
"541 -22 OFFCURVE",
"654 68 OFFCURVE",
"705 133 CURVE",
"705 87 LINE SMOOTH",
"705 0 OFFCURVE",
"728 -24 OFFCURVE",
"831 -24 CURVE SMOOTH",
"917 -24 OFFCURVE",
"1051 -4 OFFCURVE",
"1098 6 CURVE",
"1098 132 LINE",
"995 132 LINE",
"995 727 LINE SMOOTH",
"995 1020 OFFCURVE",
"895 1138 OFFCURVE",
"576 1138 CURVE SMOOTH",
"333 1138 OFFCURVE",
"138 1026 OFFCURVE",
"87 985 CURVE",
"157 840 LINE",
"221 869 OFFCURVE",
"338 924 OFFCURVE",
"491 924 CURVE SMOOTH",
"657 924 OFFCURVE",
"688 863 OFFCURVE",
"688 726 CURVE SMOOTH",
"688 687 LINE",
"314 684 OFFCURVE",
"39 563 OFFCURVE",
"39 320 CURVE SMOOTH"
);
},
{
closed = 1;
nodes = (
"441 161 OFFCURVE",
"383 232 OFFCURVE",
"383 352 CURVE SMOOTH",
"383 458 OFFCURVE",
"467 552 OFFCURVE",
"688 553 CURVE",
"688 234 LINE",
"647 194 OFFCURVE",
"581 161 OFFCURVE",
"532 161 CURVE SMOOTH"
);
}
);
width = 1141;
}
);
leftKerningGroup = a;
rightKerningGroup = a;
unicode = 0061;
category = Letter;
subCategory = Lowercase;
},
{
glyphname = aogonek;
lastChange = "2019-04-05 05:20:29 +0000";
layers = (
{
anchors = (
{
name = _ogonek;
position = "{942, 20}";
},
{
name = bottom;
position = "{558, 0}";
},
{
name = mark0;
position = "{514, -166}";
},
{
name = ogonek;
position = "{942, 20}";
},
{
name = top;
position = "{540, 1110}";
}
);
layerId = UUID0;
paths = (
{
closed = 1;
nodes = (
"604 -22 OFFCURVE",
"736 96 OFFCURVE",
"786 140 CURVE",
"786 66 LINE SMOOTH",
"786 6 OFFCURVE",
"802 -12 OFFCURVE",
"835 -16 CURVE",
"714 -85 OFFCURVE",
"600 -203 OFFCURVE",
"600 -300 CURVE SMOOTH",
"600 -436 OFFCURVE",
"702 -486 OFFCURVE",
"824 -486 CURVE SMOOTH",
"986 -486 OFFCURVE",
"1078 -418 OFFCURVE",
"1128 -380 CURVE",
"1110 -304 LINE",
"1076 -324 OFFCURVE",
"988 -382 OFFCURVE",
"896 -382 CURVE SMOOTH",
"802 -382 OFFCURVE",
"750 -350 OFFCURVE",
"750 -254 CURVE SMOOTH",
"750 -174 OFFCURVE",
"877 -57 OFFCURVE",
"992 -3 CURVE",
"1016 4 OFFCURVE",
"1039 7 OFFCURVE",
"1056 12 CURVE",
"1056 86 LINE",
"932 86 LINE",
"932 746 LINE SMOOTH",
"932 1026 OFFCURVE",
"838 1132 OFFCURVE",
"568 1132 CURVE SMOOTH",
"384 1132 OFFCURVE",
"172 1018 OFFCURVE",
"136 984 CURVE",
"180 896 LINE",
"244 932 OFFCURVE",
"376 1002 OFFCURVE",
"532 1002 CURVE SMOOTH",
"720 1002 OFFCURVE",
"772 926 OFFCURVE",
"772 728 CURVE SMOOTH",
"772 666 LINE",
"442 660 OFFCURVE",
"102 572 OFFCURVE",
"102 292 CURVE SMOOTH",
"102 74 OFFCURVE",
"258 -22 OFFCURVE",
"436 -22 CURVE SMOOTH"
);
},
{
closed = 1;
nodes = (
"280 464 OFFCURVE",
"440 570 OFFCURVE",
"772 572 CURVE",
"772 218 LINE",
"692 156 OFFCURVE",
"576 96 OFFCURVE",
"496 96 CURVE SMOOTH",
"374 96 OFFCURVE",
"280 152 OFFCURVE",
"280 312 CURVE SMOOTH"
);
}
);
width = 1114;
},
{
anchors = (
{
name = _ogonek;
position = "{980, 20}";
},
{
name = bottom;
position = "{576, 0}";
},
{
name = mark0;
position = "{544, -166}";
},
{
name = ogonek;
position = "{980, 20}";
},
{
name = top;
position = "{562, 1111}";
}
);
layerId = "DEBB1CE4-A72D-4960-969E-E04A036D2FA1";
paths = (
{
closed = 1;
nodes = (
"558 -22 OFFCURVE",
"671 68 OFFCURVE",
"722 133 CURVE",
"722 87 LINE SMOOTH",
"722 7 OFFCURVE",
"742 -21 OFFCURVE",
"830 -23 CURVE",
"707 -93 OFFCURVE",
"637 -195 OFFCURVE",
"637 -284 CURVE SMOOTH",
"637 -426 OFFCURVE",
"774 -483 OFFCURVE",
"899 -483 CURVE SMOOTH",
"1001 -483 OFFCURVE",
"1109 -446 OFFCURVE",
"1163 -405 CURVE",
"1160 -269 LINE",
"1117 -286 OFFCURVE",
"1084 -307 OFFCURVE",
"1026 -307 CURVE SMOOTH",
"942 -307 OFFCURVE",
"898 -267 OFFCURVE",
"898 -201 CURVE SMOOTH",
"898 -140 OFFCURVE",
"955 -58 OFFCURVE",
"1058 -5 CURVE",
"1078 0 OFFCURVE",
"1100 3 OFFCURVE",
"1115 6 CURVE",
"1115 132 LINE",
"1012 132 LINE",
"1012 727 LINE SMOOTH",
"1012 1020 OFFCURVE",
"912 1138 OFFCURVE",
"592 1138 CURVE SMOOTH",
"351 1138 OFFCURVE",
"148 1025 OFFCURVE",
"98 984 CURVE",
"167 840 LINE",
"231 868 OFFCURVE",
"351 924 OFFCURVE",
"508 924 CURVE SMOOTH",
"674 924 OFFCURVE",
"706 862 OFFCURVE",
"706 725 CURVE SMOOTH",
"706 687 LINE",
"327 684 OFFCURVE",
"56 563 OFFCURVE",
"56 320 CURVE SMOOTH",
"56 102 OFFCURVE",
"211 -22 OFFCURVE",
"395 -22 CURVE SMOOTH"
);
},
{
closed = 1;
nodes = (
"400 458 OFFCURVE",
"484 552 OFFCURVE",
"706 553 CURVE",
"706 234 LINE",
"664 194 OFFCURVE",
"598 161 OFFCURVE",
"549 161 CURVE SMOOTH",
"458 161 OFFCURVE",
"400 232 OFFCURVE",
"400 352 CURVE SMOOTH"
);
}
);
width = 1139;
}
);
leftKerningGroup = a;
rightKerningGroup = a;
unicode = 0105;
category = Letter;
subCategory = Lowercase;
},
{
glyphname = ae;
lastChange = "2019-04-05 05:20:29 +0000";
layers = (
{
anchors = (
{
name = bottom;
position = "{852, 0}";
},
{
name = top;
position = "{892, 1110}";
}
);
background = {
paths = (
{
closed = 1;
nodes = (
"928 940 OFFCURVE",
"1048 1038 OFFCURVE",
"1208 1038 CURVE SMOOTH",
"1386 1038 OFFCURVE",
"1456 914 OFFCURVE",
"1456 750 CURVE SMOOTH",
"1456 722 OFFCURVE",
"1454 690 OFFCURVE",
"1452 662 CURVE",
"910 662 LINE"
);
},
{
closed = 1;
nodes = (
"350 96 OFFCURVE",
"254 152 OFFCURVE",
"254 312 CURVE SMOOTH",
"254 462 OFFCURVE",
"414 578 OFFCURVE",
"736 580 CURVE",
"736 466 OFFCURVE",
"748 370 OFFCURVE",
"782 278 CURVE",
"734 196 OFFCURVE",
"610 96 OFFCURVE",
"470 96 CURVE SMOOTH"
);
}
);
};
layerId = UUID0;
paths = (
{
closed = 1;
nodes = (
"622 -22 OFFCURVE",
"762 112 OFFCURVE",
"824 198 CURVE",
"902 60 OFFCURVE",
"1034 -22 OFFCURVE",
"1220 -22 CURVE SMOOTH",
"1372 -22 OFFCURVE",
"1532 42 OFFCURVE",
"1608 120 CURVE",
"1576 194 LINE",
"1516 140 OFFCURVE",
"1384 92 OFFCURVE",
"1270 92 CURVE SMOOTH",
"1032 92 OFFCURVE",
"904 298 OFFCURVE",
"904 568 CURVE",
"1620 568 LINE",
"1630 612 OFFCURVE",
"1632 668 OFFCURVE",
"1632 744 CURVE",
"1622 1002 OFFCURVE",
"1484 1140 OFFCURVE",
"1248 1140 CURVE SMOOTH",
"1096 1140 OFFCURVE",
"944 1082 OFFCURVE",
"874 946 CURVE",
"828 1060 OFFCURVE",
"726 1132 OFFCURVE",
"544 1132 CURVE SMOOTH",
"364 1132 OFFCURVE",
"148 1024 OFFCURVE",
"100 978 CURVE",
"142 894 LINE",
"220 936 OFFCURVE",
"354 1008 OFFCURVE",
"506 1008 CURVE SMOOTH",
"706 1008 OFFCURVE",
"740 948 OFFCURVE",
"740 666 CURVE",
"422 660 OFFCURVE",
"76 570 OFFCURVE",
"76 292 CURVE SMOOTH",
"76 74 OFFCURVE",
"234 -22 OFFCURVE",
"412 -22 CURVE SMOOTH"
);
},
{
closed = 1;
nodes = (
"910 916 OFFCURVE",
"1048 1038 OFFCURVE",
"1208 1038 CURVE SMOOTH",
"1386 1038 OFFCURVE",
"1456 914 OFFCURVE",
"1456 750 CURVE SMOOTH",
"1456 722 OFFCURVE",
"1454 690 OFFCURVE",
"1452 662 CURVE",
"906 662 LINE"
);
},
{
closed = 1;
nodes = (
"350 96 OFFCURVE",
"254 152 OFFCURVE",
"254 312 CURVE SMOOTH",
"254 462 OFFCURVE",
"418 578 OFFCURVE",
"740 580 CURVE",
"740 466 OFFCURVE",
"752 370 OFFCURVE",
"786 278 CURVE",
"738 196 OFFCURVE",
"610 96 OFFCURVE",
"470 96 CURVE SMOOTH"
);
}
);
width = 1726;
},
{
anchors = (
{
name = bottom;
position = "{846, 0}";
},
{
name = top;
position = "{886, 1111}";
}
);
layerId = "DEBB1CE4-A72D-4960-969E-E04A036D2FA1";
paths = (
{
closed = 1;
nodes = (
"544 -22 OFFCURVE",
"685 59 OFFCURVE",
"765 195 CURVE",
"849 69 OFFCURVE",
"999 -22 OFFCURVE",
"1210 -22 CURVE SMOOTH",
"1397 -22 OFFCURVE",
"1581 75 OFFCURVE",
"1641 141 CURVE",
"1588 260 LINE",
"1526 223 OFFCURVE",
"1402 179 OFFCURVE",
"1294 179 CURVE SMOOTH",
"1121 179 OFFCURVE",
"1025 302 OFFCURVE",
"1010 528 CURVE",
"1639 528 LINE",
"1649 579 OFFCURVE",
"1654 643 OFFCURVE",
"1654 734 CURVE",
"1650 989 OFFCURVE",
"1503 1140 OFFCURVE",
"1218 1140 CURVE SMOOTH",
"1069 1140 OFFCURVE",
"956 1085 OFFCURVE",
"889 1001 CURVE",
"837 1098 OFFCURVE",
"730 1138 OFFCURVE",
"565 1138 CURVE SMOOTH",
"326 1138 OFFCURVE",
"127 1030 OFFCURVE",
"73 982 CURVE",
"142 838 LINE",
"223 871 OFFCURVE",
"324 924 OFFCURVE",
"478 924 CURVE SMOOTH",
"653 924 OFFCURVE",
"694 871 OFFCURVE",
"694 687 CURVE",
"290 684 OFFCURVE",
"39 555 OFFCURVE",
"39 305 CURVE SMOOTH",
"39 87 OFFCURVE",
"187 -22 OFFCURVE",
"369 -22 CURVE SMOOTH"
);
},
{
closed = 1;
nodes = (
"1010 935 OFFCURVE",
"1083 1001 OFFCURVE",
"1186 1001 CURVE SMOOTH",
"1299 1001 OFFCURVE",
"1333 898 OFFCURVE",
"1333 744 CURVE SMOOTH",
"1333 723 OFFCURVE",
"1333 681 OFFCURVE",
"1331 661 CURVE",
"1008 661 LINE"
);
},
{
closed = 1;
nodes = (
"433 165 OFFCURVE",
"378 239 OFFCURVE",
"378 350 CURVE SMOOTH",
"378 453 OFFCURVE",
"473 556 OFFCURVE",
"688 559 CURVE",
"688 454 OFFCURVE",
"696 355 OFFCURVE",
"717 290 CURVE",
"673 214 OFFCURVE",
"606 165 OFFCURVE",
"516 165 CURVE SMOOTH"
);
}
);
width = 1717;
}
);
leftKerningGroup = a;
leftMetricsKey = a;
rightKerningGroup = e;
rightMetricsKey = e;
unicode = 00E6;
category = Letter;
subCategory = Lowercase;
},
{
glyphname = b;
lastChange = "2019-04-05 05:20:29 +0000";
layers = (
{
anchors = (
{
name = bottom;
position = "{544, 0}";
},
{
name = mark0;
position = "{594, -166}";
},
{
name = top;
position = "{728, 1110}";
}
);
layerId = UUID0;
paths = (
{
closed = 1;
nodes = (
"172 1512 LINE",
"172 54 LINE",
"198 28 OFFCURVE",
"362 -22 OFFCURVE",
"544 -22 CURVE SMOOTH",
"894 -22 OFFCURVE",
"1114 254 OFFCURVE",
"1114 596 CURVE SMOOTH",
"1114 980 OFFCURVE",
"900 1140 OFFCURVE",
"676 1140 CURVE SMOOTH",
"520 1140 OFFCURVE",
"404 1068 OFFCURVE",
"334 1002 CURVE",
"334 1610 LINE",
"296 1638 LINE",
"292 1638 LINE",
"0 1604 LINE",
"0 1530 LINE"
);
},
{
closed = 1;
nodes = (
"788 1018 OFFCURVE",
"942 886 OFFCURVE",
"938 568 CURVE SMOOTH",
"932 236 OFFCURVE",
"774 80 OFFCURVE",
"558 80 CURVE SMOOTH",
"458 80 OFFCURVE",
"354 104 OFFCURVE",
"334 150 CURVE",
"334 890 LINE",
"380 940 OFFCURVE",
"484 1018 OFFCURVE",
"610 1018 CURVE SMOOTH"
);
}
);
width = 1206;
},
{
anchors = (
{
name = bottom;
position = "{584, -3}";
},
{
name = mark0;
position = "{548, -166}";
},
{
name = top;
position = "{834, 1111}";
}
);
layerId = "DEBB1CE4-A72D-4960-969E-E04A036D2FA1";
paths = (
{
closed = 1;
nodes = (
"145 1450 LINE",
"145 54 LINE",
"173 35 OFFCURVE",
"322 -22 OFFCURVE",
"585 -22 CURVE SMOOTH",
"959 -22 OFFCURVE",
"1186 245 OFFCURVE",
"1186 592 CURVE SMOOTH",
"1186 984 OFFCURVE",
"995 1140 OFFCURVE",
"756 1140 CURVE SMOOTH",
"631 1140 OFFCURVE",
"527 1080 OFFCURVE",
"466 1017 CURVE",
"466 1600 LINE",
"401 1639 LINE",
"397 1639 LINE",
"3 1592 LINE",
"3 1477 LINE"
);
},
{
closed = 1;
nodes = (
"754 944 OFFCURVE",
"842 837 OFFCURVE",
"839 558 CURVE SMOOTH",
"836 248 OFFCURVE",
"737 102 OFFCURVE",
"595 102 CURVE SMOOTH",
"532 102 OFFCURVE",
"478 120 OFFCURVE",
"466 146 CURVE",
"466 869 LINE",
"497 905 OFFCURVE",
"559 944 OFFCURVE",
"632 944 CURVE SMOOTH"
);
}
);
width = 1252;
}
);
leftKerningGroup = b;
rightKerningGroup = o;
unicode = 0062;
category = Letter;
subCategory = Lowercase;
},
{
glyphname = c;
lastChange = "2019-04-05 05:20:29 +0000";
layers = (
{
anchors = (
{
name = bottom;
position = "{518, 0}";
},
{
name = mark0;
position = "{562, -166}";
},
{
name = top;
position = "{578, 1110}";
}
);
layerId = UUID0;
paths = (
{
closed = 1;
nodes = (
"78 226 OFFCURVE",
"248 -22 OFFCURVE",
"572 -22 CURVE SMOOTH",
"710 -22 OFFCURVE",
"860 46 OFFCURVE",
"934 120 CURVE",
"902 186 LINE",
"842 144 OFFCURVE",
"730 94 OFFCURVE",
"608 94 CURVE SMOOTH",
"404 94 OFFCURVE",
"246 256 OFFCURVE",
"248 604 CURVE SMOOTH",
"250 878 OFFCURVE",
"384 1046 OFFCURVE",
"590 1046 CURVE SMOOTH",
"672 1046 OFFCURVE",
"752 1034 OFFCURVE",
"762 986 CURVE SMOOTH",
"804 794 LINE",
"904 794 LINE",
"912 1080 LINE",
"860 1102 OFFCURVE",
"748 1140 OFFCURVE",
"632 1140 CURVE SMOOTH",
"256 1140 OFFCURVE",
"74 858 OFFCURVE",
"76 542 CURVE SMOOTH"
);
}
);
width = 1038;
},
{
anchors = (
{
name = bottom;
position = "{558, 0}";
},
{
name = mark0;
position = "{575, -166}";
},
{
name = top;
position = "{574, 1111}";
}
);
layerId = "DEBB1CE4-A72D-4960-969E-E04A036D2FA1";
paths = (
{
closed = 1;
nodes = (
"53 220 OFFCURVE",
"208 -22 OFFCURVE",
"575 -22 CURVE SMOOTH",
"774 -22 OFFCURVE",
"926 79 OFFCURVE",
"975 133 CURVE",
"923 251 LINE",
"860 213 OFFCURVE",
"773 175 OFFCURVE",
"649 175 CURVE SMOOTH",
"499 175 OFFCURVE",
"401 321 OFFCURVE",
"402 607 CURVE SMOOTH",
"404 902 OFFCURVE",
"486 996 OFFCURVE",
"602 996 CURVE SMOOTH",
"645 996 OFFCURVE",
"691 984 OFFCURVE",
"700 948 CURVE SMOOTH",
"752 717 LINE",
"954 717 LINE",
"968 1080 LINE",
"903 1089 OFFCURVE",
"812 1140 OFFCURVE",
"626 1140 CURVE SMOOTH",
"283 1140 OFFCURVE",
"52 907 OFFCURVE",
"52 548 CURVE SMOOTH"
);
}
);
width = 1050;
}
);
leftKerningGroup = o;
leftMetricsKey = o;
rightKerningGroup = c;
unicode = 0063;
category = Letter;
subCategory = Lowercase;
},
{
glyphname = ccedilla;
lastChange = "2019-04-05 05:20:29 +0000";
layers = (
{
anchors = (
{
name = _bottom;
position = "{510, 0}";
},
{
name = bottom;
position = "{510, 0}";
},
{
name = mark0;
position = "{554, -166}";
},
{
name = top;
position = "{570, 1110}";
}
);
layerId = UUID0;
paths = (
{
closed = 1;
nodes = (
"70 255 OFFCURVE",
"210 25 OFFCURVE",
"478 -16 CURVE",
"500 -53 OFFCURVE",
"536 -129 OFFCURVE",
"536 -200 CURVE SMOOTH",
"536 -322 OFFCURVE",
"482 -342 OFFCURVE",
"384 -342 CURVE SMOOTH",
"364 -342 OFFCURVE",
"320 -336 OFFCURVE",
"292 -326 CURVE",
"290 -444 LINE",
"326 -458 OFFCURVE",
"386 -470 OFFCURVE",
"432 -470 CURVE SMOOTH",
"582 -470 OFFCURVE",
"670 -422 OFFCURVE",
"676 -286 CURVE SMOOTH",
"681 -179 OFFCURVE",
"616 -74 OFFCURVE",
"571 -22 CURVE",
"707 -20 OFFCURVE",
"853 47 OFFCURVE",
"926 120 CURVE",
"894 186 LINE",
"834 144 OFFCURVE",
"722 94 OFFCURVE",
"600 94 CURVE SMOOTH",
"396 94 OFFCURVE",
"238 256 OFFCURVE",
"240 604 CURVE SMOOTH",
"242 878 OFFCURVE",
"376 1046 OFFCURVE",
"582 1046 CURVE SMOOTH",
"664 1046 OFFCURVE",
"744 1034 OFFCURVE",
"754 986 CURVE SMOOTH",
"796 794 LINE",
"896 794 LINE",
"904 1080 LINE",
"852 1102 OFFCURVE",
"740 1140 OFFCURVE",
"624 1140 CURVE SMOOTH",
"248 1140 OFFCURVE",
"66 858 OFFCURVE",
"68 542 CURVE SMOOTH"
);
}
);
width = 1018;
},
{
anchors = (
{
name = _bottom;
position = "{568, 0}";
},
{
name = bottom;
position = "{568, 0}";
},
{
name = mark0;
position = "{585, -166}";
},
{
name = top;
position = "{583, 1111}";
}
);
layerId = "DEBB1CE4-A72D-4960-969E-E04A036D2FA1";
paths = (
{
closed = 1;
nodes = (
"63 242 OFFCURVE",
"197 12 OFFCURVE",
"514 -19 CURVE",
"535 -55 OFFCURVE",
"563 -118 OFFCURVE",
"563 -175 CURVE SMOOTH",
"563 -298 OFFCURVE",
"515 -312 OFFCURVE",
"424 -312 CURVE SMOOTH",
"408 -312 OFFCURVE",
"369 -308 OFFCURVE",
"341 -299 CURVE",
"340 -484 LINE",
"375 -499 OFFCURVE",
"436 -513 OFFCURVE",
"482 -513 CURVE SMOOTH",
"666 -513 OFFCURVE",
"772 -460 OFFCURVE",
"781 -289 CURVE SMOOTH",
"787 -172 OFFCURVE",
"713 -67 OFFCURVE",
"664 -16 CURVE",
"820 5 OFFCURVE",
"941 85 OFFCURVE",
"985 133 CURVE",
"932 251 LINE",
"869 213 OFFCURVE",
"783 175 OFFCURVE",
"659 175 CURVE SMOOTH",
"508 175 OFFCURVE",
"411 321 OFFCURVE",
"411 607 CURVE SMOOTH",
"413 902 OFFCURVE",
"496 996 OFFCURVE",
"612 996 CURVE SMOOTH",
"655 996 OFFCURVE",
"701 984 OFFCURVE",
"710 948 CURVE SMOOTH",
"762 717 LINE",
"964 717 LINE",
"978 1080 LINE",
"913 1089 OFFCURVE",
"821 1140 OFFCURVE",
"636 1140 CURVE SMOOTH",
"292 1140 OFFCURVE",
"62 907 OFFCURVE",
"62 548 CURVE SMOOTH"
);
}
);
width = 1046;
}
);
leftKerningGroup = o;
rightKerningGroup = c;
unicode = 00E7;
category = Letter;
subCategory = Lowercase;
},
{
glyphname = d;
lastChange = "2019-04-05 05:20:29 +0000";
layers = (
{
anchors = (
{
name = bottom;
position = "{598, 0}";
},
{
name = center;
position = "{598, 556}";
},
{
name = mark0;
position = "{554, -166}";
},
{
name = top;
position = "{338, 1088}";
},
{
name = topright;
position = "{1168, 1110}";
}
);
layerId = UUID0;
paths = (
{
closed = 1;
nodes = (
"672 -22 OFFCURVE",
"792 60 OFFCURVE",
"862 138 CURVE",
"862 68 LINE SMOOTH",
"862 -10 OFFCURVE",
"892 -18 OFFCURVE",
"946 -18 CURVE SMOOTH",
"1022 -18 OFFCURVE",
"1086 0 OFFCURVE",
"1138 12 CURVE",
"1138 90 LINE",
"1016 90 LINE",
"1016 1610 LINE",
"978 1638 LINE",
"974 1638 LINE",
"646 1604 LINE",
"646 1532 LINE",
"854 1512 LINE",
"854 1116 LINE",
"794 1130 OFFCURVE",
"720 1140 OFFCURVE",
"642 1140 CURVE SMOOTH",
"290 1140 OFFCURVE",
"72 870 OFFCURVE",
"72 528 CURVE SMOOTH",
"72 152 OFFCURVE",
"282 -22 OFFCURVE",
"510 -22 CURVE SMOOTH"
);
},
{
closed = 1;
nodes = (
"398 104 OFFCURVE",
"244 232 OFFCURVE",
"248 556 CURVE SMOOTH",
"252 896 OFFCURVE",
"414 1040 OFFCURVE",
"628 1040 CURVE SMOOTH",
"730 1040 OFFCURVE",
"832 1008 OFFCURVE",
"854 972 CURVE",
"854 236 LINE",
"810 178 OFFCURVE",
"702 104 OFFCURVE",
"576 104 CURVE SMOOTH"
);
}
);
width = 1216;
},
{
anchors = (
{
name = bottom;
position = "{625, 0}";
},
{
name = center;
position = "{625, 556}";
},
{
name = mark0;
position = "{554, -166}";
},
{
name = top;
position = "{246, 1047}";
},
{
name = topright;
position = "{1249, 1111}";
}
);
layerId = "DEBB1CE4-A72D-4960-969E-E04A036D2FA1";
paths = (
{
closed = 1;
nodes = (
"622 -22 OFFCURVE",
"754 44 OFFCURVE",
"818 138 CURVE",
"818 87 LINE SMOOTH",
"818 -6 OFFCURVE",
"861 -24 OFFCURVE",
"949 -24 CURVE SMOOTH",
"1034 -24 OFFCURVE",
"1144 -6 OFFCURVE",
"1204 6 CURVE",
"1204 134 LINE",
"1102 134 LINE",
"1102 1592 LINE",
"1040 1639 LINE",
"1032 1639 LINE",
"588 1600 LINE",
"588 1473 LINE",
"780 1444 LINE",
"780 1126 LINE",
"745 1134 OFFCURVE",
"704 1140 OFFCURVE",
"661 1140 CURVE SMOOTH",
"262 1140 OFFCURVE",
"60 852 OFFCURVE",
"60 529 CURVE SMOOTH",
"60 142 OFFCURVE",
"254 -22 OFFCURVE",
"494 -22 CURVE SMOOTH"
);
},
{
closed = 1;
nodes = (
"493 159 OFFCURVE",
"404 276 OFFCURVE",
"406 563 CURVE SMOOTH",
"409 893 OFFCURVE",
"517 1002 OFFCURVE",
"652 1002 CURVE SMOOTH",
"709 1002 OFFCURVE",
"763 983 OFFCURVE",
"780 960 CURVE",
"780 236 LINE",
"751 199 OFFCURVE",
"695 159 OFFCURVE",
"613 159 CURVE SMOOTH"
);
}
);
width = 1253;
}
);
leftKerningGroup = d;
rightKerningGroup = d;
unicode = 0064;
category = Letter;
subCategory = Lowercase;
},
{
glyphname = eth;
lastChange = "2019-04-05 05:20:29 +0000";
layers = (
{
layerId = UUID0;
paths = (
{
closed = 1;
nodes = (
"930 -22 OFFCURVE",
"1062 370 OFFCURVE",
"1062 646 CURVE SMOOTH",
"1062 1084 OFFCURVE",
"870 1408 OFFCURVE",
"530 1622 CURVE",
"546 1546 LINE",
"726 1720 LINE",
"646 1784 LINE",
"460 1598 LINE",
"532 1622 LINE",
"424 1682 OFFCURVE",
"320 1716 OFFCURVE",
"194 1756 CURVE",
"160 1668 LINE",
"232 1648 OFFCURVE",
"390 1588 OFFCURVE",
"452 1536 CURVE",
"472 1622 LINE",
"270 1428 LINE",
"358 1368 LINE",
"556 1566 LINE",
"450 1534 LINE",
"638 1432 OFFCURVE",
"744 1254 OFFCURVE",
"812 1096 CURVE",
"764 1120 OFFCURVE",
"680 1140 OFFCURVE",
"596 1140 CURVE SMOOTH",
"330 1140 OFFCURVE",
"84 932 OFFCURVE",
"84 518 CURVE SMOOTH",
"84 248 OFFCURVE",
"234 -22 OFFCURVE",
"578 -22 CURVE SMOOTH"
);
},
{
closed = 1;
nodes = (
"344 74 OFFCURVE",
"262 332 OFFCURVE",
"262 530 CURVE SMOOTH",
"262 856 OFFCURVE",
"396 1052 OFFCURVE",
"592 1052 CURVE SMOOTH",
"728 1052 OFFCURVE",
"812 1002 OFFCURVE",
"840 972 CURVE",
"856 922 OFFCURVE",
"884 790 OFFCURVE",
"884 634 CURVE SMOOTH",
"884 344 OFFCURVE",
"794 74 OFFCURVE",
"582 74 CURVE SMOOTH"
);
}
);
width = 1144;
},
{
layerId = "DEBB1CE4-A72D-4960-969E-E04A036D2FA1";
paths = (
{
closed = 1;
nodes = (
"1019 -22 OFFCURVE",
"1149 352 OFFCURVE",
"1149 662 CURVE SMOOTH",
"1149 1142 OFFCURVE",
"870 1469 OFFCURVE",
"564 1650 CURVE",
"534 1478 LINE",
"787 1727 LINE",
"673 1828 LINE",
"407 1563 LINE",
"632 1609 LINE",
"462 1717 OFFCURVE",
"332 1747 OFFCURVE",
"229 1772 CURVE",
"173 1635 LINE",
"242 1618 OFFCURVE",
"390 1547 OFFCURVE",
"493 1462 CURVE",
"505 1652 LINE",
"239 1390 LINE",
"361 1291 LINE",
"620 1559 LINE",
"419 1506 LINE",
"592 1411 OFFCURVE",
"713 1282 OFFCURVE",
"762 1108 CURVE",
"720 1126 OFFCURVE",
"656 1140 OFFCURVE",
"578 1140 CURVE SMOOTH",
"323 1140 OFFCURVE",
"65 950 OFFCURVE",
"65 536 CURVE SMOOTH",
"65 214 OFFCURVE",
"250 -22 OFFCURVE",
"597 -22 CURVE SMOOTH"
);
},
{
closed = 1;
nodes = (
"470 120 OFFCURVE",
"420 351 OFFCURVE",
"420 570 CURVE SMOOTH",
"420 880 OFFCURVE",
"494 1006 OFFCURVE",
"614 1006 CURVE SMOOTH",
"698 1006 OFFCURVE",
"762 969 OFFCURVE",
"779 953 CURVE",
"794 903 OFFCURVE",
"807 765 OFFCURVE",
"807 616 CURVE SMOOTH",
"807 270 OFFCURVE",
"738 120 OFFCURVE",
"613 120 CURVE SMOOTH"
);
}
);
width = 1208;
}
);
leftKerningGroup = eth;
rightKerningGroup = eth;
unicode = 00F0;
category = Letter;
subCategory = Lowercase;
},
{
color = 11;
glyphname = dcaron;
lastChange = "2019-04-05 05:20:30 +0000";
layers = (
{
anchors = (
{
name = mark0;
position = "{574, -166}";
}
);
components = (
{
name = d;
},
{
name = caroncomb.alt;
transform = "{1, 0, 0, 1, 1104, -2}";
}
);
layerId = UUID0;
width = 1216;
},
{
anchors = (
{
name = mark0;
position = "{574, -166}";
}
);
associatedMasterId = UUID0;
layerId = "CDD73CC2-1634-49EF-9DBD-A2A7EA9972F4";
name = "Oct 13 16, 15:31";
paths = (
{
closed = 1;
nodes = (
"692 -22 OFFCURVE",
"812 60 OFFCURVE",
"882 138 CURVE",
"882 68 LINE SMOOTH",
"882 -10 OFFCURVE",
"912 -18 OFFCURVE",
"966 -18 CURVE SMOOTH",
"1042 -18 OFFCURVE",
"1106 0 OFFCURVE",
"1158 12 CURVE",
"1158 90 LINE",
"1036 90 LINE",
"1036 1610 LINE",
"998 1638 LINE",
"994 1638 LINE",
"666 1604 LINE",
"666 1532 LINE",
"874 1512 LINE",
"874 1116 LINE",
"814 1130 OFFCURVE",
"740 1140 OFFCURVE",
"662 1140 CURVE SMOOTH",
"310 1140 OFFCURVE",
"92 870 OFFCURVE",
"92 528 CURVE SMOOTH",
"92 152 OFFCURVE",
"302 -22 OFFCURVE",
"530 -22 CURVE SMOOTH"
);
},
{
closed = 1;
nodes = (
"418 104 OFFCURVE",
"264 232 OFFCURVE",
"268 556 CURVE SMOOTH",
"272 896 OFFCURVE",
"434 1040 OFFCURVE",
"648 1040 CURVE SMOOTH",
"750 1040 OFFCURVE",
"852 1008 OFFCURVE",
"874 972 CURVE",
"874 236 LINE",
"830 178 OFFCURVE",
"722 104 OFFCURVE",
"596 104 CURVE SMOOTH"
);
},
{
closed = 1;
nodes = (
"1386 1082 OFFCURVE",
"1438 1248 OFFCURVE",
"1438 1404 CURVE SMOOTH",
"1438 1498 OFFCURVE",
"1416 1600 OFFCURVE",
"1380 1638 CURVE",
"1252 1610 LINE",
"1242 1576 LINE",
"1266 1542 OFFCURVE",
"1292 1430 OFFCURVE",
"1292 1320 CURVE SMOOTH",
"1292 1246 OFFCURVE",
"1278 1150 OFFCURVE",
"1252 1070 CURVE",
"1254 1048 LINE",
"1324 1020 LINE"
);
}
);
width = 1404;
},
{
anchors = (
{
name = mark0;
position = "{559, -166}";
}
);
components = (
{
name = d;
},
{
name = caroncomb.alt;
transform = "{1, 0, 0, 1, 1154, -1}";
}
);
layerId = "DEBB1CE4-A72D-4960-969E-E04A036D2FA1";
width = 1253;
}
);
leftKerningGroup = d;
rightKerningGroup = dcaron;
unicode = 010F;
category = Letter;
subCategory = Lowercase;
},
{
color = 11;
glyphname = dcroat;
lastChange = "2019-04-05 05:20:29 +0000";
layers = (
{
layerId = UUID0;
paths = (
{
closed = 1;
nodes = (
"592 1376 LINE",
"592 1280 LINE",
"854 1280 LINE",
"854 1116 LINE",
"794 1130 OFFCURVE",
"720 1140 OFFCURVE",
"642 1140 CURVE SMOOTH",
"290 1140 OFFCURVE",
"72 870 OFFCURVE",
"72 528 CURVE SMOOTH",
"72 152 OFFCURVE",
"282 -22 OFFCURVE",
"510 -22 CURVE SMOOTH",
"672 -22 OFFCURVE",
"792 60 OFFCURVE",
"862 138 CURVE",
"862 68 LINE SMOOTH",
"862 -10 OFFCURVE",
"892 -18 OFFCURVE",
"946 -18 CURVE SMOOTH",
"1024 -18 OFFCURVE",
"1086 0 OFFCURVE",
"1138 12 CURVE",
"1138 90 LINE",
"1016 90 LINE",
"1016 1280 LINE",
"1162 1280 LINE",
"1162 1376 LINE",
"1016 1376 LINE",
"1016 1610 LINE",
"978 1638 LINE",
"974 1638 LINE",
"646 1604 LINE",
"646 1532 LINE",
"854 1512 LINE",
"854 1376 LINE"
);
},
{
closed = 1;
nodes = (
"398 104 OFFCURVE",
"244 232 OFFCURVE",
"248 556 CURVE SMOOTH",
"252 896 OFFCURVE",
"414 1040 OFFCURVE",
"628 1040 CURVE SMOOTH",
"730 1040 OFFCURVE",
"832 1008 OFFCURVE",
"854 972 CURVE",
"854 236 LINE",
"810 178 OFFCURVE",
"702 104 OFFCURVE",
"576 104 CURVE SMOOTH"
);
}
);
width = 1218;
},
{
layerId = "DEBB1CE4-A72D-4960-969E-E04A036D2FA1";
paths = (
{
closed = 1;
nodes = (
"515 1363 LINE",
"515 1234 LINE",
"779 1234 LINE",
"779 1126 LINE",
"744 1134 OFFCURVE",
"702 1140 OFFCURVE",
"661 1140 CURVE SMOOTH",
"262 1140 OFFCURVE",
"60 852 OFFCURVE",
"60 529 CURVE SMOOTH",
"60 142 OFFCURVE",
"252 -22 OFFCURVE",
"494 -22 CURVE SMOOTH",
"622 -22 OFFCURVE",
"752 44 OFFCURVE",
"816 138 CURVE",
"816 87 LINE SMOOTH",
"816 -6 OFFCURVE",
"859 -24 OFFCURVE",
"949 -24 CURVE SMOOTH",
"1033 -24 OFFCURVE",
"1142 -6 OFFCURVE",
"1204 6 CURVE",
"1204 134 LINE",
"1100 134 LINE",
"1100 1234 LINE",
"1242 1234 LINE",
"1242 1363 LINE",
"1100 1363 LINE",
"1100 1592 LINE",
"1039 1639 LINE",
"1030 1639 LINE",
"587 1600 LINE",
"587 1473 LINE",
"779 1444 LINE",
"779 1363 LINE"
);
},
{
closed = 1;
nodes = (
"493 159 OFFCURVE",
"404 276 OFFCURVE",
"406 563 CURVE SMOOTH",
"409 893 OFFCURVE",
"517 1002 OFFCURVE",
"650 1002 CURVE SMOOTH",
"709 1002 OFFCURVE",
"763 983 OFFCURVE",
"779 960 CURVE",
"779 236 LINE",
"751 199 OFFCURVE",
"693 159 OFFCURVE",
"613 159 CURVE SMOOTH"
);
}
);
width = 1253;
}
);
leftKerningGroup = d;
leftMetricsKey = d;
rightKerningGroup = d;
unicode = 0111;
category = Letter;
subCategory = Lowercase;
},
{
glyphname = e;
lastChange = "2019-04-05 05:20:29 +0000";
layers = (
{
anchors = (
{
name = bottom;
position = "{526, 0}";
},
{
name = mark0;
position = "{580, -166}";
},
{
name = ogonek;
position = "{678, 20}";
},
{
name = top;
position = "{568, 1110}";
}
);
layerId = UUID0;
paths = (
{
closed = 1;
nodes = (
"716 -22 OFFCURVE",
"878 42 OFFCURVE",
"954 120 CURVE",
"922 194 LINE",
"860 140 OFFCURVE",
"728 92 OFFCURVE",
"614 92 CURVE SMOOTH",
"376 92 OFFCURVE",
"252 298 OFFCURVE",
"252 568 CURVE",
"964 568 LINE",
"974 612 OFFCURVE",
"976 668 OFFCURVE",
"976 744 CURVE",
"966 1002 OFFCURVE",
"828 1140 OFFCURVE",
"592 1140 CURVE SMOOTH",
"298 1140 OFFCURVE",
"80 904 OFFCURVE",
"80 560 CURVE SMOOTH",
"80 218 OFFCURVE",
"246 -22 OFFCURVE",
"562 -22 CURVE SMOOTH"
);
},
{
closed = 1;
nodes = (
"272 940 OFFCURVE",
"392 1038 OFFCURVE",
"552 1038 CURVE SMOOTH",
"730 1038 OFFCURVE",
"800 914 OFFCURVE",
"802 750 CURVE SMOOTH",
"802 722 OFFCURVE",
"800 690 OFFCURVE",
"796 662 CURVE",
"254 662 LINE"
);
}
);
width = 1070;
},
{
anchors = (
{
name = bottom;
position = "{551, 0}";
},
{
name = mark0;
position = "{552, -166}";
},
{
name = ogonek;
position = "{694, 20}";
},
{
name = top;
position = "{593, 1111}";
}
);
layerId = "DEBB1CE4-A72D-4960-969E-E04A036D2FA1";
paths = (
{
closed = 1;
nodes = (
"785 -22 OFFCURVE",
"968 75 OFFCURVE",
"1028 141 CURVE",
"972 262 LINE",
"912 224 OFFCURVE",
"792 179 OFFCURVE",
"686 179 CURVE SMOOTH",
"508 179 OFFCURVE",
"412 302 OFFCURVE",
"398 528 CURVE",
"1025 528 LINE",
"1036 579 OFFCURVE",
"1042 643 OFFCURVE",
"1042 734 CURVE",
"1037 989 OFFCURVE",
"890 1140 OFFCURVE",
"607 1140 CURVE SMOOTH",
"276 1140 OFFCURVE",
"59 926 OFFCURVE",
"59 556 CURVE SMOOTH",
"59 217 OFFCURVE",
"213 -22 OFFCURVE",
"596 -22 CURVE SMOOTH"
);
},
{
closed = 1;
nodes = (
"402 940 OFFCURVE",
"475 1001 OFFCURVE",
"577 1001 CURVE SMOOTH",
"690 1001 OFFCURVE",
"726 901 OFFCURVE",
"727 744 CURVE SMOOTH",
"727 716 OFFCURVE",
"725 689 OFFCURVE",
"724 661 CURVE",
"396 661 LINE"
);
}
);
width = 1105;
}
);
leftKerningGroup = o;
rightKerningGroup = e;
unicode = 0065;
category = Letter;
subCategory = Lowercase;
},
{
glyphname = ecedilla;
lastChange = "2019-04-05 05:20:29 +0000";
layers = (
{
anchors = (
{
name = _bottom;
position = "{526, 0}";
},
{
name = bottom;
position = "{526, 0}";
},
{
name = mark0;
position = "{580, -166}";
},
{
name = ogonek;
position = "{678, 20}";
},
{
name = top;
position = "{582, 1110}";
}
);
layerId = UUID0;
paths = (
{
closed = 1;
nodes = (
"80 242 OFFCURVE",
"222 14 OFFCURVE",
"496 -18 CURVE",
"518 -56 OFFCURVE",
"552 -130 OFFCURVE",
"552 -200 CURVE SMOOTH",
"552 -322 OFFCURVE",
"498 -342 OFFCURVE",
"400 -342 CURVE SMOOTH",
"380 -342 OFFCURVE",
"332 -336 OFFCURVE",
"304 -326 CURVE",
"306 -444 LINE",
"342 -458 OFFCURVE",
"402 -470 OFFCURVE",
"448 -470 CURVE SMOOTH",
"598 -470 OFFCURVE",
"686 -422 OFFCURVE",
"692 -286 CURVE SMOOTH",
"698 -178 OFFCURVE",
"632 -74 OFFCURVE",
"586 -22 CURVE",
"734 -16 OFFCURVE",
"882 46 OFFCURVE",
"954 120 CURVE",
"922 194 LINE",
"860 140 OFFCURVE",
"728 92 OFFCURVE",
"614 92 CURVE SMOOTH",
"376 92 OFFCURVE",
"252 298 OFFCURVE",
"252 568 CURVE",
"964 568 LINE",
"974 612 OFFCURVE",
"976 668 OFFCURVE",
"976 744 CURVE",
"966 1002 OFFCURVE",
"828 1140 OFFCURVE",
"592 1140 CURVE SMOOTH",
"298 1140 OFFCURVE",
"80 904 OFFCURVE",
"80 560 CURVE SMOOTH"
);
},
{
closed = 1;
nodes = (
"272 940 OFFCURVE",
"392 1038 OFFCURVE",
"552 1038 CURVE SMOOTH",
"730 1038 OFFCURVE",
"800 914 OFFCURVE",
"802 750 CURVE SMOOTH",
"802 722 OFFCURVE",
"800 690 OFFCURVE",
"796 662 CURVE",
"254 662 LINE"
);
}
);
width = 1070;
},
{
anchors = (
{
name = _bottom;
position = "{551, 0}";
},
{
name = bottom;
position = "{551, 0}";
},
{
name = mark0;
position = "{552, -166}";
},
{
name = ogonek;
position = "{694, 20}";
},
{
name = top;
position = "{576, 1111}";
}
);
layerId = "DEBB1CE4-A72D-4960-969E-E04A036D2FA1";
paths = (
{
closed = 1;
nodes = (
"59 247 OFFCURVE",
"187 23 OFFCURVE",
"496 -16 CURVE",
"518 -53 OFFCURVE",
"546 -117 OFFCURVE",
"546 -175 CURVE SMOOTH",
"546 -298 OFFCURVE",
"498 -312 OFFCURVE",
"407 -312 CURVE SMOOTH",
"392 -312 OFFCURVE",
"351 -308 OFFCURVE",
"323 -299 CURVE",
"324 -484 LINE",
"358 -499 OFFCURVE",
"420 -513 OFFCURVE",
"466 -513 CURVE SMOOTH",
"650 -513 OFFCURVE",
"755 -460 OFFCURVE",
"764 -289 CURVE SMOOTH",
"771 -175 OFFCURVE",
"700 -72 OFFCURVE",
"650 -19 CURVE",
"819 -3 OFFCURVE",
"974 81 OFFCURVE",
"1028 141 CURVE",
"972 262 LINE",
"912 224 OFFCURVE",
"792 179 OFFCURVE",
"686 179 CURVE SMOOTH",
"508 179 OFFCURVE",
"412 302 OFFCURVE",
"398 528 CURVE",
"1025 528 LINE",
"1036 579 OFFCURVE",
"1042 643 OFFCURVE",
"1042 734 CURVE",
"1037 989 OFFCURVE",
"890 1140 OFFCURVE",
"607 1140 CURVE SMOOTH",
"276 1140 OFFCURVE",
"59 926 OFFCURVE",
"59 556 CURVE SMOOTH"
);
},
{
closed = 1;
nodes = (
"402 940 OFFCURVE",
"475 1001 OFFCURVE",
"577 1001 CURVE SMOOTH",
"690 1001 OFFCURVE",
"726 901 OFFCURVE",
"727 744 CURVE SMOOTH",
"727 716 OFFCURVE",
"725 689 OFFCURVE",
"724 661 CURVE",
"396 661 LINE"
);
}
);
width = 1105;
}
);
leftKerningGroup = o;
leftMetricsKey = e;
rightKerningGroup = e;
rightMetricsKey = e;
unicode = 0229;
category = Letter;
subCategory = Lowercase;
},
{
glyphname = eogonek;
lastChange = "2019-04-05 05:20:29 +0000";
layers = (
{
anchors = (
{
name = _ogonek;
position = "{678, 20}";
},
{
name = bottom;
position = "{526, 0}";
},
{
name = mark0;
position = "{580, -166}";
},
{
name = ogonek;
position = "{678, 20}";
},
{
name = top;
position = "{590, 1110}";
}
);
layerId = UUID0;
paths = (
{
closed = 1;
nodes = (
"722 -486 OFFCURVE",
"798 -428 OFFCURVE",
"848 -394 CURVE",
"846 -304 LINE",
"812 -324 OFFCURVE",
"724 -382 OFFCURVE",
"632 -382 CURVE SMOOTH",
"538 -382 OFFCURVE",
"486 -350 OFFCURVE",
"486 -254 CURVE SMOOTH",
"486 -168 OFFCURVE",
"636 -38 OFFCURVE",
"756 10 CURVE",
"838 36 OFFCURVE",
"910 76 OFFCURVE",
"954 120 CURVE",
"922 194 LINE",
"860 140 OFFCURVE",
"728 92 OFFCURVE",
"614 92 CURVE SMOOTH",
"376 92 OFFCURVE",
"252 298 OFFCURVE",
"252 568 CURVE",
"964 568 LINE",
"974 612 OFFCURVE",
"976 668 OFFCURVE",
"976 744 CURVE",
"966 1002 OFFCURVE",
"828 1140 OFFCURVE",
"592 1140 CURVE SMOOTH",
"298 1140 OFFCURVE",
"80 904 OFFCURVE",
"80 560 CURVE SMOOTH",
"80 218 OFFCURVE",
"246 -22 OFFCURVE",
"562 -22 CURVE",
"444 -92 OFFCURVE",
"336 -182 OFFCURVE",
"336 -300 CURVE SMOOTH",
"336 -428 OFFCURVE",
"448 -486 OFFCURVE",
"560 -486 CURVE SMOOTH"
);
},
{
closed = 1;
nodes = (
"272 940 OFFCURVE",
"392 1038 OFFCURVE",
"552 1038 CURVE SMOOTH",
"730 1038 OFFCURVE",
"800 914 OFFCURVE",
"802 750 CURVE SMOOTH",
"802 722 OFFCURVE",
"800 690 OFFCURVE",
"796 662 CURVE",
"254 662 LINE"
);
}
);
width = 1070;
},
{
anchors = (
{
name = _ogonek;
position = "{694, 20}";
},
{
name = bottom;
position = "{551, 0}";
},
{
name = mark0;
position = "{552, -166}";
},
{
name = ogonek;
position = "{694, 20}";
},
{
name = top;
position = "{578, 1111}";
}
);
layerId = "DEBB1CE4-A72D-4960-969E-E04A036D2FA1";
paths = (
{
closed = 1;
nodes = (
"715 -483 OFFCURVE",
"819 -446 OFFCURVE",
"892 -391 CURVE",
"890 -269 LINE",
"847 -286 OFFCURVE",
"798 -307 OFFCURVE",
"740 -307 CURVE SMOOTH",
"656 -307 OFFCURVE",
"612 -267 OFFCURVE",
"612 -201 CURVE SMOOTH",
"612 -118 OFFCURVE",
"705 -26 OFFCURVE",
"816 18 CURVE",
"914 52 OFFCURVE",
"993 106 OFFCURVE",
"1028 141 CURVE",
"972 262 LINE",
"912 224 OFFCURVE",
"792 179 OFFCURVE",
"686 179 CURVE SMOOTH",
"508 179 OFFCURVE",
"412 302 OFFCURVE",
"398 528 CURVE",
"1025 528 LINE",
"1036 579 OFFCURVE",
"1042 643 OFFCURVE",
"1042 734 CURVE",
"1037 989 OFFCURVE",
"890 1140 OFFCURVE",
"607 1140 CURVE SMOOTH",
"276 1140 OFFCURVE",
"59 926 OFFCURVE",
"59 556 CURVE SMOOTH",
"59 230 OFFCURVE",
"202 -3 OFFCURVE",
"550 -21 CURVE",
"421 -91 OFFCURVE",
"351 -188 OFFCURVE",
"351 -284 CURVE SMOOTH",
"351 -424 OFFCURVE",
"491 -483 OFFCURVE",
"613 -483 CURVE SMOOTH"
);
},
{
closed = 1;
nodes = (
"402 940 OFFCURVE",
"475 1001 OFFCURVE",
"577 1001 CURVE SMOOTH",
"690 1001 OFFCURVE",
"726 901 OFFCURVE",
"727 744 CURVE SMOOTH",
"727 716 OFFCURVE",
"725 689 OFFCURVE",
"724 661 CURVE",
"396 661 LINE"
);
}
);
width = 1105;
}
);
leftKerningGroup = o;
leftMetricsKey = e;
rightKerningGroup = e;
rightMetricsKey = e;
unicode = 0119;
category = Letter;
subCategory = Lowercase;
},
{
color = 11;
glyphname = ezh;
lastChange = "2019-04-05 05:20:29 +0000";
layers = (
{
anchors = (
{
name = top;
position = "{568, 1110}";
}
);
layerId = UUID0;
paths = (
{
closed = 1;
nodes = (
"1022 1028 LINE",
"990 1108 LINE",
"126 1108 LINE",
"122 764 LINE",
"238 764 LINE",
"284 1010 LINE",
"818 1010 LINE",
"366 366 LINE",
"408 302 LINE",
"724 328 OFFCURVE",
"830 130 OFFCURVE",
"830 -10 CURVE SMOOTH",
"830 -266 OFFCURVE",
"676 -400 OFFCURVE",
"422 -400 CURVE SMOOTH",
"362 -400 OFFCURVE",
"306 -384 OFFCURVE",
"258 -362 CURVE",
"202 -96 LINE",
"114 -96 LINE",
"120 -424 LINE",
"160 -442 OFFCURVE",
"268 -498 OFFCURVE",
"458 -498 CURVE SMOOTH",
"760 -498 OFFCURVE",
"1014 -324 OFFCURVE",
"1014 -6 CURVE SMOOTH",
"1014 208 OFFCURVE",
"858 406 OFFCURVE",
"546 394 CURVE"
);
}
);
width = 1152;
},
{
anchors = (
{
name = top;
position = "{577, 1110}";
}
);
layerId = "DEBB1CE4-A72D-4960-969E-E04A036D2FA1";
paths = (
{
closed = 1;
nodes = (
"1081 985 LINE",
"1037 1111 LINE",
"77 1111 LINE",
"82 730 LINE",
"278 730 LINE",
"328 942 LINE",
"737 952 LINE",
"372 387 LINE",
"423 296 LINE",
"697 304 OFFCURVE",
"749 117 OFFCURVE",
"749 -7 CURVE SMOOTH",
"749 -266 OFFCURVE",
"611 -365 OFFCURVE",
"431 -365 CURVE SMOOTH",
"392 -365 OFFCURVE",
"355 -354 OFFCURVE",
"323 -340 CURVE",
"230 -41 LINE",
"71 -41 LINE",
"90 -424 LINE",
"147 -458 OFFCURVE",
"296 -517 OFFCURVE",
"510 -517 CURVE SMOOTH",
"881 -517 OFFCURVE",
"1107 -314 OFFCURVE",
"1107 -5 CURVE SMOOTH",
"1107 269 OFFCURVE",
"939 440 OFFCURVE",
"657 441 CURVE"
);
}
);
width = 1182;
}
);
leftKerningGroup = ezh;
rightKerningGroup = ezh;
unicode = 0292;
category = Letter;
subCategory = Lowercase;
},
{
glyphname = f;
lastChange = "2019-04-05 05:20:29 +0000";
layers = (
{
anchors = (
{
name = top;
position = "{226, 1354}";
}
);
layerId = UUID0;
paths = (
{
closed = 1;
nodes = (
"88 86 LINE",
"88 0 LINE",
"654 0 LINE",
"654 86 LINE",
"426 100 LINE",
"426 990 LINE",
"716 990 LINE",
"716 1110 LINE",
"426 1110 LINE",
"426 1262 LINE SMOOTH",
"426 1446 OFFCURVE",
"490 1508 OFFCURVE",
"628 1508 CURVE SMOOTH",
"722 1508 OFFCURVE",
"788 1486 OFFCURVE",
"806 1472 CURVE",
"806 1636 LINE",
"782 1644 OFFCURVE",
"754 1652 OFFCURVE",
"694 1652 CURVE SMOOTH",
"478 1652 OFFCURVE",
"264 1456 OFFCURVE",
"264 1210 CURVE SMOOTH",
"264 1108 LINE",
"62 1070 LINE",
"62 990 LINE",
"264 990 LINE",
"264 102 LINE"
);
}
);
width = 790;
},
{
anchors = (
{
name = top;
position = "{198, 1398}";
}
);
layerId = "DEBB1CE4-A72D-4960-969E-E04A036D2FA1";
paths = (
{
closed = 1;
nodes = (
"66 132 LINE",
"66 0 LINE",
"747 0 LINE",
"747 132 LINE",
"544 150 LINE",
"544 944 LINE",
"785 944 LINE",
"785 1111 LINE",
"544 1111 LINE",
"544 1287 LINE SMOOTH",
"544 1393 OFFCURVE",
"582 1434 OFFCURVE",
"686 1434 CURVE SMOOTH",
"760 1434 OFFCURVE",
"837 1418 OFFCURVE",
"877 1386 CURVE",
"878 1658 LINE",
"862 1663 OFFCURVE",
"820 1676 OFFCURVE",
"744 1676 CURVE SMOOTH",
"460 1676 OFFCURVE",
"218 1466 OFFCURVE",
"218 1194 CURVE SMOOTH",
"218 1108 LINE",
"62 1067 LINE",
"62 944 LINE",
"218 944 LINE",
"218 151 LINE"
);
}
);
width = 828;
}
);
leftKerningGroup = f;
rightKerningGroup = f;
unicode = 0066;
category = Letter;
subCategory = Lowercase;
},
{
glyphname = g;
lastChange = "2019-04-05 05:20:29 +0000";
layers = (
{
anchors = (
{
name = bottom;
position = "{582, 0}";
},
{
name = top;
position = "{600, 1110}";
}
);
layerId = UUID0;
paths = (
{
closed = 1;
nodes = (
"876 -540 OFFCURVE",
"1134 -352 OFFCURVE",
"1134 -134 CURVE SMOOTH",
"1134 32 OFFCURVE",
"1026 140 OFFCURVE",
"770 140 CURVE SMOOTH",
"534 140 LINE SMOOTH",
"374 140 OFFCURVE",
"314 172 OFFCURVE",
"314 276 CURVE SMOOTH",
"314 326 OFFCURVE",
"344 378 OFFCURVE",
"392 416 CURVE",
"438 404 OFFCURVE",
"488 398 OFFCURVE",
"542 398 CURVE SMOOTH",
"784 398 OFFCURVE",
"986 556 OFFCURVE",
"986 798 CURVE SMOOTH",
"986 876 OFFCURVE",
"964 942 OFFCURVE",
"928 992 CURVE",
"1156 992 LINE",
"1156 1140 LINE",
"1090 1140 LINE SMOOTH",
"982 1140 OFFCURVE",
"890 1084 OFFCURVE",
"862 1058 CURVE",
"786 1114 OFFCURVE",
"680 1140 OFFCURVE",
"564 1140 CURVE SMOOTH",
"344 1140 OFFCURVE",
"118 1002 OFFCURVE",
"118 758 CURVE SMOOTH",
"118 610 OFFCURVE",
"196 502 OFFCURVE",
"318 444 CURVE",
"234 400 OFFCURVE",
"168 308 OFFCURVE",
"168 206 CURVE SMOOTH",
"168 126 OFFCURVE",
"202 72 OFFCURVE",
"262 40 CURVE",
"174 -8 OFFCURVE",
"76 -110 OFFCURVE",
"76 -240 CURVE SMOOTH",
"76 -416 OFFCURVE",
"200 -540 OFFCURVE",
"548 -540 CURVE"
);
},
{
closed = 1;
nodes = (
"312 -438 OFFCURVE",
"238 -352 OFFCURVE",
"238 -208 CURVE SMOOTH",
"238 -114 OFFCURVE",
"282 -40 OFFCURVE",
"336 12 CURVE",
"378 2 OFFCURVE",
"428 0 OFFCURVE",
"482 0 CURVE",
"730 0 LINE SMOOTH",
"946 0 OFFCURVE",
"982 -68 OFFCURVE",
"982 -180 CURVE SMOOTH",
"982 -342 OFFCURVE",
"770 -438 OFFCURVE",
"558 -438 CURVE"
);
},
{
closed = 1;
nodes = (
"368 496 OFFCURVE",
"288 622 OFFCURVE",
"288 780 CURVE SMOOTH",
"288 982 OFFCURVE",
"406 1042 OFFCURVE",
"552 1042 CURVE",
"722 1042 OFFCURVE",
"816 962 OFFCURVE",
"816 776 CURVE SMOOTH",
"816 594 OFFCURVE",
"736 496 OFFCURVE",
"562 496 CURVE SMOOTH"
);
}
);
width = 1186;
},
{
anchors = (
{
name = bottom;
position = "{623, 0}";
},
{
name = top;
position = "{627, 1111}";
}
);
layerId = "DEBB1CE4-A72D-4960-969E-E04A036D2FA1";
paths = (
{
closed = 1;
nodes = (
"895 -540 OFFCURVE",
"1218 -377 OFFCURVE",
"1218 -103 CURVE SMOOTH",
"1218 103 OFFCURVE",
"1073 201 OFFCURVE",
"795 201 CURVE SMOOTH",
"589 201 LINE SMOOTH",
"427 201 OFFCURVE",
"367 233 OFFCURVE",
"367 314 CURVE SMOOTH",
"367 350 OFFCURVE",
"378 374 OFFCURVE",
"402 400 CURVE",
"448 391 OFFCURVE",
"503 386 OFFCURVE",
"563 386 CURVE SMOOTH",
"889 386 OFFCURVE",
"1064 546 OFFCURVE",
"1063 786 CURVE SMOOTH",
"1063 829 OFFCURVE",
"1056 867 OFFCURVE",
"1043 900 CURVE",
"1242 900 LINE",
"1242 1144 LINE",
"1170 1144 LINE SMOOTH",
"1077 1144 OFFCURVE",
"989 1088 OFFCURVE",
"957 1048 CURVE",
"881 1108 OFFCURVE",
"763 1140 OFFCURVE",
"591 1140 CURVE SMOOTH",
"314 1140 OFFCURVE",
"83 1001 OFFCURVE",
"83 765 CURVE SMOOTH",
"83 611 OFFCURVE",
"143 486 OFFCURVE",
"306 426 CURVE",
"207 382 OFFCURVE",
"144 293 OFFCURVE",
"144 207 CURVE SMOOTH",
"144 135 OFFCURVE",
"171 75 OFFCURVE",
"237 36 CURVE",
"128 2 OFFCURVE",
"48 -83 OFFCURVE",
"48 -210 CURVE SMOOTH",
"48 -425 OFFCURVE",
"243 -540 OFFCURVE",
"570 -540 CURVE"
);
},
{
closed = 1;
nodes = (
"433 -389 OFFCURVE",
"353 -300 OFFCURVE",
"353 -164 CURVE SMOOTH",
"353 -96 OFFCURVE",
"377 -46 OFFCURVE",
"402 -10 CURVE",
"424 -13 OFFCURVE",
"449 -15 OFFCURVE",
"475 -15 CURVE",
"695 -15 LINE SMOOTH",
"835 -15 OFFCURVE",
"883 -58 OFFCURVE",
"883 -168 CURVE SMOOTH",
"883 -318 OFFCURVE",
"740 -389 OFFCURVE",
"607 -389 CURVE"
);
},
{
closed = 1;
nodes = (
"461 521 OFFCURVE",
"412 613 OFFCURVE",
"412 774 CURVE SMOOTH",
"412 927 OFFCURVE",
"468 1011 OFFCURVE",
"582 1011 CURVE",
"692 1011 OFFCURVE",
"742 937 OFFCURVE",
"742 766 CURVE SMOOTH",
"742 618 OFFCURVE",
"701 521 OFFCURVE",
"583 521 CURVE SMOOTH"
);
}
);
width = 1273;
}
);
leftKerningGroup = g;
rightKerningGroup = g;
unicode = 0067;
category = Letter;
subCategory = Lowercase;
},
{
glyphname = gstroke;
lastChange = "2019-04-05 05:20:29 +0000";
layers = (
{
components = (
{
name = g;
}
);
layerId = UUID0;
paths = (
{
closed = 1;
nodes = (
"-24 -166 LINE",
"-24 -286 LINE",
"1232 -286 LINE",
"1232 -166 LINE"
);
}
);
width = 1186;
},
{
components = (
{
alignment = -1;
name = g;
}
);
layerId = "DEBB1CE4-A72D-4960-969E-E04A036D2FA1";
paths = (
{
closed = 1;
nodes = (
"-39 -148 LINE",
"-39 -268 LINE",
"1304 -268 LINE",
"1304 -148 LINE"
);
}
);
width = 1273;
}
);
leftKerningGroup = gstroke;
widthMetricsKey = g;
rightKerningGroup = gstroke;
unicode = 01E5;
category = Letter;
subCategory = Lowercase;
},
{
glyphname = h;
lastChange = "2019-04-05 05:37:27 +0000";
layers = (
{
anchors = (
{
name = bottom;
position = "{652, 0}";
},
{
name = center;
position = "{652, 556}";
},
{
name = mark0;
position = "{670, -166}";
},
{
name = top;
position = "{254, 1602}";
}
);
layerId = UUID0;
paths = (
{
closed = 1;
nodes = (
"80 86 LINE",
"80 0 LINE",
"514 0 LINE",
"514 86 LINE",
"366 102 LINE",
"366 880 LINE",
"450 944 OFFCURVE",
"586 1012 OFFCURVE",
"700 1012 CURVE SMOOTH",
"898 1012 OFFCURVE",
"930 902 OFFCURVE",
"930 668 CURVE SMOOTH",
"930 102 LINE",
"790 86 LINE",
"790 0 LINE",
"1238 0 LINE",
"1238 86 LINE",
"1092 102 LINE",
"1092 666 LINE SMOOTH",
"1092 996 OFFCURVE",
"1024 1136 OFFCURVE",
"770 1136 CURVE SMOOTH",
"604 1136 OFFCURVE",
"428 1030 OFFCURVE",
"362 970 CURVE",
"366 1136 LINE",
"366 1612 LINE",
"328 1638 LINE",
"324 1638 LINE",
"28 1604 LINE",
"28 1530 LINE",
"206 1512 LINE",
"206 100 LINE"
);
}
);
width = 1294;
},
{
anchors = (
{
name = bottom;
position = "{677, 0}";
},
{
name = center;
position = "{677, 556}";
},
{
name = mark0;
position = "{660, -166}";
},
{
name = top;
position = "{313, 1596}";
}
);
layerId = "DEBB1CE4-A72D-4960-969E-E04A036D2FA1";
paths = (
{
closed = 1;
nodes = (
"70 132 LINE",
"70 0 LINE",
"619 0 LINE",
"619 132 LINE",
"508 151 LINE",
"508 861 LINE",
"555 903 OFFCURVE",
"633 946 OFFCURVE",
"715 946 CURVE SMOOTH",
"840 946 OFFCURVE",
"866 874 OFFCURVE",
"866 696 CURVE SMOOTH",
"866 151 LINE",
"760 132 LINE",
"760 0 LINE",
"1316 0 LINE",
"1316 132 LINE",
"1194 151 LINE",
"1194 697 LINE SMOOTH",
"1194 996 OFFCURVE",
"1127 1135 OFFCURVE",
"872 1135 CURVE SMOOTH",
"691 1135 OFFCURVE",
"551 1046 OFFCURVE",
"485 986 CURVE",
"500 1164 LINE",
"499 1597 LINE",
"440 1639 LINE",
"435 1639 LINE",
"32 1592 LINE",
"32 1471 LINE",
"175 1444 LINE",
"175 150 LINE"
);
}
);
width = 1360;
}
);
leftKerningGroup = h;
rightKerningGroup = n;
rightMetricsKey = n;
unicode = 0068;
category = Letter;
subCategory = Lowercase;
},
{
glyphname = hbar;
lastChange = "2019-04-05 05:20:29 +0000";
layers = (
{
layerId = UUID0;
paths = (
{
closed = 1;
nodes = (
"14 1360 LINE",
"14 1264 LINE",
"200 1264 LINE",
"200 100 LINE",
"76 86 LINE",
"76 0 LINE",
"510 0 LINE",
"510 86 LINE",
"362 102 LINE",
"362 880 LINE",
"446 944 OFFCURVE",
"582 1012 OFFCURVE",
"696 1012 CURVE SMOOTH",
"892 1012 OFFCURVE",
"926 902 OFFCURVE",
"926 668 CURVE SMOOTH",
"926 102 LINE",
"786 86 LINE",
"786 0 LINE",
"1234 0 LINE",
"1234 86 LINE",
"1086 102 LINE",
"1086 666 LINE SMOOTH",
"1086 996 OFFCURVE",
"1018 1136 OFFCURVE",
"766 1136 CURVE SMOOTH",
"598 1136 OFFCURVE",
"424 1030 OFFCURVE",
"356 970 CURVE",
"362 1136 LINE",
"362 1264 LINE",
"630 1264 LINE",
"630 1360 LINE",
"362 1360 LINE",
"362 1612 LINE",
"324 1638 LINE",
"318 1638 LINE",
"24 1604 LINE",
"24 1530 LINE",
"200 1512 LINE",
"200 1360 LINE"
);
}
);
width = 1324;
},
{
layerId = "DEBB1CE4-A72D-4960-969E-E04A036D2FA1";
paths = (
{
closed = 1;
nodes = (
"18 1351 LINE",
"18 1218 LINE",
"176 1218 LINE",
"176 150 LINE",
"73 132 LINE",
"73 0 LINE",
"622 0 LINE",
"622 132 LINE",
"510 151 LINE",
"510 861 LINE",
"557 903 OFFCURVE",
"637 946 OFFCURVE",
"718 946 CURVE SMOOTH",
"843 946 OFFCURVE",
"868 874 OFFCURVE",
"868 696 CURVE SMOOTH",
"868 151 LINE",
"764 132 LINE",
"764 0 LINE",
"1318 0 LINE",
"1318 132 LINE",
"1197 151 LINE",
"1197 697 LINE SMOOTH",
"1197 996 OFFCURVE",
"1129 1135 OFFCURVE",
"874 1135 CURVE SMOOTH",
"694 1135 OFFCURVE",
"554 1046 OFFCURVE",
"486 986 CURVE",
"502 1164 LINE",
"502 1218 LINE",
"766 1218 LINE",
"766 1351 LINE",
"502 1351 LINE",
"502 1597 LINE",
"444 1639 LINE",
"438 1639 LINE",
"34 1592 LINE",
"34 1471 LINE",
"176 1444 LINE",
"176 1351 LINE"
);
}
);
width = 1362;
}
);
leftKerningGroup = h;
rightKerningGroup = n;
unicode = 0127;
category = Letter;
subCategory = Lowercase;
},
{
glyphname = i;
lastChange = "2019-04-05 05:20:29 +0000";
layers = (
{
anchors = (
{
name = mark0;
position = "{306, -166}";
}
);
layerId = UUID0;
paths = (
{
closed = 1;
nodes = (
"314 1320 LINE",
"396 1320 OFFCURVE",
"442 1370 OFFCURVE",
"442 1452 CURVE SMOOTH",
"442 1508 OFFCURVE",
"418 1566 OFFCURVE",
"330 1566 CURVE SMOOTH",
"250 1566 OFFCURVE",
"204 1510 OFFCURVE",
"204 1434 CURVE SMOOTH",
"204 1372 OFFCURVE",
"230 1320 OFFCURVE",
"312 1320 CURVE"
);
},
{
closed = 1;
nodes = (
"72 86 LINE",
"72 0 LINE",
"584 0 LINE",
"584 86 LINE",
"410 100 LINE",
"410 1102 LINE",
"370 1134 LINE",
"366 1134 LINE",
"92 1102 LINE",
"92 1012 LINE",
"248 978 LINE",
"248 102 LINE"
);
}
);
width = 644;
},
{
anchors = (
{
name = mark0;
position = "{356, -166}";
}
);
layerId = "DEBB1CE4-A72D-4960-969E-E04A036D2FA1";
paths = (
{
closed = 1;
nodes = (
"330 1283 LINE",
"464 1283 OFFCURVE",
"535 1366 OFFCURVE",
"535 1476 CURVE SMOOTH",
"535 1566 OFFCURVE",
"474 1640 OFFCURVE",
"351 1640 CURVE SMOOTH",
"228 1640 OFFCURVE",
"154 1556 OFFCURVE",
"154 1447 CURVE SMOOTH",
"154 1354 OFFCURVE",
"223 1283 OFFCURVE",
"328 1283 CURVE"
);
},
{
closed = 1;
nodes = (
"81 132 LINE",
"81 0 LINE",
"658 0 LINE",
"658 132 LINE",
"537 150 LINE",
"537 1096 LINE",
"476 1138 LINE",
"472 1138 LINE",
"71 1090 LINE",
"71 940 LINE",
"207 901 LINE",
"207 151 LINE"
);
}
);
width = 706;
}
);
leftKerningGroup = i;
rightKerningGroup = i;
unicode = 0069;
category = Letter;
subCategory = Lowercase;
},
{
glyphname = idotless;
lastChange = "2019-04-05 05:20:29 +0000";
layers = (
{
anchors = (
{
name = bottom;
position = "{312, 0}";
},
{
name = mark0;
position = "{306, -166}";
},
{
name = ogonek;
position = "{392, 20}";
},
{
name = top;
position = "{312, 1112}";
}
);
layerId = UUID0;
paths = (
{
closed = 1;
nodes = (
"72 86 LINE",
"72 0 LINE",
"584 0 LINE",
"584 86 LINE",
"410 100 LINE",
"410 1102 LINE",
"370 1134 LINE",
"366 1134 LINE",
"92 1102 LINE",
"92 1012 LINE",
"248 978 LINE",
"248 102 LINE"
);
}
);
width = 644;
},
{
anchors = (
{
name = bottom;
position = "{364, 0}";
},
{
name = mark0;
position = "{359, -166}";
},
{
name = ogonek;
position = "{445, 20}";
},
{
name = top;
position = "{356, 1112}";
}
);
layerId = "DEBB1CE4-A72D-4960-969E-E04A036D2FA1";
paths = (
{
closed = 1;
nodes = (
"81 132 LINE",
"81 0 LINE",
"658 0 LINE",
"658 132 LINE",
"537 150 LINE",
"537 1096 LINE",
"476 1138 LINE",
"472 1138 LINE",
"71 1090 LINE",
"71 940 LINE",
"207 901 LINE",
"207 151 LINE"
);
}
);
width = 706;
}
);
leftKerningGroup = i;
rightKerningGroup = i;
unicode = 0131;
category = Letter;
subCategory = Lowercase;
},
{
glyphname = iogonek;
lastChange = "2019-04-05 05:20:29 +0000";
layers = (
{
anchors = (
{
name = _ogonek;
position = "{404, 20}";
},
{
name = bottom;
position = "{324, 0}";
},
{
name = mark0;
position = "{318, -166}";
},
{
name = ogonek;
position = "{404, 20}";
},
{
name = top;
position = "{324, 1110}";
}
);
layerId = UUID0;
paths = (
{
closed = 1;
nodes = (
"322 1320 LINE",
"404 1320 OFFCURVE",
"450 1370 OFFCURVE",
"450 1452 CURVE SMOOTH",
"450 1508 OFFCURVE",
"426 1566 OFFCURVE",
"338 1566 CURVE SMOOTH",
"258 1566 OFFCURVE",
"212 1510 OFFCURVE",
"212 1434 CURVE SMOOTH",
"212 1372 OFFCURVE",
"238 1320 OFFCURVE",
"320 1320 CURVE"
);
},
{
closed = 1;
nodes = (
"466 -486 OFFCURVE",
"536 -428 OFFCURVE",
"586 -390 CURVE",
"586 -304 LINE",
"552 -324 OFFCURVE",
"464 -382 OFFCURVE",
"372 -382 CURVE SMOOTH",
"298 -382 OFFCURVE",
"246 -340 OFFCURVE",
"246 -256 CURVE SMOOTH",
"246 -174 OFFCURVE",
"344 -53 OFFCURVE",
"461 0 CURVE",
"596 0 LINE",
"596 86 LINE",
"422 100 LINE",
"422 1102 LINE",
"382 1134 LINE",
"378 1134 LINE",
"104 1102 LINE",
"104 1012 LINE",
"260 978 LINE",
"260 102 LINE",
"84 86 LINE",
"84 0 LINE",
"328 0 LINE",
"196 -65 OFFCURVE",
"96 -196 OFFCURVE",
"96 -302 CURVE SMOOTH",
"96 -424 OFFCURVE",
"208 -486 OFFCURVE",
"304 -486 CURVE SMOOTH"
);
}
);
width = 648;
},
{
anchors = (
{
name = _ogonek;
position = "{445, 20}";
},
{
name = bottom;
position = "{364, 0}";
},
{
name = mark0;
position = "{359, -166}";
},
{
name = ogonek;
position = "{445, 20}";
},
{
name = top;
position = "{357, 1111}";
}
);
layerId = "DEBB1CE4-A72D-4960-969E-E04A036D2FA1";
paths = (
{
closed = 1;
nodes = (
"341 1283 LINE",
"475 1283 OFFCURVE",
"546 1366 OFFCURVE",
"546 1476 CURVE SMOOTH",
"546 1566 OFFCURVE",
"485 1640 OFFCURVE",
"362 1640 CURVE SMOOTH",
"239 1640 OFFCURVE",
"165 1556 OFFCURVE",
"165 1447 CURVE SMOOTH",
"165 1354 OFFCURVE",
"234 1283 OFFCURVE",
"339 1283 CURVE"
);
},
{
closed = 1;
nodes = (
"481 -483 OFFCURVE",
"583 -449 OFFCURVE",
"638 -408 CURVE",
"639 -269 LINE",
"596 -286 OFFCURVE",
"563 -307 OFFCURVE",
"505 -307 CURVE SMOOTH",
"427 -307 OFFCURVE",
"382 -265 OFFCURVE",
"382 -201 CURVE SMOOTH",
"382 -138 OFFCURVE",
"433 -53 OFFCURVE",
"543 0 CURVE",
"658 0 LINE",
"658 132 LINE",
"537 150 LINE",
"537 1096 LINE",
"477 1138 LINE",
"473 1138 LINE",
"71 1090 LINE",
"71 940 LINE",
"207 901 LINE",
"207 151 LINE",
"81 132 LINE",
"81 0 LINE",
"352 0 LINE",
"198 -69 OFFCURVE",
"121 -185 OFFCURVE",
"121 -284 CURVE SMOOTH",
"121 -423 OFFCURVE",
"261 -483 OFFCURVE",
"379 -483 CURVE SMOOTH"
);
}
);
width = 712;
}
);
leftKerningGroup = i;
rightKerningGroup = i;
unicode = 012F;
category = Letter;
subCategory = Lowercase;
},
{
glyphname = j;
lastChange = "2019-04-05 05:20:29 +0000";
layers = (
{
layerId = UUID0;
paths = (
{
closed = 1;
nodes = (
"248 970 LINE",
"250 50 LINE SMOOTH",
"250 -166 OFFCURVE",
"216 -338 OFFCURVE",
"94 -376 CURVE SMOOTH",
"46 -392 OFFCURVE",
"0 -398 OFFCURVE",
"-20 -396 CURVE",
"-12 -478 LINE",
"0 -486 OFFCURVE",
"82 -488 OFFCURVE",
"102 -486 CURVE SMOOTH",
"294 -468 OFFCURVE",
"408 -320 OFFCURVE",
"408 12 CURVE SMOOTH",
"408 1102 LINE",
"370 1134 LINE",
"366 1134 LINE",
"88 1102 LINE",
"88 1006 LINE"
);
},
{
closed = 1;
nodes = (
"322 1320 LINE",
"404 1320 OFFCURVE",
"450 1370 OFFCURVE",
"450 1452 CURVE SMOOTH",
"450 1508 OFFCURVE",
"426 1566 OFFCURVE",
"338 1566 CURVE SMOOTH",
"258 1566 OFFCURVE",
"212 1510 OFFCURVE",
"212 1434 CURVE SMOOTH",
"212 1372 OFFCURVE",
"238 1320 OFFCURVE",
"320 1320 CURVE"
);
}
);
width = 616;
},
{
layerId = "DEBB1CE4-A72D-4960-969E-E04A036D2FA1";
paths = (
{
closed = 1;
nodes = (
"213 898 LINE",
"213 84 LINE SMOOTH",
"213 -142 OFFCURVE",
"176 -283 OFFCURVE",
"76 -329 CURVE SMOOTH",
"36 -348 OFFCURVE",
"-6 -352 OFFCURVE",
"-23 -352 CURVE",
"-8 -478 LINE",
"10 -485 OFFCURVE",
"85 -487 OFFCURVE",
"117 -486 CURVE SMOOTH",
"282 -481 OFFCURVE",
"535 -313 OFFCURVE",
"535 19 CURVE SMOOTH",
"535 1096 LINE",
"475 1138 LINE",
"471 1138 LINE",
"76 1090 LINE",
"76 937 LINE"
);
},
{
closed = 1;
nodes = (
"344 1283 LINE",
"478 1283 OFFCURVE",
"546 1366 OFFCURVE",
"546 1476 CURVE SMOOTH",
"546 1566 OFFCURVE",
"488 1640 OFFCURVE",
"365 1640 CURVE SMOOTH",
"242 1640 OFFCURVE",
"169 1556 OFFCURVE",
"169 1447 CURVE SMOOTH",
"169 1354 OFFCURVE",
"237 1283 OFFCURVE",
"342 1283 CURVE"
);
}
);
width = 680;
}
);
leftKerningGroup = j;
rightKerningGroup = i;
unicode = 006A;
category = Letter;
subCategory = Lowercase;
},
{
glyphname = jdotless;
lastChange = "2019-04-05 05:20:29 +0000";
layers = (
{
anchors = (
{
name = top;
position = "{322, 1110}";
}
);
layerId = UUID0;
paths = (
{
closed = 1;
nodes = (
"248 970 LINE",
"250 50 LINE SMOOTH",
"250 -166 OFFCURVE",
"216 -338 OFFCURVE",
"94 -376 CURVE SMOOTH",
"46 -392 OFFCURVE",
"0 -398 OFFCURVE",
"-20 -396 CURVE",
"-12 -478 LINE",
"0 -486 OFFCURVE",
"82 -488 OFFCURVE",
"102 -486 CURVE SMOOTH",
"294 -468 OFFCURVE",
"408 -320 OFFCURVE",
"408 12 CURVE SMOOTH",
"408 1102 LINE",
"370 1134 LINE",
"366 1134 LINE",
"88 1102 LINE",
"88 1006 LINE"
);
}
);
width = 616;
},
{
anchors = (
{
name = top;
position = "{352, 1111}";
}
);
layerId = "DEBB1CE4-A72D-4960-969E-E04A036D2FA1";
paths = (
{
closed = 1;
nodes = (
"208 898 LINE",
"209 84 LINE SMOOTH",
"209 -142 OFFCURVE",
"172 -282 OFFCURVE",
"72 -329 CURVE SMOOTH",
"31 -349 OFFCURVE",
"-10 -352 OFFCURVE",
"-27 -352 CURVE",
"-12 -478 LINE",
"6 -485 OFFCURVE",
"81 -487 OFFCURVE",
"112 -486 CURVE SMOOTH",
"278 -481 OFFCURVE",
"531 -313 OFFCURVE",
"531 19 CURVE SMOOTH",
"531 1096 LINE",
"470 1138 LINE",
"466 1138 LINE",
"72 1090 LINE",
"72 937 LINE"
);
}
);
width = 680;
}
);
leftKerningGroup = j;
rightKerningGroup = i;
unicode = 0237;
category = Letter;
subCategory = Lowercase;
},
{
glyphname = k;
lastChange = "2019-04-05 05:20:29 +0000";
layers = (
{
anchors = (
{
name = bottom;
position = "{632, 0}";
},
{
name = mark0;
position = "{610, -166}";
},
{
name = top;
position = "{616, 1548}";
}
);
layerId = UUID0;
paths = (
{
closed = 1;
nodes = (
"60 86 LINE",
"60 0 LINE",
"508 0 LINE",
"508 86 LINE",
"352 102 LINE",
"352 256 LINE",
"348 340 LINE",
"574 576 LINE",
"888 102 LINE",
"750 86 LINE",
"750 0 LINE",
"1208 0 LINE",
"1208 86 LINE",
"1076 100 LINE",
"678 666 LINE",
"996 1002 LINE",
"1150 1030 LINE",
"1150 1110 LINE",
"678 1110 LINE",
"678 1030 LINE",
"834 1002 LINE",
"348 476 LINE",
"352 602 LINE",
"352 1612 LINE",
"314 1638 LINE",
"312 1638 LINE",
"28 1604 LINE",
"28 1530 LINE",
"192 1512 LINE",
"192 102 LINE"
);
}
);
width = 1226;
},
{
anchors = (
{
name = bottom;
position = "{690, 0}";
},
{
name = mark0;
position = "{691, -166}";
},
{
name = top;
position = "{709, 1548}";
}
);
layerId = "DEBB1CE4-A72D-4960-969E-E04A036D2FA1";
paths = (
{
closed = 1;
nodes = (
"60 132 LINE",
"60 0 LINE",
"608 0 LINE",
"608 132 LINE",
"494 151 LINE",
"494 272 LINE",
"488 370 LINE",
"645 529 LINE",
"850 151 LINE",
"759 132 LINE",
"759 0 LINE",
"1316 0 LINE",
"1316 132 LINE",
"1212 150 LINE",
"873 734 LINE",
"1095 958 LINE",
"1261 984 LINE",
"1261 1110 LINE",
"713 1110 LINE",
"713 984 LINE",
"862 962 LINE",
"490 562 LINE",
"495 660 LINE",
"495 1597 LINE",
"437 1639 LINE",
"432 1639 LINE",
"32 1592 LINE",
"32 1471 LINE",
"170 1444 LINE",
"170 151 LINE"
);
}
);
width = 1335;
}
);
leftKerningGroup = h;
leftMetricsKey = h;
rightKerningGroup = k;
unicode = 006B;
category = Letter;
subCategory = Lowercase;
},
{
glyphname = kgreenlandic;
lastChange = "2019-04-05 05:20:29 +0000";
layers = (
{
layerId = UUID0;
paths = (
{
closed = 1;
nodes = (
"78 84 LINE",
"78 0 LINE",
"570 0 LINE",
"570 82 LINE",
"404 98 LINE",
"404 270 LINE",
"400 370 LINE",
"626 574 LINE",
"946 98 LINE",
"832 82 LINE",
"832 0 LINE",
"1272 0 LINE",
"1272 84 LINE",
"1136 98 LINE",
"732 668 LINE",
"1078 1008 LINE",
"1216 1026 LINE",
"1216 1108 LINE",
"744 1108 LINE",
"744 1026 LINE",
"908 1000 LINE",
"400 496 LINE",
"404 698 LINE",
"404 1102 LINE",
"366 1134 LINE",
"362 1134 LINE",
"86 1102 LINE",
"86 1012 LINE",
"244 978 LINE",
"244 98 LINE"
);
}
);
width = 1312;
},
{
layerId = "DEBB1CE4-A72D-4960-969E-E04A036D2FA1";
paths = (
{
closed = 1;
nodes = (
"87 131 LINE",
"87 0 LINE",
"660 0 LINE",
"660 131 LINE",
"544 150 LINE",
"544 271 LINE",
"537 361 LINE",
"701 530 LINE",
"899 148 LINE",
"817 131 LINE",
"817 0 LINE",
"1368 0 LINE",
"1368 131 LINE",
"1262 151 LINE",
"924 742 LINE",
"1159 962 LINE",
"1318 982 LINE",
"1318 1109 LINE",
"757 1109 LINE",
"757 982 LINE",
"921 960 LINE",
"536 536 LINE",
"541 698 LINE",
"541 1096 LINE",
"466 1138 LINE",
"462 1138 LINE",
"90 1095 LINE",
"90 938 LINE",
"213 901 LINE",
"211 150 LINE"
);
}
);
width = 1364;
}
);
leftKerningGroup = h;
rightKerningGroup = k;
unicode = 0138;
category = Letter;
subCategory = Lowercase;
},
{
glyphname = l;
lastChange = "2019-04-05 05:20:29 +0000";
layers = (
{
anchors = (
{
name = bottom;
position = "{292, 0}";
},
{
name = mark0;
position = "{296, -166}";
},
{
name = topright;
position = "{546, 1110}";
}
);
layerId = UUID0;
paths = (
{
closed = 1;
nodes = (
"40 86 LINE",
"40 0 LINE",
"566 0 LINE",
"566 86 LINE",
"376 100 LINE",
"376 1612 LINE",
"338 1638 LINE",
"336 1638 LINE",
"46 1604 LINE",
"46 1530 LINE",
"216 1512 LINE",
"216 102 LINE"
);
}
);
width = 606;
},
{
anchors = (
{
name = bottom;
position = "{342, 0}";
},
{
name = mark0;
position = "{327, -166}";
},
{
name = topright;
position = "{661, 1111}";
}
);
layerId = "DEBB1CE4-A72D-4960-969E-E04A036D2FA1";
paths = (
{
closed = 1;
nodes = (
"50 132 LINE",
"50 0 LINE",
"632 0 LINE",
"632 132 LINE",
"502 150 LINE",
"502 1597 LINE",
"443 1639 LINE",
"438 1639 LINE",
"37 1592 LINE",
"37 1471 LINE",
"178 1444 LINE",
"178 151 LINE"
);
}
);
width = 668;
}
);
leftKerningGroup = l;
rightKerningGroup = l;
unicode = 006C;
category = Letter;
subCategory = Lowercase;
},
{
glyphname = lacute;
lastChange = "2019-04-05 05:20:29 +0000";
layers = (
{
layerId = UUID0;
paths = (
{
closed = 1;
nodes = (
"604 0 LINE",
"604 84 LINE",
"416 98 LINE",
"416 1470 LINE",
"376 1498 LINE",
"84 1462 LINE",
"84 1390 LINE",
"254 1378 LINE",
"254 98 LINE",
"78 84 LINE",
"78 0 LINE"
);
},
{
closed = 1;
nodes = (
"326 1646 OFFCURVE",
"554 1770 OFFCURVE",
"622 1858 CURVE",
"510 1960 LINE",
"178 1660 LINE",
"234 1608 LINE"
);
}
);
width = 658;
},
{
layerId = "DEBB1CE4-A72D-4960-969E-E04A036D2FA1";
paths = (
{
closed = 1;
nodes = (
"645 0 LINE",
"645 131 LINE",
"515 150 LINE",
"515 1446 LINE",
"451 1491 LINE",
"47 1441 LINE",
"47 1321 LINE",
"188 1295 LINE",
"188 150 LINE",
"60 131 LINE",
"60 0 LINE"
);
},
{
closed = 1;
nodes = (
"348 1593 OFFCURVE",
"550 1704 OFFCURVE",
"659 1823 CURVE",
"455 1964 LINE",
"154 1657 LINE",
"274 1570 LINE"
);
}
);
width = 691;
}
);
leftKerningGroup = l;
rightKerningGroup = l;
unicode = 013A;
category = Letter;
subCategory = Lowercase;
},
{
glyphname = ldot;
lastChange = "2019-04-05 05:20:29 +0000";
layers = (
{
anchors = (
{
name = mark0;
position = "{300, -166}";
}
);
layerId = UUID0;
paths = (
{
closed = 1;
nodes = (
"40 86 LINE",
"40 0 LINE",
"566 0 LINE",
"566 86 LINE",
"378 100 LINE",
"378 1612 LINE",
"340 1638 LINE",
"338 1638 LINE",
"46 1604 LINE",
"46 1530 LINE",
"216 1512 LINE",
"216 102 LINE"
);
},
{
closed = 1;
nodes = (
"790 640 OFFCURVE",
"852 694 OFFCURVE",
"852 772 CURVE SMOOTH",
"852 830 OFFCURVE",
"820 884 OFFCURVE",
"744 884 CURVE SMOOTH",
"678 884 OFFCURVE",
"614 828 OFFCURVE",
"614 752 CURVE SMOOTH",
"614 684 OFFCURVE",
"664 640 OFFCURVE",
"724 640 CURVE SMOOTH"
);
}
);
width = 882;
},
{
anchors = (
{
name = mark0;
position = "{334, -166}";
}
);
layerId = "DEBB1CE4-A72D-4960-969E-E04A036D2FA1";
paths = (
{
closed = 1;
nodes = (
"50 132 LINE",
"50 0 LINE",
"632 0 LINE",
"632 132 LINE",
"502 150 LINE",
"502 1597 LINE",
"443 1639 LINE",
"438 1639 LINE",
"37 1592 LINE",
"37 1471 LINE",
"178 1444 LINE",
"178 151 LINE"
);
},
{
closed = 1;
nodes = (
"985 599 OFFCURVE",
"1071 664 OFFCURVE",
"1071 779 CURVE SMOOTH",
"1071 865 OFFCURVE",
"1006 948 OFFCURVE",
"895 948 CURVE SMOOTH",
"784 948 OFFCURVE",
"694 874 OFFCURVE",
"694 765 CURVE SMOOTH",
"694 668 OFFCURVE",
"776 599 OFFCURVE",
"864 599 CURVE SMOOTH"
);
}
);
width = 1115;
}
);
leftKerningGroup = l;
leftMetricsKey = l;
rightKerningGroup = periodcentered;
unicode = 0140;
category = Letter;
subCategory = Lowercase;
},
{
glyphname = lslash;
lastChange = "2019-04-05 05:20:29 +0000";
layers = (
{
layerId = UUID0;
paths = (
{
closed = 1;
nodes = (
"74 818 LINE",
"74 708 LINE",
"292 810 LINE",
"292 102 LINE",
"116 86 LINE",
"116 0 LINE",
"642 0 LINE",
"642 86 LINE",
"452 100 LINE",
"452 882 LINE",
"692 990 LINE",
"692 1110 LINE",
"452 998 LINE",
"452 1612 LINE",
"414 1638 LINE",
"412 1638 LINE",
"122 1604 LINE",
"122 1530 LINE",
"292 1512 LINE",
"292 924 LINE"
);
}
);
width = 746;
},
{
layerId = "DEBB1CE4-A72D-4960-969E-E04A036D2FA1";
paths = (
{
closed = 1;
nodes = (
"65 805 LINE",
"65 652 LINE",
"252 735 LINE",
"252 151 LINE",
"125 132 LINE",
"125 0 LINE",
"706 0 LINE",
"706 132 LINE",
"576 150 LINE",
"576 863 LINE",
"781 956 LINE",
"781 1119 LINE",
"576 1022 LINE",
"576 1597 LINE",
"517 1639 LINE",
"512 1639 LINE",
"112 1592 LINE",
"112 1471 LINE",
"252 1444 LINE",
"252 890 LINE"
);
}
);
width = 823;
}
);
leftKerningGroup = lslash;
rightKerningGroup = lslash;
unicode = 0142;
category = Letter;
subCategory = Lowercase;
},
{
glyphname = m;
lastChange = "2019-04-05 05:20:29 +0000";
layers = (
{
anchors = (
{
name = bottom;
position = "{994, 0}";
},
{
name = mark0;
position = "{980, -166}";
},
{
name = top;
position = "{994, 1110}";
}
);
layerId = UUID0;
paths = (
{
closed = 1;
nodes = (
"530 0 LINE",
"530 86 LINE",
"388 102 LINE",
"388 880 LINE",
"470 944 OFFCURVE",
"604 1012 OFFCURVE",
"716 1012 CURVE SMOOTH",
"910 1012 OFFCURVE",
"936 900 OFFCURVE",
"936 668 CURVE SMOOTH",
"936 102 LINE",
"792 86 LINE",
"792 0 LINE",
"1250 0 LINE",
"1250 86 LINE",
"1098 102 LINE",
"1098 666 LINE SMOOTH",
"1098 762 OFFCURVE",
"1092 842 OFFCURVE",
"1078 906 CURVE",
"1146 956 OFFCURVE",
"1266 1014 OFFCURVE",
"1372 1014 CURVE SMOOTH",
"1576 1014 OFFCURVE",
"1612 894 OFFCURVE",
"1612 664 CURVE SMOOTH",
"1612 102 LINE",
"1476 86 LINE",
"1476 0 LINE",
"1924 0 LINE",
"1924 86 LINE",
"1772 102 LINE",
"1772 670 LINE SMOOTH",
"1772 994 OFFCURVE",
"1706 1136 OFFCURVE",
"1452 1136 CURVE SMOOTH",
"1308 1136 OFFCURVE",
"1124 1048 OFFCURVE",
"1052 988 CURVE",
"1006 1090 OFFCURVE",
"924 1136 OFFCURVE",
"780 1136 CURVE SMOOTH",
"638 1136 OFFCURVE",
"456 1040 OFFCURVE",
"368 964 CURVE",
"370 1014 LINE",
"370 1102 LINE",
"326 1134 LINE",
"72 1102 LINE",
"72 1012 LINE",
"226 978 LINE",
"226 102 LINE",
"98 86 LINE",
"98 0 LINE"
);
}
);
width = 1980;
},
{
anchors = (
{
name = bottom;
position = "{1021, 0}";
},
{
name = mark0;
position = "{1027, -166}";
},
{
name = top;
position = "{1021, 1111}";
}
);
layerId = "DEBB1CE4-A72D-4960-969E-E04A036D2FA1";
paths = (
{
closed = 1;
nodes = (
"635 0 LINE",
"635 132 LINE",
"527 151 LINE",
"527 861 LINE",
"573 900 OFFCURVE",
"650 946 OFFCURVE",
"732 946 CURVE SMOOTH",
"851 946 OFFCURVE",
"880 881 OFFCURVE",
"880 696 CURVE SMOOTH",
"880 151 LINE",
"782 132 LINE",
"782 0 LINE",
"1327 0 LINE",
"1327 132 LINE",
"1215 151 LINE",
"1215 697 LINE SMOOTH",
"1215 761 OFFCURVE",
"1212 818 OFFCURVE",
"1202 868 CURVE",
"1248 904 OFFCURVE",
"1321 946 OFFCURVE",
"1394 946 CURVE SMOOTH",
"1514 946 OFFCURVE",
"1548 879 OFFCURVE",
"1548 689 CURVE SMOOTH",
"1548 151 LINE",
"1458 132 LINE",
"1458 0 LINE",
"2001 0 LINE",
"2001 132 LINE",
"1881 151 LINE",
"1881 698 LINE SMOOTH",
"1881 1006 OFFCURVE",
"1787 1135 OFFCURVE",
"1551 1135 CURVE SMOOTH",
"1406 1135 OFFCURVE",
"1257 1069 OFFCURVE",
"1170 985 CURVE",
"1124 1086 OFFCURVE",
"1039 1135 OFFCURVE",
"894 1135 CURVE SMOOTH",
"783 1135 OFFCURVE",
"585 1065 OFFCURVE",
"495 974 CURVE",
"496 1073 LINE",
"454 1130 LINE",
"438 1138 LINE",
"75 1095 LINE",
"75 938 LINE",
"193 901 LINE",
"193 151 LINE",
"88 132 LINE",
"88 0 LINE"
);
}
);
width = 2045;
}
);
leftKerningGroup = n;
leftMetricsKey = n;
rightKerningGroup = n;
rightMetricsKey = n;
unicode = 006D;
category = Letter;
subCategory = Lowercase;
},
{
glyphname = n;
lastChange = "2019-04-05 05:20:29 +0000";
layers = (
{
anchors = (
{
name = bottom;
position = "{664, 0}";
},
{
name = mark0;
position = "{684, -166}";
},
{
name = top;
position = "{632, 1110}";
}
);
layerId = UUID0;
paths = (
{
closed = 1;
nodes = (
"92 86 LINE",
"92 0 LINE",
"534 0 LINE",
"534 86 LINE",
"388 102 LINE",
"388 878 LINE",
"470 942 OFFCURVE",
"608 1012 OFFCURVE",
"722 1012 CURVE SMOOTH",
"916 1012 OFFCURVE",
"948 900 OFFCURVE",
"948 668 CURVE SMOOTH",
"948 100 LINE",
"814 86 LINE",
"814 0 LINE",
"1260 0 LINE",
"1260 86 LINE",
"1110 100 LINE",
"1110 666 LINE SMOOTH",
"1110 988 OFFCURVE",
"1050 1136 OFFCURVE",
"790 1136 CURVE SMOOTH",
"640 1136 OFFCURVE",
"456 1040 OFFCURVE",
"368 964 CURVE",
"370 1014 LINE",
"370 1102 LINE",
"332 1134 LINE",
"326 1134 LINE",
"72 1102 LINE",
"72 1012 LINE",
"226 978 LINE",
"226 102 LINE"
);
}
);
width = 1316;
},
{
anchors = (
{
name = bottom;
position = "{701, 0}";
},
{
name = mark0;
position = "{693, -166}";
},
{
name = top;
position = "{676, 1111}";
}
);
layerId = "DEBB1CE4-A72D-4960-969E-E04A036D2FA1";
paths = (
{
closed = 1;
nodes = (
"83 132 LINE",
"83 0 LINE",
"637 0 LINE",
"637 132 LINE",
"527 151 LINE",
"527 860 LINE",
"572 895 OFFCURVE",
"649 946 OFFCURVE",
"735 946 CURVE SMOOTH",
"854 946 OFFCURVE",
"884 881 OFFCURVE",
"884 696 CURVE SMOOTH",
"884 150 LINE",
"787 132 LINE",
"787 0 LINE",
"1331 0 LINE",
"1331 133 LINE",
"1219 150 LINE",
"1219 697 LINE SMOOTH",
"1219 1016 OFFCURVE",
"1134 1135 OFFCURVE",
"898 1135 CURVE SMOOTH",
"730 1135 OFFCURVE",
"579 1055 OFFCURVE",
"495 976 CURVE",
"497 1023 LINE",
"497 1096 LINE",
"444 1138 LINE",
"438 1138 LINE",
"75 1095 LINE",
"75 938 LINE",
"193 901 LINE",
"193 151 LINE"
);
}
);
width = 1375;
}
);
leftKerningGroup = n;
rightKerningGroup = n;
unicode = 006E;
category = Letter;
subCategory = Lowercase;
},
{
glyphname = eng;
lastChange = "2019-04-05 05:20:29 +0000";
layers = (
{
layerId = UUID0;
paths = (
{
closed = 1;
nodes = (
"106 86 LINE",
"106 0 LINE",
"546 0 LINE",
"546 86 LINE",
"402 102 LINE",
"402 880 LINE",
"486 944 OFFCURVE",
"624 1012 OFFCURVE",
"736 1012 CURVE SMOOTH",
"932 1012 OFFCURVE",
"962 904 OFFCURVE",
"962 674 CURVE SMOOTH",
"962 44 LINE SMOOTH",
"962 -178 OFFCURVE",
"926 -346 OFFCURVE",
"800 -382 CURVE",
"772 -392 OFFCURVE",
"714 -402 OFFCURVE",
"694 -398 CURVE",
"702 -482 LINE",
"714 -490 OFFCURVE",
"792 -490 OFFCURVE",
"808 -490 CURVE",
"1008 -474 OFFCURVE",
"1124 -310 OFFCURVE",
"1124 22 CURVE SMOOTH",
"1124 674 LINE SMOOTH",
"1124 996 OFFCURVE",
"1062 1138 OFFCURVE",
"804 1138 CURVE SMOOTH",
"654 1138 OFFCURVE",
"470 1042 OFFCURVE",
"382 966 CURVE",
"384 1022 LINE",
"384 1104 LINE",
"346 1136 LINE",
"340 1136 LINE",
"84 1104 LINE",
"84 1014 LINE",
"242 980 LINE",
"242 102 LINE"
);
}
);
width = 1332;
},
{
layerId = "DEBB1CE4-A72D-4960-969E-E04A036D2FA1";
paths = (
{
closed = 1;
nodes = (
"96 132 LINE",
"96 0 LINE",
"648 0 LINE",
"648 132 LINE",
"539 151 LINE",
"539 861 LINE",
"581 894 OFFCURVE",
"658 946 OFFCURVE",
"743 946 CURVE SMOOTH",
"863 946 OFFCURVE",
"896 879 OFFCURVE",
"896 702 CURVE SMOOTH",
"896 44 LINE SMOOTH",
"896 -153 OFFCURVE",
"886 -311 OFFCURVE",
"772 -358 CURVE",
"745 -371 OFFCURVE",
"686 -381 OFFCURVE",
"666 -379 CURVE",
"675 -513 LINE",
"686 -521 OFFCURVE",
"767 -523 OFFCURVE",
"783 -521 CURVE",
"1080 -514 OFFCURVE",
"1230 -310 OFFCURVE",
"1230 22 CURVE SMOOTH",
"1230 702 LINE SMOOTH",
"1230 1014 OFFCURVE",
"1145 1137 OFFCURVE",
"909 1137 CURVE SMOOTH",
"743 1137 OFFCURVE",
"593 1057 OFFCURVE",
"506 978 CURVE",
"508 1031 LINE",
"508 1097 LINE",
"455 1140 LINE",
"451 1140 LINE",
"84 1097 LINE",
"84 940 LINE",
"205 903 LINE",
"205 151 LINE"
);
}
);
width = 1381;
}
);
leftKerningGroup = n;
rightKerningGroup = n;
unicode = 014B;
category = Letter;
subCategory = Lowercase;
},
{
glyphname = o;
lastChange = "2019-04-05 05:20:29 +0000";
layers = (
{
anchors = (
{
name = bottom;
position = "{582, 0}";
},
{
name = center;
position = "{582, 556}";
},
{
name = mark0;
position = "{572, -166}";
},
{
name = ogonek;
position = "{730, 60}";
},
{
name = top;
position = "{582, 1110}";
},
{
name = topright;
position = "{1136, 1110}";
}
);
layerId = UUID0;
paths = (
{
closed = 1;
nodes = (
"76 248 OFFCURVE",
"212 -22 OFFCURVE",
"570 -22 CURVE SMOOTH",
"826 -22 OFFCURVE",
"1084 192 OFFCURVE",
"1084 556 CURVE SMOOTH",
"1084 870 OFFCURVE",
"948 1140 OFFCURVE",
"590 1140 CURVE SMOOTH",
"334 1140 OFFCURVE",
"76 926 OFFCURVE",
"76 562 CURVE SMOOTH"
);
},
{
closed = 1;
nodes = (
"348 82 OFFCURVE",
"258 306 OFFCURVE",
"258 574 CURVE SMOOTH",
"258 880 OFFCURVE",
"378 1036 OFFCURVE",
"582 1036 CURVE SMOOTH",
"816 1036 OFFCURVE",
"902 808 OFFCURVE",
"902 544 CURVE SMOOTH",
"902 240 OFFCURVE",
"782 82 OFFCURVE",
"580 82 CURVE SMOOTH"
);
}
);
width = 1160;
},
{
anchors = (
{
name = bottom;
position = "{604, 0}";
},
{
name = center;
position = "{604, 556}";
},
{
name = mark0;
position = "{548, -166}";
},
{
name = ogonek;
position = "{733, 45}";
},
{
name = top;
position = "{612, 1111}";
},
{
name = topright;
position = "{1034, 1111}";
}
);
layerId = "DEBB1CE4-A72D-4960-969E-E04A036D2FA1";
paths = (
{
closed = 1;
nodes = (
"52 187 OFFCURVE",
"259 -22 OFFCURVE",
"589 -22 CURVE SMOOTH",
"891 -22 OFFCURVE",
"1155 157 OFFCURVE",
"1155 568 CURVE SMOOTH",
"1155 931 OFFCURVE",
"949 1140 OFFCURVE",
"617 1140 CURVE SMOOTH",
"316 1140 OFFCURVE",
"52 950 OFFCURVE",
"52 550 CURVE SMOOTH"
);
},
{
closed = 1;
nodes = (
"465 117 OFFCURVE",
"406 271 OFFCURVE",
"406 574 CURVE SMOOTH",
"406 871 OFFCURVE",
"476 1001 OFFCURVE",
"603 1001 CURVE SMOOTH",
"747 1001 OFFCURVE",
"799 846 OFFCURVE",
"799 544 CURVE SMOOTH",
"799 247 OFFCURVE",
"735 117 OFFCURVE",
"608 117 CURVE SMOOTH"
);
}
);
width = 1207;
}
);
leftKerningGroup = o;
rightKerningGroup = o;
unicode = 006F;
category = Letter;
subCategory = Lowercase;
},
{
glyphname = ohorn;
lastChange = "2019-04-05 05:20:29 +0000";
layers = (
{
anchors = (
{
name = _topright;
position = "{1136, 1110}";
},
{
name = bottom;
position = "{582, 0}";
},
{
name = center;
position = "{582, 556}";
},
{
name = mark0;
position = "{572, -166}";
},
{
name = ogonek;
position = "{1056, 20}";
},
{
name = top;
position = "{590, 1110}";
},
{
name = topright;
position = "{1136, 1110}";
}
);
layerId = UUID0;
paths = (
{
closed = 1;
nodes = (
"76 248 OFFCURVE",
"212 -22 OFFCURVE",
"570 -22 CURVE SMOOTH",
"826 -22 OFFCURVE",
"1084 192 OFFCURVE",
"1084 556 CURVE SMOOTH",
"1084 726 OFFCURVE",
"1044 884 OFFCURVE",
"950 992 CURVE",
"1102 1040 OFFCURVE",
"1190 1144 OFFCURVE",
"1190 1288 CURVE SMOOTH",
"1190 1302 OFFCURVE",
"1188 1316 OFFCURVE",
"1186 1332 CURVE",
"1034 1332 LINE",
"1036 1324 OFFCURVE",
"1036 1312 OFFCURVE",
"1036 1298 CURVE SMOOTH",
"1036 1222 OFFCURVE",
"1032 1102 OFFCURVE",
"864 1064 CURVE",
"780 1110 OFFCURVE",
"688 1140 OFFCURVE",
"590 1140 CURVE SMOOTH",
"334 1140 OFFCURVE",
"76 926 OFFCURVE",
"76 562 CURVE SMOOTH"
);
},
{
closed = 1;
nodes = (
"258 880 OFFCURVE",
"378 1036 OFFCURVE",
"582 1036 CURVE SMOOTH",
"816 1036 OFFCURVE",
"902 808 OFFCURVE",
"902 544 CURVE SMOOTH",
"902 240 OFFCURVE",
"782 82 OFFCURVE",
"580 82 CURVE SMOOTH",
"348 82 OFFCURVE",
"258 306 OFFCURVE",
"258 574 CURVE SMOOTH"
);
}
);
width = 1190;
},
{
anchors = (
{
name = _topright;
position = "{1034, 1111}";
},
{
name = bottom;
position = "{604, 0}";
},
{
name = center;
position = "{604, 556}";
},
{
name = mark0;
position = "{585, -166}";
},
{
name = ogonek;
position = "{1094, 20}";
},
{
name = top;
position = "{617, 1111}";
},
{
name = topright;
position = "{1034, 1111}";
}
);
layerId = "DEBB1CE4-A72D-4960-969E-E04A036D2FA1";
paths = (
{
closed = 1;
nodes = (
"52 187 OFFCURVE",
"259 -22 OFFCURVE",
"589 -22 CURVE SMOOTH",
"891 -22 OFFCURVE",
"1155 157 OFFCURVE",
"1155 568 CURVE SMOOTH",
"1155 747 OFFCURVE",
"1106 890 OFFCURVE",
"1014 988 CURVE",
"1171 1016 OFFCURVE",
"1314 1129 OFFCURVE",
"1314 1359 CURVE SMOOTH",
"1314 1373 OFFCURVE",
"1312 1388 OFFCURVE",
"1309 1401 CURVE",
"1084 1401 LINE",
"1088 1389 OFFCURVE",
"1091 1374 OFFCURVE",
"1091 1350 CURVE SMOOTH",
"1091 1272 OFFCURVE",
"1067 1099 OFFCURVE",
"854 1094 CURVE",
"783 1123 OFFCURVE",
"703 1140 OFFCURVE",
"617 1140 CURVE SMOOTH",
"316 1140 OFFCURVE",
"52 950 OFFCURVE",
"52 550 CURVE SMOOTH"
);
},
{
closed = 1;
nodes = (
"406 871 OFFCURVE",
"476 1001 OFFCURVE",
"603 1001 CURVE SMOOTH",
"747 1001 OFFCURVE",
"799 846 OFFCURVE",
"799 544 CURVE SMOOTH",
"799 247 OFFCURVE",
"735 117 OFFCURVE",
"608 117 CURVE SMOOTH",
"465 117 OFFCURVE",
"406 271 OFFCURVE",
"406 574 CURVE SMOOTH"
);
}
);
width = 1225;
}
);
leftKerningGroup = o;
leftMetricsKey = o;
rightKerningGroup = o;
unicode = 01A1;
category = Letter;
subCategory = Lowercase;
},
{
glyphname = oslash;
lastChange = "2019-04-05 05:20:30 +0000";
layers = (
{
anchors = (
{
name = top;
position = "{602, 1110}";
}
);
background = {
paths = (
{
closed = 1;
nodes = (
"76 248 OFFCURVE",
"212 -22 OFFCURVE",
"570 -22 CURVE SMOOTH",
"826 -22 OFFCURVE",
"1084 192 OFFCURVE",
"1084 556 CURVE SMOOTH",
"1084 870 OFFCURVE",
"948 1140 OFFCURVE",
"590 1140 CURVE SMOOTH",
"334 1140 OFFCURVE",
"76 926 OFFCURVE",
"76 562 CURVE SMOOTH"
);
},
{
closed = 1;
nodes = (
"348 82 OFFCURVE",
"258 306 OFFCURVE",
"258 574 CURVE SMOOTH",
"258 880 OFFCURVE",
"378 1036 OFFCURVE",
"582 1036 CURVE SMOOTH",
"816 1036 OFFCURVE",
"902 808 OFFCURVE",
"902 544 CURVE SMOOTH",
"902 240 OFFCURVE",
"782 82 OFFCURVE",
"580 82 CURVE SMOOTH"
);
}
);
};
layerId = UUID0;
paths = (
{
closed = 1;
nodes = (
"76 336 OFFCURVE",
"144 130 OFFCURVE",
"328 32 CURVE",
"252 -166 LINE",
"338 -194 LINE",
"412 -2 LINE",
"460 -14 OFFCURVE",
"512 -22 OFFCURVE",
"570 -22 CURVE SMOOTH",
"826 -22 OFFCURVE",
"1084 192 OFFCURVE",
"1084 556 CURVE SMOOTH",
"1084 790 OFFCURVE",
"1012 990 OFFCURVE",
"834 1082 CURVE",
"906 1270 LINE",
"822 1300 LINE",
"750 1120 LINE",
"702 1132 OFFCURVE",
"650 1140 OFFCURVE",
"590 1140 CURVE SMOOTH",
"334 1140 OFFCURVE",
"76 926 OFFCURVE",
"76 562 CURVE SMOOTH"
);
},
{
closed = 1;
nodes = (
"258 880 OFFCURVE",
"378 1036 OFFCURVE",
"582 1036 CURVE SMOOTH",
"630 1036 OFFCURVE",
"672 1026 OFFCURVE",
"708 1008 CURVE",
"394 150 LINE",
"298 236 OFFCURVE",
"258 394 OFFCURVE",
"258 574 CURVE SMOOTH"
);
},
{
closed = 1;
nodes = (
"532 82 OFFCURVE",
"490 92 OFFCURVE",
"454 110 CURVE",
"770 966 LINE",
"864 878 OFFCURVE",
"902 720 OFFCURVE",
"902 544 CURVE SMOOTH",
"902 240 OFFCURVE",
"782 82 OFFCURVE",
"580 82 CURVE SMOOTH"
);
}
);
width = 1160;
},
{
anchors = (
{
name = top;
position = "{587, 1111}";
}
);
layerId = "DEBB1CE4-A72D-4960-969E-E04A036D2FA1";
paths = (
{
closed = 1;
nodes = (
"52 293 OFFCURVE",
"148 117 OFFCURVE",
"331 33 CURVE",
"248 -199 LINE",
"396 -247 LINE",
"484 -14 LINE",
"518 -18 OFFCURVE",
"552 -22 OFFCURVE",
"589 -22 CURVE SMOOTH",
"891 -22 OFFCURVE",
"1155 157 OFFCURVE",
"1155 568 CURVE SMOOTH",
"1155 824 OFFCURVE",
"1055 997 OFFCURVE",
"887 1079 CURVE",
"972 1304 LINE",
"819 1350 LINE",
"738 1130 LINE",
"702 1136 OFFCURVE",
"657 1140 OFFCURVE",
"617 1140 CURVE SMOOTH",
"316 1140 OFFCURVE",
"52 950 OFFCURVE",
"52 550 CURVE SMOOTH"
);
},
{
closed = 1;
nodes = (
"406 871 OFFCURVE",
"461 1001 OFFCURVE",
"603 1001 CURVE SMOOTH",
"642 1001 OFFCURVE",
"665 993 OFFCURVE",
"687 978 CURVE",
"458 242 LINE",
"422 314 OFFCURVE",
"406 437 OFFCURVE",
"406 574 CURVE SMOOTH"
);
},
{
closed = 1;
nodes = (
"569 117 OFFCURVE",
"552 120 OFFCURVE",
"526 138 CURVE",
"754 864 LINE",
"789 791 OFFCURVE",
"799 676 OFFCURVE",
"799 544 CURVE SMOOTH",
"799 247 OFFCURVE",
"747 117 OFFCURVE",
"608 117 CURVE SMOOTH"
);
}
);
width = 1207;
}
);
leftKerningGroup = o;
leftMetricsKey = o;
rightKerningGroup = o;
rightMetricsKey = o;
unicode = 00F8;
category = Letter;
subCategory = Lowercase;
},
{
glyphname = oe;
lastChange = "2019-04-05 05:20:30 +0000";
layers = (
{
anchors = (
{
name = mark0;
position = "{1040, -166}";
}
);
layerId = UUID0;
paths = (
{
closed = 1;
nodes = (
"748 -22 OFFCURVE",
"898 74 OFFCURVE",
"986 220 CURVE",
"1064 70 OFFCURVE",
"1202 -22 OFFCURVE",
"1398 -22 CURVE SMOOTH",
"1548 -22 OFFCURVE",
"1710 42 OFFCURVE",
"1788 120 CURVE",
"1756 194 LINE",
"1692 140 OFFCURVE",
"1562 92 OFFCURVE",
"1446 92 CURVE SMOOTH",
"1208 92 OFFCURVE",
"1086 302 OFFCURVE",
"1086 568 CURVE",
"1798 568 LINE",
"1808 612 OFFCURVE",
"1810 668 OFFCURVE",
"1810 744 CURVE",
"1800 1002 OFFCURVE",
"1660 1140 OFFCURVE",
"1426 1140 CURVE SMOOTH",
"1246 1140 OFFCURVE",
"1096 1052 OFFCURVE",
"1004 904 CURVE",
"930 1052 OFFCURVE",
"794 1140 OFFCURVE",
"594 1140 CURVE SMOOTH",
"334 1140 OFFCURVE",
"76 924 OFFCURVE",
"76 562 CURVE SMOOTH",
"76 224 OFFCURVE",
"222 -22 OFFCURVE",
"572 -22 CURVE SMOOTH"
);
},
{
closed = 1;
nodes = (
"364 84 OFFCURVE",
"258 272 OFFCURVE",
"258 574 CURVE SMOOTH",
"258 876 OFFCURVE",
"376 1036 OFFCURVE",
"582 1036 CURVE SMOOTH",
"808 1036 OFFCURVE",
"904 822 OFFCURVE",
"904 546 CURVE SMOOTH",
"904 228 OFFCURVE",
"780 84 OFFCURVE",
"580 84 CURVE SMOOTH"
);
},
{
closed = 1;
nodes = (
"1106 940 OFFCURVE",
"1226 1038 OFFCURVE",
"1386 1038 CURVE SMOOTH",
"1564 1038 OFFCURVE",
"1634 914 OFFCURVE",
"1634 750 CURVE SMOOTH",
"1634 722 OFFCURVE",
"1632 690 OFFCURVE",
"1630 662 CURVE",
"1088 662 LINE"
);
}
);
width = 1904;
},
{
anchors = (
{
name = mark0;
position = "{1061, -166}";
}
);
layerId = "DEBB1CE4-A72D-4960-969E-E04A036D2FA1";
paths = (
{
closed = 1;
nodes = (
"739 -22 OFFCURVE",
"865 31 OFFCURVE",
"955 128 CURVE",
"1039 33 OFFCURVE",
"1167 -22 OFFCURVE",
"1345 -22 CURVE SMOOTH",
"1535 -22 OFFCURVE",
"1716 75 OFFCURVE",
"1778 141 CURVE",
"1725 260 LINE",
"1664 223 OFFCURVE",
"1541 179 OFFCURVE",
"1436 179 CURVE SMOOTH",
"1257 179 OFFCURVE",
"1161 303 OFFCURVE",
"1147 528 CURVE",
"1776 528 LINE",
"1786 579 OFFCURVE",
"1792 643 OFFCURVE",
"1791 734 CURVE",
"1787 989 OFFCURVE",
"1639 1140 OFFCURVE",
"1355 1140 CURVE SMOOTH",
"1203 1140 OFFCURVE",
"1077 1090 OFFCURVE",
"986 1000 CURVE",
"905 1095 OFFCURVE",
"781 1140 OFFCURVE",
"619 1140 CURVE SMOOTH",
"316 1140 OFFCURVE",
"52 948 OFFCURVE",
"52 549 CURVE SMOOTH",
"52 178 OFFCURVE",
"263 -22 OFFCURVE",
"590 -22 CURVE SMOOTH"
);
},
{
closed = 1;
nodes = (
"472 118 OFFCURVE",
"407 248 OFFCURVE",
"407 573 CURVE SMOOTH",
"407 875 OFFCURVE",
"474 1001 OFFCURVE",
"601 1001 CURVE SMOOTH",
"742 1001 OFFCURVE",
"796 862 OFFCURVE",
"796 546 CURVE SMOOTH",
"796 241 OFFCURVE",
"733 118 OFFCURVE",
"608 118 CURVE SMOOTH"
);
},
{
closed = 1;
nodes = (
"1150 941 OFFCURVE",
"1225 1001 OFFCURVE",
"1327 1001 CURVE SMOOTH",
"1440 1001 OFFCURVE",
"1474 898 OFFCURVE",
"1474 744 CURVE SMOOTH",
"1474 716 OFFCURVE",
"1474 689 OFFCURVE",
"1473 661 CURVE",
"1144 661 LINE"
);
}
);
width = 1854;
}
);
leftKerningGroup = o;
leftMetricsKey = o;
rightKerningGroup = e;
rightMetricsKey = e;
unicode = 0153;
category = Letter;
subCategory = Lowercase;
},
{
glyphname = p;
lastChange = "2019-04-05 05:37:27 +0000";
layers = (
{
anchors = (
{
name = mark0;
position = "{662, -166}";
},
{
name = top;
position = "{640, 1110}";
}
);
layerId = UUID0;
paths = (
{
closed = 1;
nodes = (
"1168 980 OFFCURVE",
"952 1140 OFFCURVE",
"730 1140 CURVE SMOOTH",
"562 1140 OFFCURVE",
"438 1052 OFFCURVE",
"368 980 CURVE",
"368 1102 LINE",
"332 1134 LINE",
"328 1134 LINE",
"72 1102 LINE",
"72 1012 LINE",
"228 978 LINE",
"228 -376 LINE",
"74 -396 LINE",
"74 -484 LINE",
"610 -484 LINE",
"610 -396 LINE",
"388 -376 LINE",
"388 -160 LINE",
"384 10 LINE",
"438 -10 OFFCURVE",
"532 -22 OFFCURVE",
"604 -22 CURVE SMOOTH",
"946 -22 OFFCURVE",
"1168 252 OFFCURVE",
"1168 596 CURVE SMOOTH"
);
},
{
closed = 1;
nodes = (
"842 1018 OFFCURVE",
"996 886 OFFCURVE",
"994 568 CURVE",
"988 226 OFFCURVE",
"826 72 OFFCURVE",
"612 72 CURVE SMOOTH",
"502 72 OFFCURVE",
"408 108 OFFCURVE",
"388 140 CURVE",
"388 902 LINE",
"434 952 OFFCURVE",
"538 1018 OFFCURVE",
"664 1018 CURVE SMOOTH"
);
}
);
width = 1244;
},
{
anchors = (
{
name = mark0;
position = "{629, -166}";
},
{
name = top;
position = "{687, 1112}";
}
);
layerId = "DEBB1CE4-A72D-4960-969E-E04A036D2FA1";
paths = (
{
closed = 1;
nodes = (
"1235 984 OFFCURVE",
"1039 1140 OFFCURVE",
"801 1140 CURVE SMOOTH",
"659 1140 OFFCURVE",
"545 1060 OFFCURVE",
"491 988 CURVE",
"491 1096 LINE",
"437 1138 LINE",
"433 1138 LINE",
"75 1094 LINE",
"75 938 LINE",
"195 902 LINE",
"195 -334 LINE",
"75 -360 LINE",
"75 -484 LINE",
"689 -484 LINE",
"689 -360 LINE",
"517 -334 LINE",
"517 -164 LINE",
"511 -2 LINE",
"537 -12 OFFCURVE",
"591 -22 OFFCURVE",
"637 -22 CURVE SMOOTH",
"1033 -22 OFFCURVE",
"1235 268 OFFCURVE",
"1235 592 CURVE SMOOTH"
);
},
{
closed = 1;
nodes = (
"803 956 OFFCURVE",
"891 840 OFFCURVE",
"889 558 CURVE",
"889 224 OFFCURVE",
"777 110 OFFCURVE",
"643 110 CURVE SMOOTH",
"583 110 OFFCURVE",
"535 130 OFFCURVE",
"517 152 CURVE",
"517 884 LINE",
"545 920 OFFCURVE",
"609 956 OFFCURVE",
"683 956 CURVE SMOOTH"
);
}
);
width = 1287;
}
);
leftKerningGroup = n;
leftMetricsKey = n;
rightKerningGroup = b;
rightMetricsKey = o;
unicode = 0070;
category = Letter;
subCategory = Lowercase;
},
{
glyphname = thorn;
lastChange = "2019-04-05 05:37:27 +0000";
layers = (
{
layerId = UUID0;
paths = (
{
closed = 1;
nodes = (
"0 1530 LINE",
"172 1512 LINE",
"172 -384 LINE",
"16 -406 LINE",
"16 -484 LINE",
"564 -484 LINE",
"564 -406 LINE",
"334 -384 LINE",
"332 -132 LINE",
"328 0 LINE",
"390 -12 OFFCURVE",
"464 -22 OFFCURVE",
"544 -22 CURVE SMOOTH",
"894 -22 OFFCURVE",
"1114 254 OFFCURVE",
"1114 596 CURVE SMOOTH",
"1114 980 OFFCURVE",
"900 1140 OFFCURVE",
"676 1140 CURVE SMOOTH",
"520 1140 OFFCURVE",
"404 1068 OFFCURVE",
"334 1002 CURVE",
"334 1610 LINE",
"296 1638 LINE",
"292 1638 LINE",
"0 1604 LINE"
);
},
{
closed = 1;
nodes = (
"788 1018 OFFCURVE",
"942 886 OFFCURVE",
"938 568 CURVE SMOOTH",
"932 236 OFFCURVE",
"774 80 OFFCURVE",
"558 80 CURVE SMOOTH",
"458 80 OFFCURVE",
"354 104 OFFCURVE",
"334 150 CURVE",
"334 890 LINE",
"380 940 OFFCURVE",
"484 1018 OFFCURVE",
"610 1018 CURVE SMOOTH"
);
}
);
width = 1190;
},
{
layerId = "DEBB1CE4-A72D-4960-969E-E04A036D2FA1";
paths = (
{
closed = 1;
nodes = (
"3 1477 LINE",
"145 1450 LINE",
"145 -337 LINE",
"20 -362 LINE",
"20 -484 LINE",
"653 -484 LINE",
"653 -362 LINE",
"467 -337 LINE",
"466 -135 LINE",
"461 -15 LINE",
"498 -19 OFFCURVE",
"541 -22 OFFCURVE",
"585 -22 CURVE SMOOTH",
"959 -22 OFFCURVE",
"1186 245 OFFCURVE",
"1186 592 CURVE SMOOTH",
"1186 984 OFFCURVE",
"995 1140 OFFCURVE",
"756 1140 CURVE SMOOTH",
"631 1140 OFFCURVE",
"527 1080 OFFCURVE",
"466 1017 CURVE",
"466 1600 LINE",
"401 1639 LINE",
"397 1639 LINE",
"3 1592 LINE"
);
},
{
closed = 1;
nodes = (
"754 944 OFFCURVE",
"842 837 OFFCURVE",
"839 558 CURVE SMOOTH",
"836 248 OFFCURVE",
"737 102 OFFCURVE",
"595 102 CURVE SMOOTH",
"532 102 OFFCURVE",
"478 120 OFFCURVE",
"466 146 CURVE",
"466 869 LINE",
"495 905 OFFCURVE",
"559 944 OFFCURVE",
"632 944 CURVE SMOOTH"
);
}
);
width = 1238;
}
);
leftKerningGroup = b;
leftMetricsKey = b;
rightKerningGroup = b;
rightMetricsKey = p;
unicode = 00FE;
category = Letter;
subCategory = Lowercase;
},
{
glyphname = q;
lastChange = "2019-04-05 05:20:30 +0000";
layers = (
{
anchors = (
{
name = mark0;
position = "{590, -166}";
}
);
layerId = UUID0;
paths = (
{
closed = 1;
nodes = (
"1154 -484 LINE",
"1154 -402 LINE",
"1014 -382 LINE",
"1014 1102 LINE",
"980 1134 LINE",
"890 1106 LINE",
"822 1124 OFFCURVE",
"732 1140 OFFCURVE",
"642 1140 CURVE SMOOTH",
"290 1140 OFFCURVE",
"72 876 OFFCURVE",
"72 534 CURVE SMOOTH",
"72 152 OFFCURVE",
"288 -22 OFFCURVE",
"512 -22 CURVE SMOOTH",
"670 -22 OFFCURVE",
"786 56 OFFCURVE",
"858 126 CURVE",
"852 -46 LINE",
"852 -382 LINE",
"628 -402 LINE",
"628 -484 LINE"
);
},
{
closed = 1;
nodes = (
"396 94 OFFCURVE",
"244 244 OFFCURVE",
"248 562 CURVE SMOOTH",
"252 902 OFFCURVE",
"414 1052 OFFCURVE",
"626 1052 CURVE SMOOTH",
"732 1052 OFFCURVE",
"836 1014 OFFCURVE",
"852 982 CURVE",
"852 214 LINE",
"808 168 OFFCURVE",
"708 94 OFFCURVE",
"578 94 CURVE SMOOTH"
);
}
);
width = 1190;
},
{
anchors = (
{
name = mark0;
position = "{603, -166}";
}
);
layerId = "DEBB1CE4-A72D-4960-969E-E04A036D2FA1";
paths = (
{
closed = 1;
nodes = (
"1240 -484 LINE",
"1240 -361 LINE",
"1104 -336 LINE",
"1104 1096 LINE",
"1055 1131 LINE",
"894 1100 LINE",
"844 1115 OFFCURVE",
"745 1140 OFFCURVE",
"663 1140 CURVE SMOOTH",
"263 1140 OFFCURVE",
"60 854 OFFCURVE",
"60 533 CURVE SMOOTH",
"60 140 OFFCURVE",
"257 -22 OFFCURVE",
"494 -22 CURVE SMOOTH",
"611 -22 OFFCURVE",
"720 29 OFFCURVE",
"789 99 CURVE",
"783 -46 LINE",
"783 -335 LINE",
"567 -361 LINE",
"567 -484 LINE"
);
},
{
closed = 1;
nodes = (
"496 156 OFFCURVE",
"407 279 OFFCURVE",
"409 565 CURVE SMOOTH",
"410 896 OFFCURVE",
"519 1005 OFFCURVE",
"651 1005 CURVE SMOOTH",
"711 1005 OFFCURVE",
"767 984 OFFCURVE",
"783 963 CURVE",
"783 230 LINE",
"753 196 OFFCURVE",
"690 156 OFFCURVE",
"618 156 CURVE SMOOTH"
);
}
);
width = 1237;
}
);
leftKerningGroup = d;
leftMetricsKey = d;
rightKerningGroup = q;
unicode = 0071;
category = Letter;
subCategory = Lowercase;
},
{
glyphname = r;
lastChange = "2019-04-05 05:20:30 +0000";
layers = (
{
anchors = (
{
name = bottom;
position = "{326, 0}";
},
{
name = mark0;
position = "{326, -166}";
},
{
name = top;
position = "{484, 1110}";
}
);
layerId = UUID0;
paths = (
{
closed = 1;
nodes = (
"660 0 LINE",
"660 82 LINE",
"394 98 LINE",
"394 830 LINE",
"456 876 OFFCURVE",
"564 956 OFFCURVE",
"736 956 CURVE SMOOTH",
"780 956 OFFCURVE",
"820 944 OFFCURVE",
"828 938 CURVE",
"828 1106 LINE",
"814 1110 OFFCURVE",
"796 1114 OFFCURVE",
"768 1114 CURVE SMOOTH",
"548 1114 OFFCURVE",
"398 918 OFFCURVE",
"374 892 CURVE",
"370 892 LINE",
"374 1070 LINE",
"374 1102 LINE",
"336 1134 LINE",
"332 1134 LINE",
"78 1102 LINE",
"78 1012 LINE",
"232 978 LINE",
"232 96 LINE",
"72 84 LINE",
"72 0 LINE"
);
}
);
width = 878;
},
{
anchors = (
{
name = bottom;
position = "{369, 0}";
},
{
name = mark0;
position = "{372, -176}";
},
{
name = top;
position = "{514, 1111}";
}
);
layerId = "DEBB1CE4-A72D-4960-969E-E04A036D2FA1";
paths = (
{
closed = 1;
nodes = (
"744 0 LINE",
"744 131 LINE",
"524 150 LINE",
"524 762 LINE",
"561 787 OFFCURVE",
"639 824 OFFCURVE",
"746 824 CURVE SMOOTH",
"833 824 OFFCURVE",
"879 811 OFFCURVE",
"911 787 CURVE",
"911 1119 LINE",
"895 1126 OFFCURVE",
"867 1133 OFFCURVE",
"830 1133 CURVE SMOOTH",
"637 1133 OFFCURVE",
"497 956 OFFCURVE",
"473 874 CURVE",
"466 874 LINE",
"473 1048 LINE",
"473 1096 LINE",
"416 1138 LINE",
"410 1138 LINE",
"78 1095 LINE",
"78 938 LINE",
"197 901 LINE",
"197 149 LINE",
"75 131 LINE",
"75 0 LINE"
);
}
);
width = 952;
}
);
leftKerningGroup = n;
leftMetricsKey = n;
rightKerningGroup = r;
unicode = 0072;
category = Letter;
subCategory = Lowercase;
},
{
glyphname = s;
lastChange = "2019-04-05 05:20:30 +0000";
layers = (
{
anchors = (
{
name = bottom;
position = "{500, 0}";
},
{
name = mark0;
position = "{512, -166}";
},
{
name = top;
position = "{520, 1110}";
}
);
layerId = UUID0;
paths = (
{
closed = 1;
nodes = (
"120 314 LINE",
"120 62 LINE",
"184 28 OFFCURVE",
"356 -22 OFFCURVE",
"480 -22 CURVE SMOOTH",
"726 -22 OFFCURVE",
"894 96 OFFCURVE",
"894 296 CURVE SMOOTH",
"894 496 OFFCURVE",
"726 568 OFFCURVE",
"548 638 CURVE",
"416 694 OFFCURVE",
"284 732 OFFCURVE",
"284 884 CURVE SMOOTH",
"284 982 OFFCURVE",
"376 1044 OFFCURVE",
"506 1042 CURVE SMOOTH",
"596 1042 OFFCURVE",
"678 1014 OFFCURVE",
"696 980 CURVE",
"732 834 LINE",
"830 834 LINE",
"830 1072 LINE",
"788 1088 OFFCURVE",
"680 1134 OFFCURVE",
"522 1134 CURVE SMOOTH",
"314 1134 OFFCURVE",
"134 1026 OFFCURVE",
"134 850 CURVE SMOOTH",
"134 668 OFFCURVE",
"234 572 OFFCURVE",
"444 498 CURVE",
"642 424 OFFCURVE",
"744 370 OFFCURVE",
"744 252 CURVE SMOOTH",
"744 144 OFFCURVE",
"678 72 OFFCURVE",
"500 72 CURVE SMOOTH",
"390 72 OFFCURVE",
"286 116 OFFCURVE",
"258 158 CURVE",
"228 314 LINE"
);
}
);
width = 1008;
},
{
anchors = (
{
name = bottom;
position = "{530, -9}";
},
{
name = mark0;
position = "{537, -176}";
},
{
name = top;
position = "{535, 1111}";
}
);
layerId = "DEBB1CE4-A72D-4960-969E-E04A036D2FA1";
paths = (
{
closed = 1;
nodes = (
"95 324 LINE",
"95 58 LINE",
"169 41 OFFCURVE",
"316 -22 OFFCURVE",
"529 -22 CURVE SMOOTH",
"853 -22 OFFCURVE",
"994 133 OFFCURVE",
"994 315 CURVE SMOOTH",
"994 523 OFFCURVE",
"819 609 OFFCURVE",
"650 681 CURVE",
"519 738 OFFCURVE",
"398 778 OFFCURVE",
"398 887 CURVE SMOOTH",
"398 961 OFFCURVE",
"460 1009 OFFCURVE",
"561 1008 CURVE SMOOTH",
"630 1008 OFFCURVE",
"682 983 OFFCURVE",
"696 959 CURVE",
"747 806 LINE",
"926 806 LINE",
"926 1078 LINE",
"857 1085 OFFCURVE",
"751 1137 OFFCURVE",
"544 1137 CURVE SMOOTH",
"261 1137 OFFCURVE",
"94 998 OFFCURVE",
"94 815 CURVE SMOOTH",
"94 638 OFFCURVE",
"190 532 OFFCURVE",
"355 458 CURVE",
"530 377 OFFCURVE",
"670 339 OFFCURVE",
"670 234 CURVE SMOOTH",
"670 163 OFFCURVE",
"617 109 OFFCURVE",
"503 109 CURVE SMOOTH",
"433 109 OFFCURVE",
"352 138 OFFCURVE",
"335 167 CURVE",
"284 324 LINE"
);
}
);
width = 1066;
}
);
leftKerningGroup = s;
rightKerningGroup = s;
unicode = 0073;
category = Letter;
subCategory = Lowercase;
},
{
glyphname = scedilla;
lastChange = "2019-04-05 05:20:30 +0000";
layers = (
{
anchors = (
{
name = _bottom;
position = "{496, 0}";
},
{
name = bottom;
position = "{496, 0}";
},
{
name = mark0;
position = "{508, -166}";
},
{
name = top;
position = "{496, 1110}";
}
);
layerId = UUID0;
paths = (
{
closed = 1;
nodes = (
"568 -470 OFFCURVE",
"656 -422 OFFCURVE",
"662 -286 CURVE SMOOTH",
"667 -176 OFFCURVE",
"599 -68 OFFCURVE",
"554 -18 CURVE",
"757 5 OFFCURVE",
"890 118 OFFCURVE",
"890 296 CURVE SMOOTH",
"890 496 OFFCURVE",
"722 568 OFFCURVE",
"544 638 CURVE SMOOTH",
"412 694 OFFCURVE",
"280 732 OFFCURVE",
"280 884 CURVE SMOOTH",
"280 982 OFFCURVE",
"372 1044 OFFCURVE",
"502 1042 CURVE SMOOTH",
"592 1042 OFFCURVE",
"674 1014 OFFCURVE",
"692 980 CURVE",
"728 834 LINE",
"826 834 LINE",
"826 1072 LINE",
"784 1088 OFFCURVE",
"676 1134 OFFCURVE",
"518 1134 CURVE SMOOTH",
"310 1134 OFFCURVE",
"130 1026 OFFCURVE",
"130 850 CURVE SMOOTH",
"130 668 OFFCURVE",
"230 572 OFFCURVE",
"440 498 CURVE SMOOTH",
"638 424 OFFCURVE",
"740 370 OFFCURVE",
"740 252 CURVE SMOOTH",
"740 144 OFFCURVE",
"674 72 OFFCURVE",
"496 72 CURVE SMOOTH",
"386 72 OFFCURVE",
"282 116 OFFCURVE",
"254 158 CURVE",
"224 314 LINE",
"116 314 LINE",
"116 62 LINE",
"179 29 OFFCURVE",
"344 -20 OFFCURVE",
"468 -22 CURVE",
"490 -61 OFFCURVE",
"522 -132 OFFCURVE",
"522 -200 CURVE SMOOTH",
"522 -322 OFFCURVE",
"468 -342 OFFCURVE",
"370 -342 CURVE SMOOTH",
"350 -342 OFFCURVE",
"306 -336 OFFCURVE",
"278 -326 CURVE",
"276 -444 LINE",
"312 -458 OFFCURVE",
"372 -470 OFFCURVE",
"418 -470 CURVE SMOOTH"
);
}
);
width = 992;
},
{
anchors = (
{
name = _bottom;
position = "{529, 0}";
},
{
name = bottom;
position = "{529, 0}";
},
{
name = mark0;
position = "{489, -166}";
},
{
name = top;
position = "{529, 1111}";
}
);
layerId = "DEBB1CE4-A72D-4960-969E-E04A036D2FA1";
paths = (
{
closed = 1;
nodes = (
"627 -513 OFFCURVE",
"733 -460 OFFCURVE",
"742 -289 CURVE SMOOTH",
"748 -173 OFFCURVE",
"675 -69 OFFCURVE",
"626 -17 CURVE",
"881 12 OFFCURVE",
"993 153 OFFCURVE",
"993 315 CURVE SMOOTH",
"993 523 OFFCURVE",
"818 609 OFFCURVE",
"649 681 CURVE SMOOTH",
"518 738 OFFCURVE",
"397 778 OFFCURVE",
"397 887 CURVE SMOOTH",
"397 961 OFFCURVE",
"459 1009 OFFCURVE",
"560 1008 CURVE SMOOTH",
"629 1008 OFFCURVE",
"681 983 OFFCURVE",
"695 959 CURVE",
"746 806 LINE",
"925 806 LINE",
"925 1078 LINE",
"856 1085 OFFCURVE",
"750 1137 OFFCURVE",
"543 1137 CURVE SMOOTH",
"260 1137 OFFCURVE",
"93 998 OFFCURVE",
"93 815 CURVE SMOOTH",
"93 638 OFFCURVE",
"189 537 OFFCURVE",
"354 463 CURVE SMOOTH",
"529 381 OFFCURVE",
"669 339 OFFCURVE",
"669 234 CURVE SMOOTH",
"669 163 OFFCURVE",
"616 109 OFFCURVE",
"502 109 CURVE SMOOTH",
"432 109 OFFCURVE",
"351 138 OFFCURVE",
"334 167 CURVE",
"283 324 LINE",
"94 324 LINE",
"94 58 LINE",
"162 42 OFFCURVE",
"294 -12 OFFCURVE",
"476 -21 CURVE",
"497 -58 OFFCURVE",
"523 -119 OFFCURVE",
"523 -175 CURVE SMOOTH",
"523 -298 OFFCURVE",
"475 -312 OFFCURVE",
"385 -312 CURVE SMOOTH",
"369 -312 OFFCURVE",
"330 -308 OFFCURVE",
"302 -299 CURVE",
"301 -484 LINE",
"336 -499 OFFCURVE",
"397 -513 OFFCURVE",
"443 -513 CURVE SMOOTH"
);
}
);
width = 1056;
}
);
leftKerningGroup = s;
rightKerningGroup = s;
unicode = 015F;
category = Letter;
subCategory = Lowercase;
},
{
glyphname = germandbls;
lastChange = "2019-04-05 05:20:30 +0000";
layers = (
{
layerId = UUID0;
paths = (
{
closed = 1;
nodes = (
"52 86 LINE",
"52 0 LINE",
"358 0 LINE",
"358 958 LINE SMOOTH",
"358 1294 OFFCURVE",
"492 1462 OFFCURVE",
"694 1462 CURVE SMOOTH",
"834 1462 OFFCURVE",
"902 1390 OFFCURVE",
"902 1252 CURVE SMOOTH",
"902 1064 OFFCURVE",
"688 972 OFFCURVE",
"688 830 CURVE SMOOTH",
"688 580 OFFCURVE",
"1026 524 OFFCURVE",
"1026 284 CURVE SMOOTH",
"1026 178 OFFCURVE",
"958 96 OFFCURVE",
"788 96 CURVE SMOOTH",
"712 96 OFFCURVE",
"642 112 OFFCURVE",
"592 132 CURVE",
"592 0 LINE",
"630 -10 OFFCURVE",
"706 -22 OFFCURVE",
"760 -22 CURVE SMOOTH",
"1004 -22 OFFCURVE",
"1200 88 OFFCURVE",
"1200 322 CURVE SMOOTH",
"1200 616 OFFCURVE",
"844 688 OFFCURVE",
"844 868 CURVE SMOOTH",
"844 1014 OFFCURVE",
"1070 1070 OFFCURVE",
"1070 1300 CURVE SMOOTH",
"1070 1488 OFFCURVE",
"914 1566 OFFCURVE",
"740 1566 CURVE SMOOTH",
"456 1566 OFFCURVE",
"194 1346 OFFCURVE",
"194 926 CURVE SMOOTH",
"194 102 LINE"
);
}
);
width = 1272;
},
{
layerId = "DEBB1CE4-A72D-4960-969E-E04A036D2FA1";
paths = (
{
closed = 1;
nodes = (
"43 132 LINE",
"43 0 LINE",
"487 0 LINE",
"487 982 LINE SMOOTH",
"487 1278 OFFCURVE",
"572 1428 OFFCURVE",
"728 1428 CURVE SMOOTH",
"815 1428 OFFCURVE",
"871 1384 OFFCURVE",
"871 1268 CURVE SMOOTH",
"871 1012 OFFCURVE",
"678 997 OFFCURVE",
"678 818 CURVE SMOOTH",
"678 607 OFFCURVE",
"945 554 OFFCURVE",
"945 303 CURVE SMOOTH",
"945 213 OFFCURVE",
"890 140 OFFCURVE",
"781 140 CURVE SMOOTH",
"727 140 OFFCURVE",
"670 153 OFFCURVE",
"638 169 CURVE",
"638 0 LINE",
"676 -10 OFFCURVE",
"764 -22 OFFCURVE",
"806 -22 CURVE SMOOTH",
"1136 -22 OFFCURVE",
"1299 125 OFFCURVE",
"1299 347 CURVE SMOOTH",
"1299 684 OFFCURVE",
"949 774 OFFCURVE",
"949 927 CURVE SMOOTH",
"949 1070 OFFCURVE",
"1172 1082 OFFCURVE",
"1172 1309 CURVE SMOOTH",
"1172 1478 OFFCURVE",
"1040 1575 OFFCURVE",
"774 1575 CURVE SMOOTH",
"395 1575 OFFCURVE",
"154 1306 OFFCURVE",
"154 945 CURVE SMOOTH",
"154 152 LINE"
);
}
);
width = 1353;
}
);
leftKerningGroup = f;
rightKerningGroup = o;
unicode = 00DF;
category = Letter;
subCategory = Lowercase;
},
{
glyphname = t;
lastChange = "2019-04-05 05:20:30 +0000";
layers = (
{
anchors = (
{
name = bottom;
position = "{454, 0}";
},
{
name = center;
position = "{394, 556}";
},
{
name = mark0;
position = "{462, -166}";
},
{
name = top;
position = "{334, 1310}";
},
{
name = topright;
position = "{620, 1110}";
}
);
layerId = UUID0;
paths = (
{
closed = 1;
nodes = (
"542 -22 OFFCURVE",
"710 36 OFFCURVE",
"768 80 CURVE",
"742 156 LINE",
"698 134 OFFCURVE",
"586 106 OFFCURVE",
"504 106 CURVE SMOOTH",
"394 106 OFFCURVE",
"378 122 OFFCURVE",
"378 344 CURVE SMOOTH",
"378 990 LINE",
"734 990 LINE",
"734 1110 LINE",
"378 1110 LINE",
"378 1394 LINE",
"288 1394 LINE",
"280 1358 OFFCURVE",
"244 1210 OFFCURVE",
"226 1164 CURVE",
"216 1132 OFFCURVE",
"204 1116 OFFCURVE",
"182 1102 CURVE SMOOTH",
"166 1092 OFFCURVE",
"102 1078 OFFCURVE",
"66 1070 CURVE",
"66 990 LINE",
"218 990 LINE",
"218 202 LINE SMOOTH",
"218 26 OFFCURVE",
"300 -22 OFFCURVE",
"432 -22 CURVE"
);
}
);
width = 830;
},
{
anchors = (
{
name = bottom;
position = "{460, 0}";
},
{
name = center;
position = "{415, 556}";
},
{
name = mark0;
position = "{447, -166}";
},
{
name = top;
position = "{414, 1356}";
},
{
name = topright;
position = "{684, 1111}";
}
);
layerId = "DEBB1CE4-A72D-4960-969E-E04A036D2FA1";
paths = (
{
closed = 1;
nodes = (
"594 -18 OFFCURVE",
"751 40 OFFCURVE",
"823 96 CURVE",
"780 221 LINE",
"738 206 OFFCURVE",
"672 190 OFFCURVE",
"612 190 CURVE SMOOTH",
"527 190 OFFCURVE",
"511 206 OFFCURVE",
"511 415 CURVE SMOOTH",
"511 944 LINE",
"783 944 LINE",
"783 1111 LINE",
"508 1111 LINE",
"496 1412 LINE",
"307 1412 LINE",
"289 1346 OFFCURVE",
"266 1276 OFFCURVE",
"245 1225 CURVE",
"226 1176 OFFCURVE",
"211 1156 OFFCURVE",
"188 1120 CURVE SMOOTH",
"153 1102 OFFCURVE",
"96 1085 OFFCURVE",
"56 1069 CURVE",
"56 944 LINE",
"178 944 LINE",
"178 232 LINE SMOOTH",
"178 63 OFFCURVE",
"260 -18 OFFCURVE",
"436 -18 CURVE"
);
}
);
width = 851;
}
);
leftKerningGroup = t;
rightKerningGroup = t;
unicode = 0074;
category = Letter;
subCategory = Lowercase;
},
{
glyphname = tbar;
lastChange = "2019-04-05 05:20:30 +0000";
layers = (
{
layerId = UUID0;
paths = (
{
closed = 1;
nodes = (
"68 720 LINE",
"68 610 LINE",
"218 610 LINE",
"218 202 LINE SMOOTH",
"218 26 OFFCURVE",
"300 -22 OFFCURVE",
"430 -22 CURVE",
"432 -22 LINE",
"542 -22 OFFCURVE",
"710 36 OFFCURVE",
"768 80 CURVE",
"744 156 LINE",
"742 156 LINE",
"698 134 OFFCURVE",
"586 106 OFFCURVE",
"504 106 CURVE SMOOTH",
"394 106 OFFCURVE",
"380 122 OFFCURVE",
"380 344 CURVE SMOOTH",
"380 610 LINE",
"734 610 LINE",
"734 720 LINE",
"380 720 LINE",
"380 992 LINE",
"734 992 LINE",
"734 1110 LINE",
"380 1110 LINE",
"380 1394 LINE",
"288 1394 LINE",
"280 1358 OFFCURVE",
"244 1210 OFFCURVE",
"226 1164 CURVE",
"216 1132 OFFCURVE",
"204 1114 OFFCURVE",
"182 1102 CURVE SMOOTH",
"166 1092 OFFCURVE",
"102 1078 OFFCURVE",
"66 1070 CURVE",
"66 992 LINE",
"218 992 LINE",
"218 720 LINE"
);
}
);
width = 830;
},
{
layerId = "DEBB1CE4-A72D-4960-969E-E04A036D2FA1";
paths = (
{
closed = 1;
nodes = (
"56 719 LINE",
"56 566 LINE",
"183 566 LINE",
"183 232 LINE SMOOTH",
"183 63 OFFCURVE",
"263 -18 OFFCURVE",
"437 -18 CURVE",
"439 -18 LINE",
"597 -18 OFFCURVE",
"757 40 OFFCURVE",
"829 96 CURVE",
"787 221 LINE",
"785 221 LINE",
"742 206 OFFCURVE",
"676 190 OFFCURVE",
"609 190 CURVE SMOOTH",
"524 190 OFFCURVE",
"514 206 OFFCURVE",
"514 415 CURVE SMOOTH",
"514 566 LINE",
"789 566 LINE",
"789 719 LINE",
"514 719 LINE",
"514 945 LINE",
"798 945 LINE",
"798 1111 LINE",
"512 1111 LINE",
"500 1412 LINE",
"315 1412 LINE",
"295 1346 OFFCURVE",
"271 1262 OFFCURVE",
"247 1210 CURVE",
"228 1162 OFFCURVE",
"207 1132 OFFCURVE",
"185 1111 CURVE SMOOTH",
"181 1107 OFFCURVE",
"68 1063 OFFCURVE",
"60 1060 CURVE",
"60 945 LINE",
"183 945 LINE",
"183 719 LINE"
);
}
);
width = 857;
}
);
leftKerningGroup = t;
leftMetricsKey = t;
rightKerningGroup = t;
rightMetricsKey = t;
unicode = 0167;
category = Letter;
subCategory = Lowercase;
},
{
glyphname = tcedilla;
lastChange = "2019-04-05 05:20:30 +0000";
layers = (
{
anchors = (
{
name = _bottom;
position = "{462, 0}";
},
{
name = bottom;
position = "{462, 0}";
},
{
name = center;
position = "{402, 556}";
},
{
name = mark0;
position = "{470, -166}";
},
{
name = top;
position = "{342, 1310}";
},
{
name = topright;
position = "{608, 1330}";
}
);
layerId = UUID0;
paths = (
{
closed = 1;
nodes = (
"218 992 LINE",
"218 202 LINE SMOOTH",
"218 26 OFFCURVE",
"300 -22 OFFCURVE",
"432 -22 CURVE",
"456 -60 OFFCURVE",
"488 -132 OFFCURVE",
"488 -200 CURVE SMOOTH",
"488 -322 OFFCURVE",
"434 -342 OFFCURVE",
"336 -342 CURVE SMOOTH",
"316 -342 OFFCURVE",
"272 -336 OFFCURVE",
"244 -326 CURVE",
"242 -444 LINE",
"278 -458 OFFCURVE",
"338 -470 OFFCURVE",
"384 -470 CURVE SMOOTH",
"534 -470 OFFCURVE",
"622 -422 OFFCURVE",
"628 -286 CURVE SMOOTH",
"634 -172 OFFCURVE",
"560 -62 OFFCURVE",
"516 -14 CURVE",
"614 4 OFFCURVE",
"724 46 OFFCURVE",
"768 80 CURVE",
"742 156 LINE",
"698 134 OFFCURVE",
"586 106 OFFCURVE",
"504 106 CURVE SMOOTH",
"394 106 OFFCURVE",
"380 122 OFFCURVE",
"380 344 CURVE SMOOTH",
"380 992 LINE",
"734 992 LINE",
"734 1110 LINE",
"380 1110 LINE",
"380 1394 LINE",
"288 1394 LINE",
"280 1358 OFFCURVE",
"244 1210 OFFCURVE",
"226 1164 CURVE",
"216 1132 OFFCURVE",
"204 1114 OFFCURVE",
"182 1102 CURVE",
"166 1092 OFFCURVE",
"102 1078 OFFCURVE",
"66 1070 CURVE",
"66 992 LINE"
);
}
);
width = 830;
},
{
anchors = (
{
name = _bottom;
position = "{468, 0}";
},
{
name = bottom;
position = "{468, 0}";
},
{
name = center;
position = "{423, 556}";
},
{
name = mark0;
position = "{455, -166}";
},
{
name = top;
position = "{422, 1356}";
},
{
name = topright;
position = "{674, 1361}";
}
);
layerId = "DEBB1CE4-A72D-4960-969E-E04A036D2FA1";
paths = (
{
closed = 1;
nodes = (
"178 945 LINE",
"178 232 LINE SMOOTH",
"178 70 OFFCURVE",
"253 -10 OFFCURVE",
"413 -18 CURVE",
"435 -54 OFFCURVE",
"463 -117 OFFCURVE",
"463 -175 CURVE SMOOTH",
"463 -298 OFFCURVE",
"415 -312 OFFCURVE",
"324 -312 CURVE SMOOTH",
"309 -312 OFFCURVE",
"269 -308 OFFCURVE",
"241 -299 CURVE",
"241 -484 LINE",
"275 -499 OFFCURVE",
"337 -513 OFFCURVE",
"383 -513 CURVE SMOOTH",
"567 -513 OFFCURVE",
"672 -460 OFFCURVE",
"681 -289 CURVE SMOOTH",
"689 -166 OFFCURVE",
"604 -56 OFFCURVE",
"556 -8 CURVE",
"669 11 OFFCURVE",
"771 55 OFFCURVE",
"824 96 CURVE",
"782 221 LINE",
"739 206 OFFCURVE",
"673 190 OFFCURVE",
"604 190 CURVE SMOOTH",
"520 190 OFFCURVE",
"512 206 OFFCURVE",
"512 415 CURVE SMOOTH",
"512 945 LINE",
"795 945 LINE",
"795 1111 LINE",
"509 1111 LINE",
"497 1412 LINE",
"310 1412 LINE",
"292 1346 OFFCURVE",
"266 1262 OFFCURVE",
"244 1210 CURVE",
"225 1162 OFFCURVE",
"204 1132 OFFCURVE",
"181 1111 CURVE",
"145 1093 OFFCURVE",
"96 1077 OFFCURVE",
"56 1060 CURVE",
"56 945 LINE"
);
}
);
width = 852;
}
);
leftKerningGroup = t;
leftMetricsKey = t;
rightKerningGroup = t;
rightMetricsKey = t;
unicode = 0163;
category = Letter;
subCategory = Lowercase;
},
{
glyphname = u;
lastChange = "2019-04-05 05:20:30 +0000";
layers = (
{
anchors = (
{
name = bottom;
position = "{610, 0}";
},
{
name = mark0;
position = "{630, -166}";
},
{
name = ogonek;
position = "{1052, 20}";
},
{
name = top;
position = "{582, 1110}";
},
{
name = topright;
position = "{1090, 1110}";
}
);
layerId = UUID0;
paths = (
{
closed = 1;
nodes = (
"1058 -18 OFFCURVE",
"1110 0 OFFCURVE",
"1154 12 CURVE",
"1156 88 LINE",
"1032 88 LINE",
"1032 1110 LINE",
"986 1134 LINE",
"984 1134 LINE",
"718 1108 LINE",
"718 1034 LINE",
"870 1000 LINE",
"870 228 LINE",
"808 174 OFFCURVE",
"694 100 OFFCURVE",
"564 100 CURVE SMOOTH",
"378 100 OFFCURVE",
"340 198 OFFCURVE",
"340 436 CURVE SMOOTH",
"340 1110 LINE",
"304 1134 LINE",
"302 1134 LINE",
"60 1108 LINE",
"60 1034 LINE",
"178 1000 LINE",
"178 412 LINE SMOOTH",
"178 108 OFFCURVE",
"268 -22 OFFCURVE",
"514 -22 CURVE SMOOTH",
"662 -22 OFFCURVE",
"808 72 OFFCURVE",
"888 144 CURVE",
"888 66 LINE SMOOTH",
"888 -2 OFFCURVE",
"924 -18 OFFCURVE",
"988 -18 CURVE SMOOTH"
);
}
);
width = 1248;
},
{
anchors = (
{
name = bottom;
position = "{638, 0}";
},
{
name = mark0;
position = "{676, -166}";
},
{
name = ogonek;
position = "{1106, 20}";
},
{
name = top;
position = "{614, 1112}";
},
{
name = topright;
position = "{1212, 1112}";
}
);
layerId = "DEBB1CE4-A72D-4960-969E-E04A036D2FA1";
paths = (
{
closed = 1;
nodes = (
"1094 -20 OFFCURVE",
"1188 0 OFFCURVE",
"1238 10 CURVE",
"1238 138 LINE",
"1132 138 LINE",
"1132 1108 LINE",
"1084 1136 LINE",
"1078 1136 LINE",
"682 1110 LINE",
"682 986 LINE",
"806 956 LINE",
"806 236 LINE",
"776 206 OFFCURVE",
"714 160 OFFCURVE",
"618 160 CURVE SMOOTH",
"510 160 OFFCURVE",
"472 218 OFFCURVE",
"472 392 CURVE SMOOTH",
"472 1108 LINE",
"428 1136 LINE",
"426 1136 LINE",
"50 1110 LINE",
"50 982 LINE",
"144 956 LINE",
"144 400 LINE SMOOTH",
"144 96 OFFCURVE",
"244 -22 OFFCURVE",
"506 -22 CURVE SMOOTH",
"644 -22 OFFCURVE",
"784 64 OFFCURVE",
"844 146 CURVE",
"844 102 LINE SMOOTH",
"844 24 OFFCURVE",
"882 -20 OFFCURVE",
"980 -20 CURVE SMOOTH"
);
}
);
width = 1298;
}
);
leftKerningGroup = u;
rightKerningGroup = u;
unicode = 0075;
category = Letter;
subCategory = Lowercase;
},
{
glyphname = uhorn;
lastChange = "2019-04-05 05:20:30 +0000";
layers = (
{
anchors = (
{
name = bottom;
position = "{610, 0}";
},
{
name = mark0;
position = "{-28, -166}";
},
{
name = top;
position = "{582, 1110}";
}
);
background = {
paths = (
{
closed = 1;
nodes = (
"-526 248 OFFCURVE",
"-390 -22 OFFCURVE",
"-32 -22 CURVE SMOOTH",
"224 -22 OFFCURVE",
"482 192 OFFCURVE",
"482 556 CURVE SMOOTH",
"482 726 OFFCURVE",
"442 884 OFFCURVE",
"348 992 CURVE",
"500 1040 OFFCURVE",
"588 1144 OFFCURVE",
"588 1288 CURVE SMOOTH",
"588 1302 OFFCURVE",
"586 1316 OFFCURVE",
"584 1332 CURVE",
"424 1332 LINE",
"426 1324 OFFCURVE",
"426 1312 OFFCURVE",
"426 1298 CURVE SMOOTH",
"426 1222 OFFCURVE",
"430 1102 OFFCURVE",
"262 1064 CURVE",
"178 1110 OFFCURVE",
"86 1140 OFFCURVE",
"-12 1140 CURVE SMOOTH",
"-268 1140 OFFCURVE",
"-526 926 OFFCURVE",
"-526 562 CURVE SMOOTH"
);
},
{
closed = 1;
nodes = (
"-344 880 OFFCURVE",
"-224 1036 OFFCURVE",
"-20 1036 CURVE SMOOTH",
"214 1036 OFFCURVE",
"300 808 OFFCURVE",
"300 544 CURVE SMOOTH",
"300 240 OFFCURVE",
"180 82 OFFCURVE",
"-22 82 CURVE SMOOTH",
"-254 82 OFFCURVE",
"-344 306 OFFCURVE",
"-344 574 CURVE SMOOTH"
);
}
);
};
components = (
{
name = u;
}
);
layerId = UUID0;
paths = (
{
closed = 1;
nodes = (
"1030 1054 LINE",
"1156 1082 OFFCURVE",
"1244 1138 OFFCURVE",
"1244 1288 CURVE SMOOTH",
"1244 1302 OFFCURVE",
"1242 1316 OFFCURVE",
"1240 1332 CURVE",
"1086 1332 LINE",
"1088 1324 OFFCURVE",
"1088 1312 OFFCURVE",
"1088 1298 CURVE SMOOTH",
"1088 1178 OFFCURVE",
"1030 1138 OFFCURVE",
"942 1130 CURVE",
"756 1088 LINE"
);
}
);
width = 1248;
},
{
anchors = (
{
name = bottom;
position = "{610, 0}";
},
{
name = mark0;
position = "{676, -166}";
},
{
name = top;
position = "{582, 1110}";
}
);
components = (
{
name = u;
}
);
layerId = "DEBB1CE4-A72D-4960-969E-E04A036D2FA1";
paths = (
{
closed = 1;
nodes = (
"1132 1026 LINE",
"1288 1058 OFFCURVE",
"1374 1190 OFFCURVE",
"1374 1336 CURVE SMOOTH",
"1374 1362 OFFCURVE",
"1372 1388 OFFCURVE",
"1370 1402 CURVE",
"1144 1402 LINE",
"1148 1390 OFFCURVE",
"1150 1368 OFFCURVE",
"1150 1332 CURVE SMOOTH",
"1150 1272 OFFCURVE",
"1116 1172 OFFCURVE",
"1026 1136 CURVE",
"722 1090 LINE"
);
}
);
width = 1298;
}
);
leftKerningGroup = u;
leftMetricsKey = u;
widthMetricsKey = u;
rightKerningGroup = u;
unicode = 01B0;
category = Letter;
subCategory = Lowercase;
},
